<?xml version="1.0" encoding="utf-8"?>
<!-- Generator: Adobe Illustrator 26.0.1, SVG Export Plug-In . SVG Version: 6.00 Build 0)  -->
<svg version="1.1" id="Capa_1" xmlns="http://www.w3.org/2000/svg" xmlns:xlink="http://www.w3.org/1999/xlink" x="0px" y="0px"
	 viewBox="0 0 487.42 465.28" style="enable-background:new 0 0 487.42 465.28;" xml:space="preserve">
<style type="text/css">
	.st0{fill:url(#SVGID_1_);}
	.st1{fill:none;stroke:#95C11F;stroke-width:0.5;stroke-miterlimit:10;}
	.st2{fill:url(#SVGID_00000156572657234282984850000018408278614122467477_);}
	.st3{fill:none;stroke:#1E1E1C;stroke-width:0.5;stroke-linecap:round;stroke-linejoin:round;stroke-miterlimit:10;}
	.st4{fill:none;}
	.st5{fill:#1E1E1C;}
	.st6{font-family:'BarlowSemiCondensed-Medium';}
	.st7{font-size:8.7817px;}
	.st8{font-family:'BarlowSemiCondensed-Light';}
	.st9{fill:none;stroke:#95C11F;stroke-width:0.5;stroke-miterlimit:10;stroke-dasharray:0.63,0.63;}
	.st10{fill:#95C11F;}
	.st11{fill:url(#SVGID_00000156556187329751847090000016227855192467112372_);}
	.st12{fill:url(#SVGID_00000026863790781840959690000015033278309613927814_);}
	.st13{fill:url(#SVGID_00000036232631191424880510000005161880299530282922_);}
	.st14{fill:url(#SVGID_00000101799628709696332530000011010164717827368871_);}
	.st15{fill:url(#SVGID_00000158004046629849118330000005784061733306112959_);}
	.st16{fill:url(#SVGID_00000069362814652133616340000006296660664389838513_);}
	.st17{fill:url(#SVGID_00000139277105912668865770000010380611368641765036_);}
	.st18{fill:url(#SVGID_00000021833381889787242370000006442119324809495446_);}
	.st19{fill:url(#SVGID_00000037682347699519233300000011414265546943506832_);}
	.st20{font-size:8.4551px;}
	.st21{fill:#D2E5A1;}
	.st22{fill:#AED055;}
	.st23{fill:#006633;}
	.st24{fill:#FFFFFF;}
	.st25{font-family:'BarlowSemiCondensed-Bold';}
	.st26{fill:none;stroke:#95C11F;stroke-width:0.5;stroke-miterlimit:10;stroke-dasharray:0.7384,0.7384;}
	.st27{fill:none;stroke:#95C11F;stroke-width:0.5;stroke-miterlimit:10;stroke-dasharray:0.7002,0.7002;}
	.st28{fill:none;stroke:#95C11F;stroke-width:0.5;stroke-miterlimit:10;stroke-dasharray:0.7509,0.7509;}
	.st29{fill:none;stroke:#C4DD82;stroke-width:0.5;stroke-miterlimit:10;stroke-dasharray:0.8801,0.8801;}
	.st30{fill:#C4DD82;}
	.st31{font-size:8.0089px;}
	.st32{fill:#327241;}
	.st33{fill:none;stroke:#C4DD82;stroke-width:0.5;stroke-miterlimit:10;stroke-dasharray:0.6963,0.6963;}
	.st34{fill:none;stroke:#95C11F;stroke-width:0.5;stroke-miterlimit:10;stroke-dasharray:0.6776,0.6776;}
	.st35{font-size:7.5px;}
	.st36{font-family:'BarlowSemiCondensed-LightItalic';}
	.st37{fill:#A29F9E;}
	.st38{fill:#D9D9D9;}
	.st39{fill:#585453;}
	.st40{fill:#BFBCBC;}
	.st41{fill:#BFBCBC;stroke:#BFBCBC;stroke-width:0.9901;stroke-linecap:round;stroke-miterlimit:10;}
	.st42{fill:#FFFFFF;stroke:#BFBCBC;stroke-width:0.9901;stroke-linecap:round;stroke-miterlimit:10;}
	.st43{fill:none;stroke:#BFBCBC;stroke-width:0.9901;stroke-linecap:round;stroke-miterlimit:10;}
	.st44{fill:#95C11F;stroke:#95C11F;stroke-width:1.3201;stroke-miterlimit:10;}
</style>
<linearGradient id="SVGID_1_" gradientUnits="userSpaceOnUse" x1="376.3918" y1="59.4041" x2="376.3918" y2="102.0566">
	<stop  offset="0.6608" style="stop-color:#E0EDBE"/>
	<stop  offset="1" style="stop-color:#FFFFFF"/>
	<stop  offset="1" style="stop-color:#000000"/>
</linearGradient>
<rect x="328.28" y="57.23" class="st0" width="96.23" height="41.59"/>
<polyline class="st1" points="428.4,57.23 433.25,57.23 433.25,78.02 433.25,98.11 428.4,98.11 "/>
<polyline class="st1" points="433.25,78.02 437.3,78.02 437.3,29.49 418.95,29.49 "/>
<linearGradient id="SVGID_00000096763512804495434730000018096545592416207545_" gradientUnits="userSpaceOnUse" x1="316.6114" y1="337.4338" x2="293.9301" y2="355.3679">
	<stop  offset="0.0269" style="stop-color:#FFFFFF"/>
	<stop  offset="0.5777" style="stop-color:#006633"/>
</linearGradient>
<path style="fill:url(#SVGID_00000096763512804495434730000018096545592416207545_);" d="M313.94,338.33
	c-1.35,1.22-5.55,5.5-8.15,10.05s-3.61,9.36-4,10.64c-0.87,2.81-2.99,3.38-5.01,3.44c-2.02,0.06-1.4-3.72,0.62-5.59
	c0.86-0.8,0.49-5.86,3.4-10.99c4.16-7.32,9.52-15.21,11.82-16.18c0.34-0.14,3.11-1.64,3.11-1.64"/>
<path class="st3" d="M331.4,318.82c0,0-1.66-0.94-2.74,0.12s-0.68,1.55-0.28,2.18c0.4,0.63,0.22,1.05-0.53,2.13
	c-0.75,1.09-0.55,3.19,0.3,3.89s3.03,0.49,3.03,0.49l1.74-3.18c0.56-3.77-1.32-5.23-2.29-6.6c-1.47-2.11-1.72-3.78-7.05-3.24
	c-5.14,0.53-6.4,4.25-6.58,7.61c-0.13,2.34,0.06,3.62,0.16,4.91c0.04,0.43-1.12,0.56-1.46,0.91c0,0-2.77,1.5-3.11,1.64
	c-2.3,0.97-7.66,8.86-11.82,16.18c-2.92,5.13-2.54,10.19-3.4,10.99c-2.01,1.87-2.64,5.65-0.62,5.59c2.02-0.06,4.14-0.63,5.01-3.44
	c0,0,2.37-9.16,5.84-13.46c3.47-4.29,6.32-7.21,6.32-7.21"/>
<g>
	<rect x="63.4" y="412.07" class="st4" width="376.86" height="29.41"/>
	<text transform="matrix(1 0 0 1 63.3987 418.2133)"><tspan x="0" y="0" class="st5 st6 st7">Braquiación de rebote </tspan><tspan x="77.88" y="0" class="st5 st8 st7"> (exclusiva de la familia de los hilobátidos): se distingue por incluir un estado aéreo en el </tspan><tspan x="0" y="10.54" class="st5 st8 st7">cual el hilobátido se suelta de su primer soporte antes de alcanzar el segundo. </tspan><tspan x="0" y="21.08" class="st5 st6 st7">Velocidad de desplazamiento de hasta 48 km/h. </tspan></text>
</g>
<g>
	<rect x="61.97" y="263.55" class="st4" width="378.07" height="10.12"/>
	<text transform="matrix(1 0 0 1 61.9641 269.6976)"><tspan x="0" y="0" class="st5 st8 st7">Se desplaza mediante el balanceo entre las ramas de los árboles, técnica conocida como </tspan><tspan x="297.4" y="0" class="st5 st6 st7">      braquiación.</tspan></text>
</g>
<rect x="342.42" y="287.31" class="st5" width="1.95" height="6.72"/>
<rect x="284.07" y="287.31" class="st5" width="1.95" height="6.72"/>
<rect x="196.73" y="287.31" class="st5" width="1.95" height="6.72"/>
<rect x="161.34" y="287.31" class="st5" width="1.95" height="6.72"/>
<rect x="133.35" y="287.31" class="st5" width="1.95" height="6.72"/>
<rect x="387.7" y="287.31" class="st5" width="1.95" height="6.72"/>
<g>
	<rect x="213.06" y="296.07" class="st4" width="55.99" height="12.06"/>
	<text transform="matrix(1 0 0 1 223.4822 302.2133)" class="st5 st8 st7">Vuelo libre</text>
</g>
<g>
	<rect x="215.43" y="279.23" class="st4" width="55.99" height="12.06"/>
	<text transform="matrix(1 0 0 1 215.7649 285.3812)" class="st5 st8 st7">Avanza 3 metros</text>
</g>
<g>
	<rect x="98.06" y="385.79" class="st4" width="88.92" height="13.09"/>
	<text transform="matrix(1 0 0 1 100.6785 391.9418)" class="st5 st8 st7">Pre-vuelo de braquiación </text>
</g>
<g>
	<rect x="312.37" y="386.19" class="st4" width="83.19" height="7.57"/>
	<text transform="matrix(1 0 0 1 337.8088 392.3412)" class="st5 st8 st7">Aterrizaje</text>
</g>
<g>
	<g>
		<line class="st9" x1="201.95" y1="290.67" x2="280.15" y2="290.67"/>
		<g>
			<polygon class="st10" points="203.35,292.53 202.56,290.67 203.35,288.82 198.96,290.67 			"/>
		</g>
		<g>
			<polygon class="st10" points="278.75,292.53 279.54,290.67 278.75,288.82 283.14,290.67 			"/>
		</g>
	</g>
</g>
<linearGradient id="SVGID_00000009580107304712321890000004943298329594978723_" gradientUnits="userSpaceOnUse" x1="252.6819" y1="326.8737" x2="285.8202" y2="298.2598">
	<stop  offset="0.0189" style="stop-color:#FFFFFF"/>
	<stop  offset="0.4426" style="stop-color:#95C11F"/>
</linearGradient>
<path style="fill:url(#SVGID_00000009580107304712321890000004943298329594978723_);" d="M250.03,321.23l3.77-1.35
	c3.9-2.05,7.59-5.97,12.02-9.31c6.33-4.76,10.88-11.43,12.15-12.39c1.27-0.95,4.31-0.04,4.77,1.09c0.41,0.98-0.72,2.73-2.5,3.44
	c-1.77,0.71-5.57,11.43-7.59,14.53c-1.29,1.97-17.48,14.8-17.48,14.8"/>
<linearGradient id="SVGID_00000117652882243932362490000016852671039401158580_" gradientUnits="userSpaceOnUse" x1="229.6136" y1="325.8612" x2="206.7803" y2="310.5348">
	<stop  offset="0" style="stop-color:#FFFFFF"/>
	<stop  offset="1" style="stop-color:#006633"/>
</linearGradient>
<path style="fill:url(#SVGID_00000117652882243932362490000016852671039401158580_);" d="M231.18,332.37l-4.98-1.71
	c0,0-3.54-0.95-11.13-7.15c-7.59-6.19-14.17-16.44-15.94-19.06c-1.77-2.62-2.02-3.1,0-5.48c2.02-2.38,3.8,3.57,3.54,4.76
	c-0.25,1.19,10.38,8.58,16.45,12.39c3.18,2,6.72,3.74,10.36,4.42c0.9,0.17,2.08,0.33,3.38,0.49"/>
<linearGradient id="SVGID_00000090282709254830194170000018114142205999469984_" gradientUnits="userSpaceOnUse" x1="395.8182" y1="341.0673" x2="424.0078" y2="341.0673">
	<stop  offset="0" style="stop-color:#FFFFFF"/>
	<stop  offset="1" style="stop-color:#006633"/>
</linearGradient>
<path style="fill:url(#SVGID_00000090282709254830194170000018114142205999469984_);" d="M395.82,346.94
	c1.44,0.72,3.03,1.33,4.4,1.41c3.58,0.21,11.16-5.37,13.26-7.53c2.11-2.16,4.21-3.63,6.53-2.79c2.32,0.84,4,0.63,4-0.63
	s-2.53-4-5.89-3.58c-3.37,0.42-14.53,5.68-16.21,5.47c-0.41-0.05-0.86-0.16-1.32-0.34"/>
<linearGradient id="SVGID_00000139981224028778262300000009826423230687131276_" gradientUnits="userSpaceOnUse" x1="390.0194" y1="332.4626" x2="390.0194" y2="300.231">
	<stop  offset="0.0547" style="stop-color:#FFFFFF"/>
	<stop  offset="0.5565" style="stop-color:#95C11F"/>
</linearGradient>
<path style="fill:url(#SVGID_00000139981224028778262300000009826423230687131276_);" d="M394.03,331.28c0,0,2.01-9.94,0.55-14.54
	c-1.47-4.61-4.16-11.61-4.33-14.5c-0.16-2.89-0.99-3.28,0.58-4.64c1.57-1.36,2.81-1.06,0.43-3.16c-1.18-1.04-5.4-1.24-6.11,1.45
	c-0.7,2.69,0.5,10.95,0.76,16.21c0.17,3.48-0.24,11.48-0.95,18.46"/>
<linearGradient id="SVGID_00000069357137825443703120000018149813941656246951_" gradientUnits="userSpaceOnUse" x1="185.4354" y1="342.697" x2="218.2233" y2="342.697">
	<stop  offset="0.1345" style="stop-color:#FFFFFF"/>
	<stop  offset="0.1602" style="stop-color:#F9FBF2"/>
	<stop  offset="0.2075" style="stop-color:#E9F2D1"/>
	<stop  offset="0.2711" style="stop-color:#CFE39A"/>
	<stop  offset="0.3477" style="stop-color:#ACCF50"/>
	<stop  offset="0.395" style="stop-color:#95C11F"/>
</linearGradient>
<path style="fill:url(#SVGID_00000069357137825443703120000018149813941656246951_);" d="M185.67,345.98c0,0,5.05,3.79,8.63,4
	c3.58,0.21,11.16-5.37,13.26-7.53c2.11-2.16,4.21-3.63,6.53-2.79c2.32,0.84,4,0.63,4-0.63s-2.53-4-5.89-3.58s-14.53,6.16-16.21,5.95
	c-1.68-0.21-2.88-0.14-4.57-2.5"/>
<linearGradient id="SVGID_00000103242461872638134600000015360127411606010255_" gradientUnits="userSpaceOnUse" x1="177.3074" y1="329.727" x2="165.856" y2="307.7784">
	<stop  offset="0.1533" style="stop-color:#FFFFFF"/>
	<stop  offset="0.9026" style="stop-color:#006633"/>
</linearGradient>
<path style="fill:url(#SVGID_00000103242461872638134600000015360127411606010255_);" d="M178.81,326.95l-11.86-32.27
	c0,0-1.9-3.76-4.22-3.13c-2.32,0.63-2.53,2.74-1.05,3.58c1.36,0.78,6.7,22.84,8.15,35.47"/>
<linearGradient id="SVGID_00000026159316164102643480000011099593156515043471_" gradientUnits="userSpaceOnUse" x1="113.1726" y1="337.2049" x2="69.228" y2="329.9612">
	<stop  offset="0.1534" style="stop-color:#FFFFFF"/>
	<stop  offset="0.2328" style="stop-color:#E2EEC1"/>
	<stop  offset="0.3292" style="stop-color:#C1DB7C"/>
	<stop  offset="0.4099" style="stop-color:#A9CD4A"/>
	<stop  offset="0.4708" style="stop-color:#9BC42B"/>
	<stop  offset="0.5047" style="stop-color:#95C11F"/>
</linearGradient>
<path style="fill:url(#SVGID_00000026159316164102643480000011099593156515043471_);" d="M112.82,330.01
	c-2.54,0.78-27.57,2.59-32.85,1.59c-5.28-1-10.36-1.93-11.14,0c-0.78,1.93-0.59,3.69,1.37,2.71s5.08-1.4,10.36,0.28
	c5.28,1.68,18.77,7.93,20.72,7.74c1.96-0.2,1.96-0.2,1.96-0.2"/>
<linearGradient id="SVGID_00000111912063537821995690000006016225689822675359_" gradientUnits="userSpaceOnUse" x1="119.3628" y1="331.5987" x2="129.0585" y2="300.763">
	<stop  offset="0.1031" style="stop-color:#FFFFFF"/>
	<stop  offset="0.6784" style="stop-color:#006633"/>
</linearGradient>
<path style="fill:url(#SVGID_00000111912063537821995690000006016225689822675359_);" d="M124.14,329.03c0,0,5.97-8.19,6.56-12.99
	s1.05-12.29,2.11-14.98c1.05-2.69,0.47-3.39,2.46-3.98c1.99-0.59,2.99,0.2,1.71-2.69c-0.64-1.43-4.4-3.38-6.16-1.22
	c-1.76,2.15-4.11,10.17-6.06,15.05c-1.96,4.89-9.38,20.92-11.93,21.7"/>
<path class="st3" d="M192.72,334.68c0.3-2.54,0.51-5.15-0.72-6.92c-1.47-2.11-4.27-5.39-8.21-3.37c-4.98,2.56-4.98,2.56-4.98,2.56
	l-11.86-32.27c0,0-1.9-3.76-4.22-3.13c-2.32,0.63-2.53,2.74-1.05,3.58c1.47,0.84,7.58,26.53,8.42,38.32s0.63,24,2.95,25.47
	c2.32,1.47,8,6.11,11.79,5.47c3.79-0.63,5.26,0,5.47,4.84s-2.32,7.37,1.47,8.21c3.79,0.84,7.37,5.47,8.63,4.63s-1.68-5.26-2.95-6.32
	c-1.26-1.05,0.84-16.63-1.05-19.58c-1.89-2.95-7.58-5.05-9.05-4.63c-1.47,0.42-1.47-5.68-1.47-5.68s5.05,3.79,8.63,4
	c3.58,0.21,11.16-5.37,13.26-7.53c2.11-2.16,4.21-3.63,6.53-2.79s4,0.63,4-0.63c0-1.26-2.53-4-5.89-3.58
	c-3.37,0.42-14.75,6.27-16.43,6.06c-1.16-0.15-1.97-0.35-3.25-1.12c-0.87-0.52-3.1-2.89-0.76-4.56L192.72,334.68z"/>
<path class="st3" d="M395.82,346.94c1.44,0.72,3.03,1.33,4.4,1.41c3.58,0.21,11.16-5.37,13.26-7.53c2.11-2.16,4.21-3.63,6.53-2.79
	c2.32,0.84,4,0.63,4-0.63s-2.53-4-5.89-3.58c-3.37,0.42-14.53,5.68-16.21,5.47c-0.41-0.05-0.86-0.16-1.32-0.34"/>
<path class="st3" d="M197.23,364.9c0,0,4.73,0.85,5.35,1.94c0.62,1.08,0.85,2.32,0.54,3.09c-0.31,0.77-1.86,0.93-1.86,0
	s-4.15-1.08-4.15-1.08"/>
<path class="st3" d="M186.98,329.67c0,0-2.25-0.47-2.02,0.62c0.23,1.09,1,1.32,1,1.32"/>
<path class="st3" d="M192.47,328.85c0,0-1.37-1.06-2.46,0c-1.09,1.06-0.88,1.12-0.48,1.75s0.43,1.49-0.32,2.57
	c-0.75,1.09-1.53,1.71-0.67,2.41c0.85,0.7,3.45,0.14,3.45,0.14"/>
<path class="st3" d="M84.04,377.13c0,0,1.11,2.48,2.63,2.11c1.52-0.37,0.59-4.32,0.59-5.37s7.61-0.59,10.42-1.76
	c2.81-1.17,7.84-7.14,9.37-9.13c1.52-1.99,0.59-8.43,0.59-8.43s4.33-0.35,8.43-3.51c4.1-3.16,5.38-6.67,5.38-6.67
	s7.49,0.94,7.84-2.34c0.35-3.28-0.23-1.87,0-4.68c0.23-2.81,1.05-3.86-1.52-5.85c-2.58-1.99-3.63-2.46-3.63-2.46
	s5.97-8.19,6.56-12.99s1.05-12.29,2.11-14.98c1.05-2.69,0.47-3.39,2.46-3.98c1.99-0.59,2.99,0.2,1.71-2.69
	c-0.64-1.43-4.4-3.38-6.16-1.22c-1.76,2.15-4.11,10.17-6.06,15.05c-1.96,4.89-9.38,20.92-11.93,21.7s-27.57,2.59-32.85,1.59
	c-5.28-1-10.36-1.93-11.14,0s-0.59,3.69,1.37,2.71s5.08-1.4,10.36,0.28c5.28,1.68,18.77,7.93,20.72,7.74s1.96-0.2,1.96-0.2
	s-8.02,8.99-8.02,12.9s0.98,6.06-1.96,7.63s-10.56,3.68-11.93,8.29c-1.37,4.61-3.32,7.94-1.76,8.33
	C80.69,379.46,82.78,378.66,84.04,377.13c0.52-0.63,0.9-1.39,1.01-2.24c0.39-2.93,2.35-3.36,5.08-4.03
	c2.74-0.67,9.78-3.21,10.17-5.16c0.39-1.96-0.39-3.13,1.17-4.89s2.03-2.74,2.03-2.74"/>
<path class="st3" d="M122.06,335.03c0,0-2.59-0.72-1.92,0.71s1.46,1.77,1.46,1.77"/>
<path class="st3" d="M129.57,334.06c0,0-3.57-1.42-3.8,0.79c-0.23,2.21,1.13,3.45,0,4.35c-1.13,0.9-3.25,1.47-2.69,3.05
	c0.56,1.58,1.79,2.21,1.79,2.21"/>
<path class="st3" d="M257.82,330.61"/>
<path class="st3" d="M231.18,332.32l-4.98-1.71c0,0-3.54-0.95-11.13-7.15c-7.59-6.19-14.17-16.44-15.94-19.06
	c-1.77-2.62-2.02-3.1,0-5.48c2.02-2.38,3.8,3.57,3.54,4.76c-0.25,1.19,10.38,8.58,16.45,12.39c3.18,2,6.72,3.74,10.36,4.42
	c3.59,0.67,11.66,1.29,14.55,1.29c1.82,0,4.33,0.31,5.99-0.57l3.77-1.35c3.9-2.05,7.59-5.97,12.02-9.31
	c6.33-4.76,10.88-11.43,12.15-12.39c1.27-0.95,4.31-0.04,4.77,1.09c0.41,0.98-0.72,2.73-2.5,3.44c-1.77,0.71-5.57,11.43-7.59,14.53
	c-1.29,1.97-17.48,14.8-17.48,14.8c-0.51,3.57-9.11,13.82-7.09,14.29s10.12,9.05,11.64,11.67s0.25,12.39,0.25,12.39
	s0.51,1.19,3.04,3.34c2.53,2.14,0.89,5.8-0.76,6.46c-0.93,0.37-2.28-1.7-3.8-3.84c-1.52-2.14-2.78-0.95-4.56-2.86
	c-1.77-1.91-1.01-7.62-1.77-11.67c-0.76-4.05-11.47-8.1-11.47-8.1s3.62,6.91,4.13,9.53c0.51,2.62-1.52,6.91-1.52,9.05
	s1.27,3.81,1.27,6.19c0,2.38-4.3,2.14-6.33,0c-2.02-2.14-2.78-6.43-2.28-11.67c0.51-5.24-1.52-10.24-4.05-15.72
	c-2.53-5.48-0.51-20.49-0.51-20.49"/>
<path class="st3" d="M236.24,321.23c0,0,1.29-4.22,8.39-3.64c3.11,0.25,5.39,3.64,5.39,3.64"/>
<line class="st3" x1="112.82" y1="329.92" x2="116.43" y2="329.63"/>
<path class="st3" d="M394.03,331.28c0,0,2.01-9.94,0.55-14.54c-1.47-4.61-4.16-11.61-4.33-14.5c-0.16-2.89-0.99-3.28,0.58-4.64
	c1.57-1.36,2.81-1.06,0.43-3.16c-1.18-1.04-5.4-1.24-6.11,1.45c-0.7,2.69,0.5,10.95,0.76,16.21s-0.82,20.83-2.23,27.61
	c-0.77,3.72-3.54,11.52-1.91,15.07s3.41,5.1,1.4,7.75c-2.01,2.64-8.07,7.74-7.39,12.5s0.28,8.6,1.87,8.3
	c1.12-0.21,2.69-1.81,3.2-3.73c0.21-0.79,0.24-1.64-0.01-2.46c-0.87-2.83,0.73-4.03,2.94-5.78s7.55-6.99,7.09-8.93
	c-0.46-1.94-1.66-2.68-0.97-4.93s0.71-3.34,0.71-3.34"/>
<path class="st3" d="M380.85,379.61c0,0,2.04,1.79,3.27,0.82c1.23-0.97-1.27-4.17-1.7-5.13c-0.44-0.96,6.59-3.78,8.74-5.94
	c5.79-5.83,5.45-9.36,4.71-12.2c-0.63-2.43-2.98-7.91-2.98-7.91s3.79-2.12,6.2-6.7c2.41-4.58,2.12-8.31,2.12-8.31s7.2-2.27,6.16-5.4
	c-1.05-3.13-0.99-1.61-1.95-4.26c-0.96-2.65-0.65-3.95-3.82-4.69c-3.17-0.74-6.48-0.72-6.48-0.72"/>
<path class="st3" d="M397.87,325.5c0,0-2.66,0.43-1.45,1.45c1.21,1.02,2.07,1,2.07,1"/>
<path class="st3" d="M404.3,321.49c0,0-3.84,0.2-3.12,2.3c0.71,2.1,2.46,2.67,1.81,3.95c-0.65,1.29-2.38,1.83-1.21,3.03
	c1.17,1.2,2.59,2.12,2.59,2.12"/>
<path class="st3" d="M311.54,356.17c1.6,2.27,6.13,3.01,6.13,3.01"/>
<linearGradient id="SVGID_00000054255758377301261260000001674141631274968751_" gradientUnits="userSpaceOnUse" x1="332.9408" y1="329.9837" x2="339.7403" y2="308.9669">
	<stop  offset="0.0547" style="stop-color:#FFFFFF"/>
	<stop  offset="0.5565" style="stop-color:#95C11F"/>
</linearGradient>
<path style="fill:url(#SVGID_00000054255758377301261260000001674141631274968751_);" d="M330.82,328.99c0,0,0.24-1.03,0.38-1.36
	c2.44-6.06,6.97-24.23,7.74-27.07c0.9-3.33,2.7-7.06,4.74-7.83c2.05-0.77,2.47,2.86,2.47,2.86s-1.42,2.61-2.47,4.69
	s-1.42,9.91-2.92,16.13c-1.34,5.56-4.82,13.73-6.24,17.9"/>
<path class="st3" d="M315.12,333.72c-0.24,1.13-1.29,5.31-1.29,5.31c0,1.28,0.23,3.51-0.79,5.87c-0.6,1.39-1.54,3.71-2.44,6.22
	c-1.25,3.47-2.42,7.32-2.5,9.57c-0.15,3.88-4.44,7.46-4.96,10.76c-0.52,3.3-0.41,4.63-0.41,4.63s-3.33,5.82-1.76,6.56
	s6.14-1.78,6.02-4.02c-0.11-2.23,1.97-0.27,5.45-8.85c3.48-8.58,5.23-10.59,5.23-10.59s3.8,1.6,1.97,5.98
	c-1.83,4.38-2.41,5.66-3.42,7.04c-1.01,1.39-0.35,5.75,0.67,8.88c1.02,3.13,1.88,5.63,2.73,3.61c0.84-2.02,0.08-7.71,0.08-7.71
	s7.41-8.62,7.78-10.35c0.89-4.13-3.24-11.88-2.53-13.52c0.72-1.64,8.17-14.17,9.01-17.09c0.84-2.93,5.79-12.49,6.79-19.6
	c0.89-6.33,1.86-14.05,2.92-16.13s2.47-4.69,2.47-4.69s-0.42-3.63-2.47-2.86c-2.05,0.77-3.84,4.5-4.74,7.83
	c-0.77,2.83-5.3,21.01-7.74,27.07c-0.13,0.33-0.2,0.53-0.38,0.8c-1.01,1.53-2.37,0.92-2.75,0.49c-0.32-0.36,1.85-1.27,1.85-1.27"/>
<path class="st3" d="M324.61,320.78c0,0-2.25-0.47-2.02,0.62c0.23,1.09,1,1.32,1,1.32"/>
<g>
	<rect x="108.1" y="64.18" class="st4" width="37.75" height="9.48"/>
	<text transform="matrix(1 0 0 1 108.0963 71.3615)" class="st5 st8 st20">Frugívoro</text>
</g>
<g>
	<rect x="59.81" y="64.18" class="st4" width="37.75" height="9.48"/>
	<text transform="matrix(1 0 0 1 59.8107 71.3615)" class="st5 st8 st20">Folívoro </text>
</g>
<g>
	<rect x="53.79" y="192.88" class="st4" width="37.75" height="8.88"/>
	<text transform="matrix(1 0 0 1 53.7921 200.0665)" class="st5 st8 st20">Insectívoro </text>
</g>
<g>
	<g>
		<g>
			<g>
				<path class="st21" d="M90.74,121.51L87.39,73.6c1.06-0.07,2.29-0.12,3.35-0.12V121.51z"/>
			</g>
		</g>
		<g>
			<g>
				<path class="st22" d="M90.74,121.51l-43.53-20.3C54.83,84.87,69.4,74.86,87.39,73.6L90.74,121.51z"/>
			</g>
		</g>
		<g>
			<g>
				<path class="st10" d="M90.74,121.51l-30.23,37.33c-17.32-14.02-22.72-37.43-13.3-57.62L90.74,121.51z"/>
			</g>
		</g>
		<g>
			<g>
				<path class="st23" d="M90.74,121.51V73.48c26.53,0,48.03,21.5,48.03,48.03s-21.5,48.03-48.03,48.03
					c-11.67,0-21.16-3.36-30.23-10.7L90.74,121.51z"/>
			</g>
		</g>
	</g>
	<g>
		<g>
		</g>
		<g>
		</g>
		<g>
		</g>
		<g>
		</g>
	</g>
</g>
<g>
	<rect x="101.74" y="131" class="st4" width="37.91" height="16.97"/>
	<text transform="matrix(1 0 0 1 113.9781 136.9191)" class="st24 st25 st20">61%</text>
</g>
<g>
	<rect x="46.26" y="137.52" class="st4" width="37.91" height="13.48"/>
	<text transform="matrix(1 0 0 1 58.4493 143.4425)" class="st24 st25 st20">21%</text>
</g>
<g>
	<rect x="57.35" y="102.78" class="st4" width="37.91" height="13.09"/>
	<text transform="matrix(1 0 0 1 69.7438 108.6945)" class="st24 st25 st20">17%</text>
</g>
<g>
	<rect x="83.65" y="45.08" class="st4" width="23.24" height="20.19"/>
	<text transform="matrix(1 0 0 1 90.5592 51.0001)"><tspan x="0" y="0" class="st5 st8 st20">1%</tspan><tspan x="-5.3" y="10.15" class="st5 st8 st20">Flores</tspan></text>
</g>
<g>
	<g>
		<line class="st26" x1="113.84" y1="72.36" x2="113.84" y2="113.76"/>
		<g>
			<circle class="st10" cx="113.84" cy="113.71" r="0.94"/>
		</g>
	</g>
</g>
<g>
	<g>
		<line class="st27" x1="94.78" y1="61.99" x2="94.78" y2="80.22"/>
		<g>
			<circle class="st10" cx="94.78" cy="80.18" r="0.94"/>
		</g>
	</g>
</g>
<g>
	<g>
		<line class="st28" x1="74.42" y1="73.65" x2="74.42" y2="94.76"/>
		<g>
			<circle class="st10" cx="74.42" cy="94.71" r="0.94"/>
		</g>
	</g>
</g>
<g>
	<g>
		<line class="st29" x1="57.35" y1="191.83" x2="57.35" y2="151.9"/>
		<g>
			<circle class="st30" cx="57.35" cy="151.95" r="0.94"/>
		</g>
	</g>
</g>
<g>
	<rect x="176.71" y="34.85" class="st4" width="101.71" height="29.18"/>
	<text transform="matrix(1 0 0 1 176.7096 41.6573)"><tspan x="0" y="0" class="st5 st8 st31">Acicalamiento (limpieza y/o </tspan><tspan x="0" y="9.61" class="st5 st8 st31">desparasitación) y búsqueda de </tspan><tspan x="0" y="19.22" class="st5 st8 st31">comida.</tspan></text>
</g>
<g>
	<rect x="241.25" y="61.92" class="st4" width="35.75" height="8.98"/>
	<text transform="matrix(1 0 0 1 241.2452 68.7296)" class="st5 st8 st31">Descanso</text>
</g>
<g>
	<rect x="191.17" y="192.89" class="st4" width="44.36" height="8.98"/>
	<text transform="matrix(1 0 0 1 191.1681 199.7013)" class="st5 st8 st31">Alimentación</text>
</g>
<g>
	<g>
		<g>
			<g>
				<g>
					<path class="st10" d="M225.25,121.96l-45.94-14.93c6.59-20.3,24.6-33.38,45.94-33.38V121.96z"/>
				</g>
			</g>
			<g>
				<g>
					<path class="st32" d="M225.25,121.96l28.39,39.08c-21.58,15.68-51.79,10.9-67.47-10.69c-9.41-12.95-11.81-28.1-6.86-43.32
						L225.25,121.96z"/>
				</g>
			</g>
			<g>
				<g>
					<path class="st23" d="M225.25,121.96v-48.3c26.68,0,48.3,21.63,48.3,48.3c0,16.01-6.96,29.67-19.91,39.08L225.25,121.96z"/>
				</g>
			</g>
		</g>
		<g>
			<g>
			</g>
			<g>
			</g>
			<g>
			</g>
		</g>
	</g>
	<g>
		<text transform="matrix(1 0 0 1 245.8839 124.9435)" class="st24 st25 st31">40% </text>
	</g>
	<g>
		<text transform="matrix(1 0 0 1 204.6881 150.8409)" class="st24 st25 st31">40% </text>
	</g>
	<g>
		<rect x="191.17" y="99.75" class="st4" width="34.48" height="9.75"/>
		<text transform="matrix(1 0 0 1 201.2076 106.5548)" class="st24 st25 st31">20%</text>
	</g>
</g>
<g>
	<g>
		<polyline class="st33" points="184.04,64.03 184.04,103.7 195.28,103.7 		"/>
		<g>
			<circle class="st30" cx="195.23" cy="103.7" r="0.94"/>
		</g>
	</g>
</g>
<g>
	<g>
		<line class="st27" x1="254.49" y1="73.31" x2="254.49" y2="112.1"/>
		<g>
			<circle class="st10" cx="254.49" cy="112.05" r="0.94"/>
		</g>
	</g>
</g>
<g>
	<g>
		<line class="st34" x1="211.37" y1="156.84" x2="211.37" y2="190.41"/>
		<g>
			<circle class="st10" cx="211.37" cy="156.88" r="0.94"/>
		</g>
	</g>
</g>
<g>
	<rect x="329.19" y="16.51" class="st4" width="95.5" height="25.95"/>
	<text transform="matrix(1 0 0 1 329.1897 22.8898)"><tspan x="0" y="0" class="st5 st8 st35">La mayor parte del día se </tspan><tspan x="0" y="9" class="st5 st8 st35">trasladan y acicalan en la copa </tspan><tspan x="0" y="18" class="st5 st8 st35">de los árboles (especie arbórea). </tspan></text>
</g>
<g>
	<rect x="387.3" y="185.28" class="st4" width="42.97" height="27.35"/>
	<text transform="matrix(1 0 0 1 394.5728 191.6501)"><tspan x="0" y="0" class="st5 st8 st35">Virgen Cerro </tspan><tspan x="-2.05" y="9" class="st5 st8 st35">San Cristóbal</tspan></text>
</g>
<g>
	<rect x="351.49" y="185.28" class="st4" width="38.74" height="17.83"/>
	<text transform="matrix(1 0 0 1 360.9709 191.6501)"><tspan x="0" y="0" class="st5 st36 st35">Shorea </tspan><tspan x="-1.77" y="9" class="st5 st36 st35">javanica</tspan></text>
</g>
<g>
	<g>
		<g>
			<g>
				<rect x="328.23" y="171.42" class="st4" width="14.27" height="10.66"/>
				<text transform="matrix(1 0 0 1 328.2338 177.7994)" class="st5 st8 st35">0 m</text>
				<rect x="328.23" y="117.31" class="st4" width="18.67" height="10.66"/>
				<text transform="matrix(1 0 0 1 328.2338 123.682)" class="st5 st8 st35">22 m</text>
				<rect x="328.23" y="92.25" class="st4" width="18.88" height="10.66"/>
				<text transform="matrix(1 0 0 1 328.2338 98.6292)" class="st5 st8 st35">30 m</text>
			</g>
		</g>
	</g>
</g>
<line class="st1" x1="340.89" y1="177.87" x2="424.2" y2="177.87"/>
<g>
	<path class="st37" d="M412.8,123.86c-0.88,0.1-1.58,0.58-1.58,1.82s0.3,1.84,0,2.51c-0.3,0.67-0.15,0.15-1.27,0.67
		c-1.12,0.52-1.34,0.22-1.72,1.12s0.75,0.82-0.37,0.9c-1.12,0.07-1.27-0.9-1.94-0.45c-0.67,0.45-1.34-0.52-1.87-0.52
		c-0.52,0-0.45,0.83-0.45,0.97c0,0.15,0.37,0.59,0.75,1.12c0.37,0.52,0.22-0.07,0,0.97s-0.67,2.01,0,3.58
		c0.67,1.57,0.82,1.49,0.82,2.09c0,0.6-0.67,2.39-0.45,3.51c0.22,1.12,3,7.39,3.48,8.43c0.48,1.04,1.07,2.16,1.3,2.54
		c0.22,0.37,1.08-0.37,3.3-0.52c2.22-0.15,4.61,1.34,4.61,1.34s1.49-2.54,1.57-3.51c0.07-0.97-0.07-4.36,0.52-4.98
		c0.6-0.62,1.04-3.23,1.04-4.12s0.43-1.34,0.7-2.76c0.27-1.42-0.04-1.79,0-2.09c0.04-0.3,0.57-0.82,0.57-0.82v-0.9
		c0,0,0.21,0.75-0.57-0.56c-0.78-1.31-2.72-3.32-3.31-3.54c-0.6-0.22-1.04-1.49-1.42-1.49c-0.37,0-0.97-0.03-1.12-0.61
		c-0.15-0.58,0-1.87-0.3-2.87C414.8,124.68,414.16,123.71,412.8,123.86z"/>
	<path class="st38" d="M414.32,128.68c0.15-0.43,0.07-2.23,0-2.52s-0.78-2.01-1.47-1.87c-0.69,0.15-1.36,0.6-1.21,1.34
		c0.15,0.75-0.04,1.34,0.54,1.49c0.58,0.15,0.91,0.82,0.67,1.04S414.32,128.68,414.32,128.68z"/>
	<path class="st38" d="M403.89,129.91c0,0-0.16,0.79-0.92,0.77c-0.76-0.01-2.11,0.09-2.11,0.09l1.49-0.58l-1.09-0.56
		c0,0-0.04-0.22,0.95-0.17C403.21,129.5,403.89,129.91,403.89,129.91z"/>
	<path class="st38" d="M420.76,134.29c0.67-0.15,1.51-0.15,1.73,0c0.21,0.15-0.52,0.3-0.86,0.37c-0.34,0.07,1.17,0.37,0.9,0.67
		c-0.27,0.3-1.03,0.52-1.43,0.67c-0.4,0.15-0.63-0.15-1-0.45C419.72,135.26,420.76,134.29,420.76,134.29z"/>
	<path class="st39" d="M412.52,128.87c0.73,0.09,1.8-0.46,2.27,0c0.47,0.46,1.59,1.06,1.52,2.63c-0.07,1.57,0.53,2.39,0,2.24
		c-0.53-0.15,0.36,0.67,0.22,2.98s0.33,5.15,0.02,8.36s-0.46,6.57-0.83,7.31c-0.37,0.75-1.75-1.27-2.52-0.37
		c-0.76,0.9-0.17,1.08-1.58,0.54s-1.94,0.3-1.94,0.3s-0.6-5.58-0.67-7.24s-0.67-6.73,0.52-8.67s1.34-2.16,1.42-2.57
		c0.07-0.41-0.9-0.17-0.67-1.9c0.22-1.72,0.75-2.92,1.12-3.29C411.76,128.81,412.52,128.87,412.52,128.87z"/>
	<path class="st40" d="M413.2,152.01c-1.15-0.28-4.83,1.61-5.01,1.91c-0.18,0.3-0.36-1.29-1.07-0.97s-0.36,2.11,0,2.58
		s-0.53,1.9-1.01,2.85c-0.47,0.95-2.97,2.2-2.97,2.85s1.13,3.44,1.48,3.92s-1.84,11.93-1.48,12.52c0.36,0.59,20.24,0,20.24,0
		s-2.17-11.93-2.1-12.35c0.08-0.42,1.62-2.73,1.56-3.26s-1.78-2.31-2.49-2.85c-0.71-0.53-1.31-4.04-1.54-4.27
		c-0.24-0.24,2.08-3.92,1.78-4.57s-2.43,2.3-2.85,2.49C417.33,153.04,413.2,152.01,413.2,152.01z"/>
</g>
<line class="st27" x1="342.73" y1="98.82" x2="425.04" y2="98.82"/>
<line class="st27" x1="342.73" y1="122.72" x2="425.04" y2="122.72"/>
<g>
	<g>
		<path class="st41" d="M373.36,69.46c0,0.01,0.09,2.98,0.21,7.14c0.25,8.41,0.65,21.73,0.77,25.6c0.96,31.76,2.29,75.17,2.29,75.17
			h-5.77L373.36,69.46z"/>
		<path class="st42" d="M379.51,96.97c0,0-2.55,5.26-5.1,7.54"/>
		<path class="st42" d="M372.21,118.89c0,0-3.09,1.74-5.39,4.52"/>
		<path class="st43" d="M372.72,96.97c0,0-3.98-9.43-9.37-9.62"/>
		<path class="st42" d="M378.24,68.95c0,0-2.6,5.88-4.49,6.39"/>
		<path class="st44" d="M374.03,69.46c0,0,2.93-0.05,3.65,0.64c0.72,0.7,3.24-0.65,4.92-1.15s2.69,1.1,3.78,0.67
			c1.09-0.42,2.1-0.45,3.7-0.77s6.05-0.91,2.94-1.75c-3.11-0.84-7.06-0.42-7.48-1.85c-0.42-1.43,5.55-0.08,5.97-0.59
			c0.42-0.5-0.34-2.44-5.63-3.44s-2.97-2.45-9.26-2.99c-6.29-0.54-4.44-0.46-6.12,0.72c-1.68,1.18-3.86,1.01-5.21,2.1
			c-1.34,1.09-3.36,2.6-2.35,3.7c1.01,1.09,4.2,0.25,4.2,0.25l-2.69,1.76c0,0-2.86-0.34-4.03,0.59c-1.18,0.92-1.51,1.94,1.18,2.1
			s5.04,1.52,7.56,0.84C371.68,69.62,374.03,69.46,374.03,69.46z"/>
		<path class="st44" d="M373.74,84.07c1.3,0.65,5-1.85,6.43-2.35c1.43-0.5,3.19-2.27,4.29-2.1c1.09,0.17,4.71-1.53,6.05-0.01
			c1.34,1.52,2.02,1.1,2.77,1.52c0.76,0.42,3.02-0.84,4.54,0.76s2.27,2.35-0.84,2.18c-3.11-0.17-5.04-1.8-7.23,0.02
			c-2.18,1.83,2.52,3.25-0.34,3.25c-2.86,0-8.32-1.35-10.59,0s-5.97-1.68-7.56-0.67s-4.62,4.79-6.3,2.94
			c-1.68-1.85-2.27-4.62-3.78-2.94c-1.51,1.68-1.26,2.68-3.7,3.44c-2.44,0.76-4.2-0.42-5.29,1.01c-1.09,1.43-4.62,1.51-5.55,0.34
			c-0.92-1.18-1.6-3.53-2.86-3.44c-1.26,0.08-0.08-3.86,1.93-3.78c2.02,0.08,0-1.34,2.6-2.35s-0.42-0.25-0.92-1.85
			c-0.5-1.6,4.03-1.43,5.21-2.77s2.27-0.17,3.28-1.34c1.01-1.18,5.13-2.86,6.97-1.51c1.85,1.34,2.87-1.68,5.18,0
			c2.3,1.68,2.44,1.51,4.68,2.02c2.24,0.5,3.79,2.42,0.95,3.61c-2.83,1.18-2.71,2.06-1.32,3.05L373.74,84.07z"/>
		<path class="st44" d="M371.2,96.26c0,0,1.66-2.44,3.21-2.77c1.56-0.34,4.36-3.28,5.1-3.28c0.74,0,2.76-1.18,4.44-1.01
			c1.68,0.17,6.64,2.18,6.64,2.18l5.61-0.95c0.23-0.04,0.46,0.02,0.65,0.15c0.56,0.39,1.88,1.24,3.58,1.7
			c2.27,0.61,6.39,0.45,5.63,1.96c-0.76,1.51-7.73,0.25-9.58,1.09c-1.85,0.84-5.04-1.26-8.32,0c-3.28,1.26-6.44,3.78-8.64,3.11
			s-2.54-1.52-5.31-0.93C371.43,98.1,371.2,96.26,371.2,96.26z"/>
		<path class="st44" d="M371.2,104.99c-2.87-3.53-2.79-1.51-5.14-2.77c-2.35-1.26-4.03-5.21-9.33-2.44
			c-5.29,2.77-4.45,3.73-7.73,4.72c-3.28,0.99-3.78,1.92-1.93,2.76c1.85,0.84,3.44-0.84,4.71-0.5c1.26,0.34,2.69,0.98,4.29,0.74
			s5.04-1.75,5.55-1.5s0.5,0.25,0.5,0.25s6.22,0.08,4.37,1.3c-1.85,1.22-2.77,2.23-0.84,2.65c1.93,0.42,2.47,0.59,3.88,0
			c1.41-0.59,3.42,1.94,4.23,0.38C374.55,109.02,371.2,104.99,371.2,104.99z"/>
		<path class="st44" d="M374.55,109.02c0.58-0.41,3.18-3.52,3.18-3.52s0.92-2.1,3.53-2.18c2.6-0.08,4.2-2.35,6.13-1.43
			c1.93,0.92,2.44,1.93,3.28,2.1c0.84,0.17,2.1,0.08,2.1,0.08l3.52,0.37c0.36,0.04,0.65,0.3,0.72,0.66l0.26,1.29
			c0.15,0.73-0.38,1.42-1.13,1.47l-2.96,0.17l-4.41-0.74c-0.07-0.01-0.15,0-0.21,0.04l-2.92,1.66c-0.4,0.23-0.88,0.22-1.27-0.03
			c-0.94-0.58-2.86-1.47-4.86-0.51c-2.79,1.34-4.87,3.72-4.89,2.95S374.55,109.02,374.55,109.02z"/>
		<path class="st44" d="M366.36,121.68c0,0-3.33,4.07-4.17,3.82c-0.84-0.25-5.88-2.58-7.39,0.01c-1.51,2.59-1.68,6.12,0,5.2
			s3.3-3.53,5.18-3.02c1.88,0.5,5.84,0.78,6.38-1.42C366.9,124.07,371.68,118.4,366.36,121.68z"/>
	</g>
	<path class="st42" d="M375.04,82.73"/>
</g>
</svg>
