<svg xmlns="http://www.w3.org/2000/svg" xmlns:xlink="http://www.w3.org/1999/xlink" viewBox="0 0 387.16 242"><defs><style>.cls-1,.cls-22,.cls-25,.cls-5{fill:none;}.cls-2{clip-path:url(#clip-path);}.cls-3{fill:#888483;}.cls-4{fill:url(#Degradado_sin_nombre_5);}.cls-22,.cls-26,.cls-5{stroke:#95c11f;}.cls-22,.cls-23,.cls-24,.cls-25,.cls-26,.cls-5{stroke-miterlimit:10;}.cls-22,.cls-5{stroke-width:0.5px;}.cls-16,.cls-6{font-size:7.5px;fill:#1e1e1c;font-weight:300;}.cls-6{font-family:BarlowSemiCondensed-Light, Barlow Semi Condensed;}.cls-7{letter-spacing:0em;}.cls-8{letter-spacing:-0.01em;}.cls-9{letter-spacing:0.01em;}.cls-10{letter-spacing:-0.01em;}.cls-11{letter-spacing:0em;}.cls-12{letter-spacing:0em;}.cls-13{letter-spacing:0em;}.cls-14{letter-spacing:-0.01em;}.cls-15{letter-spacing:-0.01em;}.cls-16{font-family:BarlowSemiCondensed-LightItalic, Barlow Semi Condensed;font-style:italic;}.cls-17{letter-spacing:-0.02em;}.cls-18{fill:#a29f9e;}.cls-19{fill:#dadada;}.cls-20{fill:#585453;}.cls-21,.cls-23{fill:#bfbcbc;}.cls-22{stroke-dasharray:0.7 0.7;}.cls-23,.cls-24,.cls-25{stroke:#bfbcbc;stroke-linecap:round;stroke-width:0.99px;}.cls-24{fill:#fff;}.cls-26{fill:#95c11f;stroke-width:1.32px;}</style><clipPath id="clip-path"><circle class="cls-1" cx="189.22" cy="-136.62" r="30.97"/></clipPath><linearGradient id="Degradado_sin_nombre_5" x1="187.2" y1="74.89" x2="187.2" y2="117.54" gradientUnits="userSpaceOnUse"><stop offset="0.66" stop-color="#e4edc8"/><stop offset="1" stop-color="#fff"/><stop offset="1"/></linearGradient></defs><g id="GUIAS"><g class="cls-2"><path class="cls-3" d="M195-163.38c1.57.21,2.24.89,4.33,2.53s7.16,5.67,9,8.5,1.49,8.51,1.64,11.49-.9,5.22.3,7.31,1.64,4.92,1,11.93.75,14.77.6,18.49.59,10,.3,13-3.44,1.94-3.44,3.43,3,10.89,5.08,16.11,7.75,10,14.31,16.7S239-33.77,239.75-29.74s-1.5,9.54-3,14a100.64,100.64,0,0,1-4.12,9.88,1.19,1.19,0,0,1-.63.58L218.54.1a1.15,1.15,0,0,0-.74,1.06,126.43,126.43,0,0,1-.88,13.69c-.75,4.33.45,5.82,3.58,6.42s12.23,1.64,15.66,2.38,4.47,3.13,2.83,4.48-8.35,0-15.81.15-12.23.59-15.36.74-5.07,1.19-8.2,1.19-5.52-1.49-7.46-1.49-2.09-2.09-2.09-3.28,4.92-2.38,5.22-3.28a15.19,15.19,0,0,0,0-6c-.45-2.68-1-13.27-2.39-20.13S189-14.23,185-18.11s-9.1-4.33-12.38-6.26c-2.46-1.46-3.16-5.68-3.36-7.7A1.18,1.18,0,0,0,168-33.13l-1.59.07a1.17,1.17,0,0,0-1.11,1c-.27,1.86-1.05,5.91-2.86,7.83-2.39,2.54-8.65,6-14.47,11A114.54,114.54,0,0,0,136.14-.47a1.08,1.08,0,0,0-.25.58c-.14,1.1-.6,4.84-.86,8.48-.29,4.32-3,9.39-3.13,12.38a4.27,4.27,0,0,0,1.56,3.27,1.18,1.18,0,0,1-.58,2c-1.94.35-4.67.8-7.39,1.12-5.07.6-5.67-.3-11.63.45s-5.22,1.34-9.1,1.64-4.48-1.34-4.63-3.28,4.33-3,7-6,4.18-5.22,4.18-7.9a139.8,139.8,0,0,1,.6-14.92c.59-4.47,4.47-7.9,6.11-11.18s5.67-7.91,6.86-11.34,3.28-13.42,6.27-18.94a52.34,52.34,0,0,1,8.57-12.38c3.5-3.73,2-13,2-18.5,0-4.27-2.24-17.65-3.25-23.48a1.17,1.17,0,0,0-2.11-.48L128.8-88.25a.35.35,0,0,0-.05.08c-.63,1-13.63,23-17,27.85s-3.28,10.89-1.79,14c1.37,2.88,6.53,6.9,7.34,7.52a.76.76,0,0,1,.2.2s3.65,2,3.26,3c-.23.62-2.64.09-2.64.09a1.16,1.16,0,0,1-.73-.19,17.48,17.48,0,0,0-4-2.17h0a1.17,1.17,0,0,0-1.25,1.67c1.06,2.18,3.2,6.37,4.72,7.89,2.09,2.09,4.77-.15,6.41-.3s1.19.45,1,1.49-4.33,3.88-6,4.92-6,1.2-11.93-2.09-5.67-8.35-8.06-12.08a101.58,101.58,0,0,0-7-10c-1.49-1.64-1-7.46-.74-13.57s5.67-25.06,8.2-31.92,2.39-6.41,3.58-9.55,2.83-1.79,4.48-2.83,2.83-4,4.47-6.86,13.57-13.42,17.75-16.41,10.74-11,13.57-12.82,7.76-6,10.44-7.61,4.33-1.79,6.12-1.19,5.22.15,6.26-.9c.62-.62-.13-2-.84-3a1.16,1.16,0,0,1,.55-1.77,31,31,0,0,1,3.87-1.21c2.09-.45,10.14-6.57,13.42-7.76a11.1,11.1,0,0,1,6.57,0,1.19,1.19,0,0,0,.32,0A52.91,52.91,0,0,1,195-163.38Zm1.79,103.21-1.19,4.32s6.11,5.67,7.16,9.1.6,5.67,2.68,7.46,3,3.28,6.12,9.55a43.33,43.33,0,0,1,3.88,12.82l1.19,8.65s5.22-2.53,7-4.32,4.18-3.58,5.07-6a6.77,6.77,0,0,0,0-5.67c-.74-1.79-4.62-8-6.71-10s-5.37-5.22-7.46-7.46a52.61,52.61,0,0,0-7.9-7,20.25,20.25,0,0,1-6-6.56A38.34,38.34,0,0,0,196.78-60.17Z"/></g><rect class="cls-4" x="139.09" y="72.71" width="96.23" height="41.59"/><polyline class="cls-5" points="239.21 72.71 244.06 72.71 244.06 93.51 244.06 113.59 239.21 113.59"/><polyline class="cls-5" points="244.06 93.51 248.11 93.51 248.11 44.97 229.76 44.97"/></g><g id="dosel"><text class="cls-6" transform="translate(140 38.37)">La m<tspan class="cls-7" x="14" y="0">a</tspan><tspan class="cls-8" x="17.37" y="0">y</tspan><tspan x="20.31" y="0">or pa</tspan><tspan class="cls-9" x="34.81" y="0">r</tspan><tspan class="cls-10" x="37.28" y="0">t</tspan><tspan x="39.55" y="0">e del día se </tspan><tspan x="0" y="9">t</tspan><tspan class="cls-11" x="2.33" y="9">r</tspan><tspan x="4.73" y="9">asladan y acicalan en la </tspan><tspan class="cls-12" x="73.04" y="9">c</tspan><tspan x="76.44" y="9">opa </tspan><tspan x="0" y="18">de los árboles (especie arbó</tspan><tspan class="cls-13" x="79.25" y="18">r</tspan><tspan x="81.64" y="18">ea). </tspan></text><text class="cls-6" transform="translate(205.5 207.13)">Vi<tspan class="cls-14" x="5.41" y="0">r</tspan><tspan x="7.78" y="0">gen </tspan><tspan class="cls-15" x="19.86" y="0">C</tspan><tspan x="23.74" y="0">er</tspan><tspan class="cls-13" x="29.64" y="0">r</tspan><tspan x="32.03" y="0">o </tspan><tspan class="cls-11" x="-2.17" y="9">S</tspan><tspan x="1.59" y="9">an Cristóbal</tspan></text><text class="cls-16" transform="translate(171.79 207.13)">Sho<tspan class="cls-13" x="10.57" y="0">r</tspan><tspan x="12.89" y="0">ea </tspan><tspan x="-1.72" y="9">ja</tspan><tspan class="cls-17" x="3.26" y="9">v</tspan><tspan x="6.15" y="9">anica</tspan></text><text class="cls-6" transform="translate(139.05 193.28)">0 m</text><text class="cls-6" transform="translate(139.05 139.16)">22 m</text><text class="cls-6" transform="translate(139.05 114.11)">30 m</text><line class="cls-5" x1="151.7" y1="193.35" x2="235.01" y2="193.35"/><path class="cls-18" d="M223.61,139.34a1.62,1.62,0,0,0-1.58,1.82c0,1.24.3,1.84,0,2.51s-.15.15-1.27.67-1.34.22-1.71,1.12.74.82-.38.89-1.27-.89-1.94-.44-1.34-.53-1.86-.53-.45.83-.45,1a5.37,5.37,0,0,0,.75,1.11c.37.52.22-.07,0,1a4.82,4.82,0,0,0,0,3.58c.67,1.57.82,1.5.82,2.09s-.67,2.39-.45,3.51,3,7.39,3.48,8.43,1.07,2.16,1.29,2.54,1.08-.38,3.3-.53a9.2,9.2,0,0,1,4.61,1.35,14.83,14.83,0,0,0,1.57-3.51c.07-1-.08-4.36.52-5s1.05-3.23,1.05-4.12.43-1.34.7-2.76a5.61,5.61,0,0,0,0-2.09c0-.3.56-.82.56-.82v-.9s.22.75-.56-.56a12.79,12.79,0,0,0-3.32-3.54c-.59-.22-1-1.49-1.41-1.49s-1,0-1.12-.61a25.52,25.52,0,0,0-.3-2.87C225.61,140.16,225,139.19,223.61,139.34Z"/><path class="cls-19" d="M225.13,144.17a9.3,9.3,0,0,0,0-2.53c-.07-.3-.78-2-1.47-1.86s-1.36.59-1.21,1.34,0,1.34.54,1.49.91.82.67,1S225.13,144.17,225.13,144.17Z"/><path class="cls-19" d="M214.71,145.39a1,1,0,0,1-.92.77c-.77,0-2.11.09-2.11.09l1.49-.58-1.09-.56s0-.22.95-.17A3.83,3.83,0,0,1,214.71,145.39Z"/><path class="cls-19" d="M231.58,149.78a3.22,3.22,0,0,1,1.72,0c.22.14-.52.29-.86.37s1.17.37.9.67a4.39,4.39,0,0,1-1.43.67c-.41.15-.63-.15-1-.45S231.58,149.78,231.58,149.78Z"/><path class="cls-20" d="M223.34,144.35c.72.09,1.8-.46,2.27,0a3.09,3.09,0,0,1,1.51,2.63c-.07,1.56.53,2.39,0,2.24s.36.67.21,3,.33,5.15,0,8.36-.46,6.56-.83,7.31-1.76-1.27-2.52-.37-.17,1.08-1.59.54-1.94.3-1.94.3-.59-5.58-.67-7.24-.67-6.74.52-8.68,1.35-2.16,1.42-2.57-.89-.17-.67-1.9a6.65,6.65,0,0,1,1.12-3.29A1.7,1.7,0,0,1,223.34,144.35Z"/><path class="cls-21" d="M224,167.5c-1.15-.28-4.83,1.6-5,1.91s-.36-1.3-1.07-1-.36,2.1,0,2.58-.53,1.9-1,2.85-3,2.19-3,2.85a14.65,14.65,0,0,0,1.49,3.91c.35.48-1.84,11.93-1.49,12.53s20.24,0,20.24,0-2.17-11.93-2.09-12.35,1.62-2.73,1.56-3.26-1.78-2.32-2.49-2.85-1.31-4-1.55-4.28,2.08-3.91,1.78-4.57-2.43,2.31-2.84,2.49S224,167.5,224,167.5Z"/><line class="cls-22" x1="153.54" y1="114.3" x2="235.85" y2="114.3"/><line class="cls-22" x1="153.54" y1="138.2" x2="235.85" y2="138.2"/><path class="cls-23" d="M184.17,84.94s.09,3,.21,7.14c.25,8.41.65,21.73.77,25.61,1,31.75,2.29,75.16,2.29,75.16h-5.77Z"/><path class="cls-24" d="M190.32,112.45s-2.55,5.26-5.1,7.54"/><path class="cls-24" d="M183,134.37a21.93,21.93,0,0,0-5.39,4.53"/><path class="cls-25" d="M183.53,112.45s-4-9.43-9.36-9.62"/><path class="cls-24" d="M189.05,84.43s-2.61,5.88-4.5,6.39"/><path class="cls-26" d="M184.85,84.94s2.93,0,3.65.65,3.24-.65,4.92-1.16,2.69,1.1,3.78.68a22.32,22.32,0,0,1,3.69-.78c1.6-.32,6.05-.91,2.94-1.75s-7.05-.42-7.47-1.85,5.54-.08,6-.58-.33-2.44-5.63-3.45-3-2.45-9.25-3-4.44-.45-6.12.72-3.87,1-5.21,2.1-3.36,2.61-2.35,3.7,4.2.25,4.2.25l-2.69,1.77s-2.86-.34-4,.59-1.52,1.94,1.17,2.1,5,1.52,7.56.84A28.53,28.53,0,0,1,184.85,84.94Z"/><path class="cls-26" d="M184.55,99.56c1.3.65,5-1.85,6.43-2.36s3.19-2.27,4.28-2.1,4.71-1.53,6.05,0,2,1.1,2.78,1.52,3-.84,4.53.76,2.27,2.35-.84,2.19-5-1.81-7.22,0,2.52,3.25-.34,3.25-8.32-1.35-10.58,0-6-1.68-7.57-.67-4.62,4.79-6.3,2.94-2.27-4.62-3.78-2.94-1.26,2.68-3.7,3.44-4.2-.42-5.29,1-4.62,1.52-5.54.34-1.6-3.53-2.86-3.45-.08-3.86,1.93-3.78,0-1.34,2.61-2.35-.42-.25-.93-1.85,4-1.43,5.21-2.77,2.27-.17,3.28-1.34,5.12-2.86,7-1.52,2.88-1.68,5.18,0,2.44,1.52,4.68,2,3.79,2.42.95,3.61-2.7,2.06-1.31,3Z"/><path class="cls-26" d="M182,111.74s1.66-2.44,3.21-2.77,4.36-3.28,5.1-3.28,2.76-1.18,4.44-1,6.64,2.19,6.64,2.19l5.6-1a.88.88,0,0,1,.65.15,11.8,11.8,0,0,0,3.58,1.69c2.27.62,6.38.45,5.63,2s-7.73.25-9.58,1.09-5-1.26-8.32,0-6.44,3.78-8.64,3.11-2.54-1.52-5.31-.93S182,111.74,182,111.74Z"/><path class="cls-26" d="M182,120.48c-2.88-3.53-2.79-1.51-5.15-2.77s-4-5.22-9.32-2.44-4.45,3.72-7.73,4.72-3.78,1.91-1.93,2.75,3.44-.84,4.7-.5a10.14,10.14,0,0,0,4.29.74c1.59-.24,5-1.75,5.54-1.5l.51.26s6.21.07,4.36,1.29-2.77,2.24-.84,2.66,2.47.58,3.88,0,3.43,1.94,4.23.38S182,120.48,182,120.48Z"/><path class="cls-26" d="M185.36,124.5c.58-.41,3.18-3.52,3.18-3.52a4,4,0,0,1,3.53-2.18c2.61-.09,4.2-2.36,6.14-1.43s2.43,1.93,3.27,2.1a9.73,9.73,0,0,0,2.1.08l3.52.37a.83.83,0,0,1,.72.66l.27,1.29a1.22,1.22,0,0,1-1.13,1.46l-3,.17-4.41-.74a.31.31,0,0,0-.21,0l-2.92,1.66a1.27,1.27,0,0,1-1.28,0,5.07,5.07,0,0,0-4.86-.51c-2.78,1.35-4.87,3.72-4.89,3Z"/><path class="cls-26" d="M177.17,137.16s-3.33,4.07-4.17,3.82-5.88-2.58-7.39,0-1.68,6.12,0,5.2,3.3-3.53,5.18-3,5.84.79,6.38-1.41S182.49,133.88,177.17,137.16Z"/></g></svg>