<svg xmlns="http://www.w3.org/2000/svg" viewBox="0 0 387.16 99.36"><defs><style>.cls-1{fill:none;stroke:#95c11f;stroke-miterlimit:10;stroke-width:0.5px;}.cls-2{fill:#063;}.cls-16,.cls-3,.cls-7{font-size:7.5px;}.cls-10,.cls-14,.cls-16,.cls-3{fill:#fff;font-family:BarlowSemiCondensed-Medium, Barlow Semi Condensed;font-weight:500;}.cls-4{letter-spacing:-0.01em;}.cls-10,.cls-5{letter-spacing:0em;}.cls-6{letter-spacing:0em;}.cls-7{fill:#1e1e1c;font-family:BarlowSemiCondensed-Light, Barlow Semi Condensed;font-weight:300;}.cls-8{letter-spacing:-0.01em;}.cls-9{letter-spacing:0em;}.cls-11{letter-spacing:-0.04em;}.cls-12{letter-spacing:0em;}.cls-13{letter-spacing:-0.01em;}.cls-15{letter-spacing:0em;}.cls-16{letter-spacing:-0.01em;}.cls-17{letter-spacing:0em;}.cls-18{letter-spacing:0.01em;}.cls-19{letter-spacing:-0.01em;}


#datos{
	opacity:0; transition:all ease 0.25s
	}
	svg:hover #datos{opacity:1; transition:all ease 0.25s}


</style></defs><g id="INFO"><path class="cls-1" d="M160.19,17.78h-10.4v52H160"/><line class="cls-1" x1="150.04" y1="43.96" x2="160.04" y2="43.96"/></g><g id="GUIAS"><rect class="cls-2" x="156.69" y="13.65" width="60.72" height="10" rx="4.5"/><rect class="cls-2" x="156.69" y="39.65" width="60.72" height="10" rx="4.5"/><rect class="cls-2" x="156.69" y="65.65" width="60.72" height="10" rx="4.5"/><text class="cls-3" transform="translate(159.67 21.37)">Pé<tspan class="cls-4" x="7.5" y="0">r</tspan><tspan class="cls-5" x="9.95" y="0">dida de hábit</tspan><tspan class="cls-6" x="47.78" y="0">a</tspan><tspan x="51.28" y="0">t </tspan></text><text class="cls-7" transform="translate(169.76 32.15)">(<tspan class="cls-8" x="1.63" y="0">T</tspan><tspan class="cls-5" x="5.21" y="0">ala de bosques e in</tspan><tspan class="cls-9" x="59.43" y="0">c</tspan><tspan x="62.83" y="0">endios)</tspan><tspan class="cls-10" x="83.46" y="0">t </tspan></text><text class="cls-7" transform="translate(169.87 58.51)">(<tspan class="cls-11" x="1.63" y="0">T</tspan><tspan class="cls-12" x="5.02" y="0">r</tspan><tspan x="7.42" y="0">áfi</tspan><tspan class="cls-9" x="14.79" y="0">c</tspan><tspan class="cls-5" x="18.2" y="0">o de animales </tspan><tspan class="cls-13" x="58.99" y="0">e</tspan><tspan x="62.44" y="0">xóti</tspan><tspan class="cls-9" x="73.02" y="0">c</tspan><tspan x="76.42" y="0">os)</tspan><tspan class="cls-14" x="84.76" y="0">t </tspan></text><text class="cls-7" transform="translate(169.79 84.39)">(<tspan class="cls-15" x="1.63" y="0">C</tspan><tspan class="cls-5" x="5.54" y="0">aza pa</tspan><tspan class="cls-12" x="23.87" y="0">r</tspan><tspan x="26.28" y="0">a </tspan><tspan class="cls-9" x="31.18" y="0">c</tspan><tspan class="cls-5" x="34.59" y="0">onsumo humano)</tspan><tspan class="cls-14" x="83.83" y="0">t </tspan></text><text class="cls-16" transform="translate(174.24 72.68)">P<tspan class="cls-17" x="3.83" y="0">oaching </tspan></text><text class="cls-3" transform="translate(169.85 47.6)"><tspan class="cls-6">C</tspan><tspan class="cls-17" x="3.95" y="0">aza fu</tspan><tspan class="cls-18" x="21.64" y="0">r</tspan><tspan x="24.22" y="0">ti</tspan><tspan class="cls-19" x="28.37" y="0">v</tspan><tspan x="31.61" y="0">a </tspan></text></g></svg>