<svg xmlns="http://www.w3.org/2000/svg" xmlns:xlink="http://www.w3.org/1999/xlink" viewBox="0 0 289.46 215.48"><defs><style>.cls-1,.cls-22,.cls-6{fill:none;}.cls-16,.cls-2{font-size:13.98px;}.cls-11,.cls-2,.cls-21,.cls-7{fill:#fff;}.cls-16,.cls-2,.cls-3,.cls-5{font-family:BarlowSemiCondensed-Light, Barlow Semi Condensed;font-weight:300;}.cls-3,.cls-7{font-size:13.98px;}.cls-16,.cls-3,.cls-5{fill:#1e1e1c;}.cls-3{letter-spacing:0em;}.cls-4{letter-spacing:0em;}.cls-11,.cls-5{font-size:13.98px;}.cls-6{stroke:#95c11f;stroke-miterlimit:10;stroke-width:14px;}.cls-22,.cls-6{stroke-linecap:round;}.cls-11,.cls-7{font-family:BarlowSemiCondensed-Medium, Barlow Semi Condensed;font-weight:500;}.cls-8{letter-spacing:-0.01em;}.cls-9{letter-spacing:-0.01em;}.cls-10{letter-spacing:0em;}.cls-12{letter-spacing:0em;}.cls-13{letter-spacing:0em;}.cls-14{letter-spacing:0em;}.cls-15{letter-spacing:-0.01em;}.cls-17{letter-spacing:-0.01em;}.cls-18{letter-spacing:0em;}.cls-19{clip-path:url(#clip-path);}.cls-20{fill:#888483;}.cls-22{stroke:#888483;stroke-linejoin:round;stroke-width:0.5px;} #datos{
	opacity:0; transition:all ease 0.25s
	}
	svg:hover #alturas{opacity:1; transition:all ease 0.25s}</style><clipPath id="clip-path"><circle class="cls-1" cx="138.99" cy="109.91" r="30.97"/></clipPath></defs>

	<g id="GUIAS"><text class="cls-2" transform="translate(99.61 139.18)">Monogamia</text>
	<g id="alturas"><g id="_Cada_2_a_3_años" data-name=" Cada 2 a 3 años"><text/><text class="cls-3" transform="translate(165.65 61.29) rotate(59.91)">C<tspan class="cls-4" x="7.27" y="0">ada 2 a 3 años</tspan></text></g></g>

	<text class="cls-5" transform="matrix(0.49, -0.87, 0.87, 0.49, 73.58, 118.9)">7 a 8 meses</text><polygon id="triangulo" class="cls-6" points="206.85 155.78 63.68 155.78 135.26 31.88 206.85 155.78"/><text class="cls-7" transform="translate(150.45 65.76) rotate(59.91)">Apa<tspan class="cls-8" x="21.17" y="0">r</tspan><tspan x="25.79" y="0">eamien</tspan><tspan class="cls-9" x="66.13" y="0">t</tspan><tspan class="cls-10" x="70.54" y="0">o</tspan></text><text class="cls-11" transform="matrix(0.49, -0.87, 0.87, 0.49, 87.66, 122.52)"><tspan class="cls-12">G</tspan><tspan x="7.33" y="0">estación</tspan></text><text class="cls-11" transform="translate(88.86 159.69)">Expe<tspan class="cls-13" x="27.07" y="0">c</tspan><tspan x="33.61" y="0">t</tspan><tspan class="cls-14" x="38.11" y="0">a</tspan><tspan x="44.64" y="0">ti</tspan><tspan class="cls-15" x="52.37" y="0">v</tspan><tspan x="58.41" y="0">a de vida</tspan></text><text class="cls-16" transform="translate(76.13 179.96)"><tspan xml:space="preserve"> 40 años (en cauti</tspan><tspan class="cls-17" x="92.87" y="0">v</tspan><tspan class="cls-18" x="98.53" y="0">erio)</tspan></text>

	<g class="cls-19"><path class="cls-20" d="M144.76,83.15c1.57.21,2.24.89,4.33,2.53s7.16,5.67,8.95,8.51,1.49,8.5,1.64,11.48-.9,5.22.29,7.31,1.65,4.92,1.05,11.93.74,14.77.6,18.49.59,10,.29,13-3.43,1.94-3.43,3.43,3,10.89,5.07,16.11,7.76,10,14.32,16.7,10.89,20.14,11.65,24.17-1.51,9.54-3,14a103.21,103.21,0,0,1-4.12,9.88,1.19,1.19,0,0,1-.63.58l-13.46,5.36a1.15,1.15,0,0,0-.74,1.06,126.43,126.43,0,0,1-.88,13.69c-.75,4.33.44,5.82,3.58,6.42s12.23,1.64,15.66,2.38,4.47,3.13,2.83,4.48-8.35,0-15.81.15-12.23.59-15.36.74-5.07,1.19-8.2,1.19-5.52-1.49-7.46-1.49-2.09-2.09-2.09-3.28,4.92-2.38,5.22-3.28a15.19,15.19,0,0,0,0-6c-.45-2.68-1-13.27-2.39-20.13s-3.87-10.29-7.9-14.17-9.1-4.33-12.38-6.26c-2.46-1.46-3.16-5.68-3.36-7.7a1.18,1.18,0,0,0-1.22-1.06l-1.59.07a1.17,1.17,0,0,0-1.11,1c-.28,1.86-1.06,5.91-2.86,7.83-2.39,2.54-8.65,6-14.47,11A114.92,114.92,0,0,0,85.9,246.06a1.15,1.15,0,0,0-.24.58c-.14,1.1-.61,4.84-.86,8.48-.3,4.32-3,9.39-3.13,12.38a4.29,4.29,0,0,0,1.55,3.27,1.17,1.17,0,0,1-.58,2c-1.93.35-4.66.8-7.38,1.12-5.07.6-5.67-.3-11.64.45S58.4,275.7,54.53,276s-4.48-1.34-4.63-3.28,4.33-3,7-6,4.18-5.22,4.18-7.9a142.16,142.16,0,0,1,.59-14.92c.6-4.47,4.48-7.9,6.12-11.18s5.67-7.91,6.86-11.34,3.28-13.42,6.27-18.94a52.34,52.34,0,0,1,8.57-12.38c3.5-3.73,2-13,2-18.5,0-4.27-2.23-17.65-3.24-23.48a1.17,1.17,0,0,0-2.11-.48l-7.59,10.65a.35.35,0,0,0,0,.08c-.63,1-13.64,23-17,27.85s-3.29,10.89-1.79,14c1.37,2.88,6.52,6.9,7.34,7.52a1,1,0,0,1,.2.2s3.65,2,3.26,3.05c-.24.62-2.64.09-2.64.09a1.16,1.16,0,0,1-.73-.19,17.48,17.48,0,0,0-4-2.17h0a1.17,1.17,0,0,0-1.26,1.67c1.07,2.18,3.21,6.37,4.73,7.89,2.09,2.09,4.77-.15,6.41-.3s1.19.45,1,1.49-4.32,3.88-6,4.92-6,1.2-11.93-2.09S50.5,214,48.11,210.22a103.32,103.32,0,0,0-7-10c-1.49-1.64-1-7.46-.74-13.57s5.66-25.06,8.2-31.92,2.39-6.41,3.58-9.55,2.83-1.79,4.47-2.83,2.84-4,4.48-6.86,13.57-13.42,17.75-16.41,10.74-11,13.57-12.82,7.76-6,10.44-7.61,4.33-1.79,6.12-1.19,5.22.15,6.26-.9c.62-.62-.13-2-.84-3a1.16,1.16,0,0,1,.55-1.77,31,31,0,0,1,3.87-1.21c2.09-.45,10.14-6.57,13.42-7.76a11.11,11.11,0,0,1,6.57,0,.86.86,0,0,0,.32,0A52.91,52.91,0,0,1,144.76,83.15Zm1.79,103.21-1.19,4.33s6.11,5.66,7.16,9.09.59,5.67,2.68,7.46,3,3.28,6.12,9.55a43.33,43.33,0,0,1,3.88,12.82l1.19,8.65s5.22-2.53,7-4.32,4.17-3.58,5.07-6a6.81,6.81,0,0,0,0-5.67c-.75-1.78-4.62-8.05-6.71-10s-5.37-5.22-7.46-7.46a52.61,52.61,0,0,0-7.9-7,20.25,20.25,0,0,1-6-6.56A38.34,38.34,0,0,0,146.55,186.36Z"/><path class="cls-21" d="M146.1,96c-2,.31-3.26-.75-5.15-1.3-9-2.63-8.65,7-7.33,8.11s3.32,2.24,3.78,2.62-1.31,0-2.78,2.47-2,4.4-1.16,6.87a9.75,9.75,0,0,0,5.56,5.87c3.09,1.47,5.25,1.32,7.72,0s4.94-5.09,5-7-1.93-6.88-1.93-6.88,7.26-.69,5.1-7.33C153.75,95.79,150.5,95.31,146.1,96Z"/><path class="cls-22" d="M137.4,111.45s5-.23,7.8.7a12,12,0,0,1,3.4,1.47"/><line class="cls-22" x1="143.73" y1="107.21" x2="145.04" y2="109.45"/><line class="cls-22" x1="147.44" y1="107.97" x2="146.59" y2="109.91"/><path class="cls-20" d="M135.76,98.92a7,7,0,0,1,3.72-.64c1,.2,3.52,2.35,3.52,2.35s-1.36.61-4.53.25C137.67,100.78,135.76,98.92,135.76,98.92Z"/><circle class="cls-21" cx="138.99" cy="99.55" r="1.1"/><circle class="cls-20" cx="138.99" cy="99.2" r="0.35"/><path class="cls-20" d="M147.21,100.23a4.62,4.62,0,0,1,2.93-.84,2.5,2.5,0,0,1,2.25,1.72,2.76,2.76,0,0,1-2.59,1A3.88,3.88,0,0,1,147.21,100.23Z"/><circle class="cls-21" cx="149.9" cy="100.73" r="1.1"/><circle class="cls-20" cx="149.9" cy="100.38" r="0.35"/></g></g></svg>