<?xml version="1.0" encoding="utf-8"?>
<!-- Generator: Adobe Illustrator 24.0.2, SVG Export Plug-In . SVG Version: 6.00 Build 0)  -->
<svg version="1.1" id="comparacion_tamaño_general"
	 xmlns="http://www.w3.org/2000/svg" xmlns:xlink="http://www.w3.org/1999/xlink" x="0px" y="0px" viewBox="0 0 590.97 338.89"
	 style="enable-background:new 0 0 590.97 338.89;" xml:space="preserve">
<style type="text/css">
	.st0{fill:none;}
	.st1{fill:#1E1E1C;}
	.st2{font-family:'BarlowSemiCondensed-Light';}
	.st3{font-size:13.8482px;}
	.st4{fill:none;stroke:#95C11F;stroke-width:0.5;stroke-miterlimit:10;}
	.st5{fill:none;stroke:#95C11F;stroke-width:0.5;stroke-miterlimit:10;stroke-dasharray:0.8823,0.8823;}
	.st6{font-family:'BarlowSemiCondensed-Medium';}
	.st7{fill:#95C11F;}
	.st8{fill:#006633;}
	.st9{fill:#DEDDDD;}
	#alturas{
	opacity:0; transition:all ease 0.25s
	}
	svg:hover #alturas{opacity:1; transition:all ease 0.25s}
</style>
<g>
	<g>
		<rect x="107.03" y="35.59" class="st0" width="378.73" height="33.86"/>
		<text transform="matrix(1 0 0 1 107.0257 47.356)" class="st1 st2 st3">El Siamang es el más grande de los gibones.</text>
	</g>
	<line id="linea" class="st4" x1="145.22" y1="264.22" x2="463.6" y2="264.22"/>
	
		<line id="linea_00000078751700427628852550000007853246181663720579_" class="st5" x1="145.22" y1="214.47" x2="463.81" y2="214.47"/>
	<g>
		<text transform="matrix(1 0 0 1 106.052 114.9893)" class="st1 st2 st3">150 cm</text>
	</g>
	<g id="alturas">
		<text transform="matrix(1 0 0 1 238.5364 158.5669)" class="st1 st6 st3">90 cm</text>
	</g>
	<g>
	</g>
	<g>
	</g>
	<g>
	</g>
	<g>
		<text transform="matrix(1 0 0 1 110.1096 215.0044)" class="st1 st2 st3">50 cm</text>
	</g>
	<g>
		<text transform="matrix(1 0 0 1 116.3968 264.2168)" class="st1 st2 st3">0 cm</text>
	</g>
	
		<line id="linea_00000100363895000644788190000015555161185042233528_" class="st5" x1="145.22" y1="164.73" x2="463.81" y2="164.73"/>
	
		<line id="linea_00000151507916909128995320000002674649282847742620_" class="st5" x1="145.22" y1="114.99" x2="463.81" y2="114.99"/>
	<g>
		<text transform="matrix(1 0 0 1 105.637 164.8711)" class="st1 st2 st3">100 cm</text>
	</g>
	<path id="nomascus" class="st7" d="M435.12,216.45c0,0-0.46-0.91-1.24-0.98c-0.78-0.07-5.33,1.69-6.9,3.9
		c-1.56,2.21-2.86,5.79-4.62,7.09c-1.76,1.3-6.51,3.9-8.26,5.2c-1.76,1.3-7.09,3.9-7.74,5.01c-0.65,1.11-0.91,1.63-0.72,2.54
		s-0.07,2.93,1.24,4.42s1.69,2.47,2.6,2.86c0.91,0.39,1.5,0.72,2.69,0.76c0.75,0.02,1.14,0.02,1.32,0.01c0.08,0,0.16-0.06,0.17-0.15
		l0,0c0.04-0.16-0.06-0.31-0.21-0.36l-0.46-0.12l-0.01-0.09c-0.02-0.15-0.13-0.28-0.28-0.33l-0.67-0.2c0,0-1.46-0.47-1.73-0.96
		c-0.27-0.49-0.84-1.51-0.84-1.51v-0.44c0-0.13-0.05-0.26-0.13-0.36l-0.34-0.41c0,0-0.35-1.09-0.52-1.38s-0.15-1.75,0-1.93
		s2.37-1.39,3.16-1.92s4.77-2.06,4.77-2.06s3.43-1.41,4.62-1.75s3.06-0.82,4.1-1.43c1.04-0.62,3.01-2.42,3.01-2.42l0.32-0.32
		c0,0-0.64,2.05-1.24,4.79c-0.59,2.74-1.06,6.3-1.73,7.51c-0.67,1.21-1.66,4.15-1.73,5.73c-0.07,1.58-0.22,2.27-0.22,2.27
		s-1.98,0.86-2.03,2.15c-0.05,1.28,0.84,3.14,0.62,4.13c-0.22,0.99-1.63,3.68-1.63,4.25c0,0.21,0.02,0.4,0.05,0.55
		c0.05,0.23,0.25,0.39,0.48,0.39h0.05l0.15,0.79c0.04,0.22,0.26,0.35,0.47,0.3l0,0l0.08,0.07c0.17,0.15,0.43,0.12,0.55-0.07
		l0.04-0.06c0,0,0.42,0.1,0.44-0.15c0.02-0.25,1.28-2.72,1.56-2.74s0.94,0.02,0.69,0.42s-0.89,1.09-0.89,1.09v0.06
		c0,0.2,0.16,0.36,0.36,0.36h0.2c0,0,0.77-0.62,1.19-1.21c0.42-0.59,1.26-1.7,1.19-2.08c-0.07-0.37-0.64-1.14-0.47-1.61
		s2.35-2.54,2.62-3.46c0.27-0.91,0.74-3.88,1.09-4.4c0.35-0.52,1.19-1.98,1.68-1.98c0.49,0,1.88-5.22,2.42-4.13
		c0.54,1.09,0.59,8.36,1.58,10.01c0.99,1.66,1.36,1.48,1.09,2.67s-2.2,3.36-2.87,4.79c-0.67,1.43-0.59,2.82-0.3,3.46
		c0.3,0.64,0.05,1.36,0.05,1.36s0.12,0.54,0.37,0.54c0.25,0,0.79-0.27,1.16-0.69c0.37-0.42,1.36-0.49,1.36-0.49s1.04-0.42,1.66-0.27
		c0.62,0.15,0.99,0.82,1.48,0.82c0.49,0,0.49,0,0.49,0s0.57,0.18,0.62,0.04c0.03-0.09,0.13-0.13,0.2-0.16
		c0.06-0.02,0.1-0.08,0.1-0.14v-0.17c0-0.02,0.01-0.04,0.02-0.06l0.39-0.37c0.1-0.09,0.09-0.25-0.02-0.33l-0.59-0.46
		c0,0-1.04-0.42-0.77-0.84c0.27-0.42,2.1-3.21,2.45-5.04c0.35-1.83,0.2-3.14,0.42-3.21c0.22-0.07,0.3-0.25,0.27-0.62
		c-0.02-0.37-0.25-1.83-0.47-3.43c-0.22-1.61-0.79-4.37-1.73-5.41c-0.94-1.04-1.43-1.21-1.43-1.21s1.48-2.15,2.59-3.9
		s1.36-3.19,1.53-3.93c0.17-0.74,0.89-2.69,0.89-2.69s0.47,1.31,0.89,2.57s1.68,5.83,2.57,7.12c0.89,1.28,1.61,2.15,2.25,2.99
		c0.64,0.84,1.66,1.53,2.05,2.59s0.94,1.88,0.82,3.09s0.07,2.05,0.15,2.27c0.07,0.22-0.17,1.56-0.17,1.56l0.04,0.27
		c0.05,0.35,0.51,0.45,0.7,0.15l0,0l0.13-0.83c0.04-0.28,0.43-0.35,0.56-0.09c0.07,0.15,0.13,0.35,0.13,0.61
		c0,0.84-0.12,2.35-0.35,2.87c-0.22,0.52-0.52,0.54-0.52,0.54l0,0c-0.19-0.01-0.35,0.13-0.35,0.32v0.12l-0.41,0.48
		c-0.11,0.13-0.17,0.31-0.15,0.48l0,0c0.01,0.06,0.07,0.09,0.12,0.06l1.45-0.78c0,0,0.67,0.37,1.24,0.25
		c0.57-0.12,1.73-0.77,2.08-1.73c0.35-0.96,0.47-2.69,0.3-3.93c-0.17-1.24-0.42-2.69-1.16-4.4c-0.74-1.7-4.84-11.82-4.84-11.82
		s-0.3-1.84-0.74-4.58c0,0-1.11-5.41-1.85-6.82c-0.74-1.41-1.68-2.15-1.95-3.51s0.07-4.3-0.72-5.86c-0.79-1.56-1.75-2.45-3.61-2.72
		c-1.85-0.27-2.69-0.3-4.05,0.15c-1.36,0.44-2.74,1.06-3.46,1.73S435.12,216.45,435.12,216.45z"/>
	<path id="hylobates" class="st7" d="M364.69,211.67l0.12,0.24c0.13,0.25,0.04,0.56-0.2,0.71c-0.51,0.32-1.31,1-1.61,2.21
		c-0.44,1.82-1.42,7.24-0.89,10.26c0.53,3.02,0.98,3.56,0.44,5.07c-0.53,1.51-5.24,9.24-5.24,9.24s-2.67,4.71-2.31,7.11
		s0.09,4.18,1.24,5.51c1.16,1.33,2.58,1.96,3.02,1.33c0.38-0.54,0.66-2.84,0.72-3.45c0.01-0.1-0.01-0.19-0.06-0.28l-0.03-0.05
		c-0.09-0.17-0.33-0.2-0.47-0.07c-0.36,0.35-0.98,0.87-1.19,0.56c-0.31-0.44-0.71-1.64,0.31-2.93s6.49-6.84,6.49-6.84l0.1-0.14
		c0.19-0.27,0.61-0.14,0.61,0.19c0.01,1.35,0.06,3.61,0.27,4.57c0.31,1.42-0.58,4.58-1.02,6.22c-0.44,1.64-1.42,6.27-0.53,8
		c0.89,1.73,1.73,2.31,1.02,2.84c-0.71,0.53-1.6,1.16-1.24,1.87c0.36,0.71,0.53,1.11,1.24,1.07c0.71-0.04,2.04-0.58,3.33-0.4
		s3.56,0.8,3.56,0.13c0-0.67-1.11-2.13-1.11-2.53c0-0.4,1.33-8.93,1.38-11.2c0.04-2.27-0.27-4.13,0-4.53
		c0.17-0.26,1.07-1.75,1.67-2.76c0.28-0.47,0.94-0.53,1.3-0.12c0.8,0.9,1.99,2.36,2.36,3.46c0.58,1.69,1.24,6.22,2.18,8.04
		s2.04,4.09,2.27,5.56c0.22,1.47-0.31,2.13,0.49,2.53c0.8,0.4,1.64-0.09,3.24,0.84c1.6,0.93,2.98,1.24,4.04,0.76
		s1.56-0.89,1.38-1.42c-0.18-0.53-2.98-2.71-2.98-2.71s0.13-4.62-0.18-6.18c-0.31-1.56-3.51-7.29-3.69-8.4
		c-0.18-1.11-0.36-6.58-0.93-8.4c-0.29-0.91-0.65-1.82-0.94-2.51c-0.12-0.28,0.23-0.51,0.44-0.3c0.76,0.74,1.79,1.87,2.41,3.08
		c1.07,2.09,4.36,7.82,4.62,9.16c0.27,1.33,0.98,3.56,0.18,4.18s-1.38,0.76-1.87,0.71s-0.53,0.4-0.53,0.4s0.44,2.18,1.29,2.67
		c0.84,0.49,2.71-0.93,3.47-2.31c0.76-1.38,1.47-4.4,1.24-6.18c-0.22-1.78-2.53-5.6-3.33-8s-1.64-10-2-11.24
		c-0.36-1.24-0.44-5.07-1.64-8.49s-2.44-6.5-4.22-7.18c-1.78-0.68-3.47-0.59-3.91-1.21c-0.44-0.62-0.31-4.04-0.89-4.71
		c-0.58-0.67-3.07-2.76-5.16-3.02c-2.09-0.27-4.36-0.22-6.18,0.89c-1.82,1.11-3.29,3.15-3.29,4.18c0,2.86,0.82,3.66,1.07,3.84
		C364.61,211.56,364.66,211.61,364.69,211.67z"/>
	<path id="hoolock" class="st7" d="M327.99,186.09c0,0-2.04-3.85-7.09-4.45c-5.05-0.6-7.33,0.72-9.38,1.68
		c-2.04,0.96-3.25,1.92-2.89,2.77c0.36,0.84,0.83,1.8-0.06,2.28c-0.9,0.48-2.7,0.6-3.66,2.16c-0.96,1.56-4.81,10.22-4.81,12.5
		c0,2.28,1.2,4.81,0,8.18c-1.2,3.37-5.29,7.93-8.18,13.59c-2.89,5.65-4.93,6.73-5.53,8.54c-0.6,1.8-1.2,8.9-0.48,10.58
		c0.72,1.68,2.64,4.09,3.97,4.81c1.32,0.72,2.16,0.72,2.16,0s-0.36-1.92-0.36-1.92s1.2-1.68,0.84-2.52
		c-0.36-0.84-1.8-3.73-1.56-4.93c0.24-1.2,4.93-7.45,4.93-7.45l6.97-7.57c0,0-2.52,6.25-4.69,9.38c-2.16,3.13-3.01,6.73-4.33,8.66
		c-1.32,1.92-2.6,10.56-2.6,10.56s-2.91-0.07-4.33-0.81c-1.42-0.74-4.54-1.22-4.74-0.74c-0.2,0.47,0,1.29,0,1.29
		s-1.02-0.34-1.22,0.27c-0.2,0.61,0,1.15,0.41,1.29c0.41,0.14,3.25,0.61,5.28,1.22s7.11,2.71,8.2,2.78c1.08,0.07,3.86,1.22,4.13,0
		c0.27-1.22,1.9-6.77,2.3-8.2s4-8.2,5.28-9.55c1.29-1.35,3.18-4.27,4.47-4.33c1.29-0.07,2.03,0.61,3.73,1.56
		c1.69,0.95,5.15,1.49,6.23,5.01c1.08,3.52,1.22,7.72,0.88,9.28c-0.34,1.56-0.88,2.91-0.41,4.61c0.47,1.69,2.24,3.59,2.03,4.2
		c-0.2,0.61-3.18,0.74-3.18,0.74s-4.33-0.2-4.54,0.41c-0.2,0.61-0.2,0.61-0.2,0.61s14.36,2.84,15.04,2.37
		c0.68-0.47,0.07-2.03,0-2.44s2.78-6.5,2.57-8.26c-0.2-1.76-4.47-10.77-4.47-13s1.22-9.55,0.88-10.84
		c-0.34-1.29-2.17-3.45-2.44-3.45s0.88-1.42,0.88-1.42s5.82,6.1,8.53,8.26c2.71,2.17,7.65,4.74,9.62,6.84
		c1.96,2.1,2.51,2.71,2.03,3.66c-0.47,0.95-1.35,1.56-2.44,1.35c-1.08-0.2-1.35-1.49-1.9-1.22c-0.54,0.27-0.61,0.47-1.22,0.14
		s-1.02-0.68-1.08,0c-0.07,0.68,0.41,1.96,0.47,2.24c0.07,0.27-1.08,0.47-0.68,1.02c0.41,0.54,0.54,1.22,1.56,1.76
		c1.02,0.54,2.44,1.83,3.12,1.69c0.68-0.14,5.01-2.17,5.01-2.17s1.96-0.68,2.03-1.69s0.81-7.04,0.34-8.33s-8.2-11.45-8.2-11.45
		l-0.41-1.69c0,0-0.27-0.34-1.22-2.3s-1.56-2.71-2.71-4.13s-0.95-4.13-0.81-5.42c0.14-1.29,1.42-3.32,1.42-4.33
		c0-1.02-1.35-12.94-3.05-14.97c-1.69-2.03-3.05-3.39-4.27-4.81c-1.22-1.42-2.51-2.44-3.86-2.71S327.99,186.09,327.99,186.09z"/>
	<path id="siamang" class="st8" d="M258.98,171.85c0.75,0.1,1.08,0.43,2.08,1.22c1,0.79,3.44,2.73,4.3,4.09
		c0.86,1.36,0.72,4.09,0.79,5.52c0.07,1.43-0.43,2.51,0.14,3.51c0.57,1,0.79,2.37,0.5,5.74c-0.29,3.37,0.36,7.1,0.29,8.89
		c-0.07,1.79,0.29,4.81,0.14,6.24c-0.14,1.43-1.65,0.93-1.65,1.65s1.43,5.24,2.44,7.75c1,2.51,3.73,4.81,6.89,8.03
		s5.24,9.68,5.6,11.62c0.37,1.94-0.72,4.59-1.44,6.74c-0.6,1.81-1.66,4.08-1.99,4.75c-0.06,0.13-0.17,0.23-0.3,0.28l-6.48,2.58
		c-0.21,0.08-0.35,0.28-0.36,0.51c-0.02,1.18-0.12,4.85-0.42,6.59c-0.36,2.08,0.22,2.8,1.72,3.08c1.51,0.29,5.88,0.79,7.53,1.15
		c1.65,0.36,2.15,1.51,1.36,2.15s-4.02,0-7.6,0.07c-3.59,0.07-5.88,0.29-7.39,0.36c-1.51,0.07-2.44,0.57-3.95,0.57
		c-1.51,0-2.65-0.72-3.59-0.72s-1-1-1-1.58c0-0.57,2.37-1.15,2.51-1.58c0.14-0.43,0.22-1.58,0-2.87c-0.22-1.29-0.5-6.38-1.15-9.68
		c-0.65-3.3-1.86-4.95-3.8-6.81c-1.94-1.86-4.38-2.08-5.95-3.01c-1.18-0.7-1.52-2.73-1.61-3.7c-0.03-0.3-0.29-0.52-0.59-0.51
		l-0.76,0.03c-0.27,0.01-0.5,0.21-0.54,0.48c-0.13,0.89-0.51,2.85-1.38,3.77c-1.15,1.22-4.16,2.87-6.96,5.31
		c-2.5,2.18-5.17,5.44-5.71,6.12c-0.07,0.08-0.11,0.18-0.12,0.28c-0.07,0.53-0.29,2.33-0.41,4.08c-0.14,2.08-1.43,4.52-1.51,5.95
		c-0.03,0.65,0.34,1.19,0.75,1.58c0.34,0.32,0.18,0.89-0.28,0.97c-0.93,0.17-2.24,0.38-3.55,0.54c-2.44,0.29-2.73-0.14-5.59,0.22
		s-2.51,0.65-4.38,0.79c-1.86,0.14-2.15-0.65-2.22-1.58c-0.07-0.93,2.08-1.43,3.37-2.87s2.01-2.51,2.01-3.8c0-1.29,0-5.02,0.29-7.17
		c0.29-2.15,2.15-3.8,2.94-5.38s2.73-3.8,3.3-5.45c0.57-1.65,1.58-6.46,3.01-9.11c1.43-2.65,2.44-4.16,4.12-5.95
		c1.68-1.79,0.97-6.24,0.97-8.89c0-2.05-1.07-8.49-1.56-11.3c-0.09-0.49-0.72-0.64-1.02-0.23l-3.65,5.12
		c-0.01,0.01-0.02,0.02-0.03,0.04c-0.3,0.51-6.56,11.08-8.17,13.39c-1.65,2.37-1.58,5.24-0.86,6.74c0.66,1.39,3.14,3.32,3.53,3.62
		c0.04,0.03,0.07,0.06,0.1,0.09c0,0,1.75,0.97,1.56,1.47c-0.11,0.3-1.27,0.04-1.27,0.04c-0.13,0.01-0.25-0.02-0.35-0.09
		c-0.39-0.26-1.41-0.93-1.92-1.04c-0.01,0-0.01,0-0.02,0c-0.45-0.09-0.8,0.39-0.6,0.8c0.51,1.05,1.54,3.06,2.27,3.79
		c1,1,2.3-0.07,3.08-0.14c0.79-0.07,0.57,0.22,0.5,0.72c-0.07,0.5-2.08,1.86-2.87,2.37c-0.79,0.5-2.87,0.57-5.74-1
		c-2.87-1.58-2.73-4.02-3.87-5.81c-1.15-1.79-2.65-4.02-3.37-4.81s-0.5-3.59-0.36-6.53c0.14-2.94,2.73-12.05,3.95-15.35
		c1.22-3.3,1.15-3.08,1.72-4.59s1.36-0.86,2.15-1.36c0.79-0.5,1.36-1.94,2.15-3.3c0.79-1.36,6.53-6.46,8.54-7.89
		c2.01-1.43,5.16-5.31,6.53-6.17s3.73-2.87,5.02-3.66c1.29-0.79,2.08-0.86,2.94-0.57c0.86,0.29,2.51,0.07,3.01-0.43
		c0.3-0.3-0.06-0.95-0.41-1.43c-0.21-0.3-0.08-0.72,0.26-0.85c0.55-0.2,1.3-0.46,1.86-0.58c1-0.22,4.88-3.16,6.46-3.73
		c1.39-0.5,2.83-0.12,3.16-0.02c0.05,0.02,0.1,0.02,0.15,0.02C256.62,171.71,258.05,171.73,258.98,171.85z M259.84,221.49
		l-0.57,2.08c0,0,2.94,2.73,3.44,4.38s0.29,2.73,1.29,3.59s1.43,1.58,2.94,4.59c1.51,3.01,1.86,6.17,1.86,6.17l0.57,4.16
		c0,0,2.51-1.22,3.37-2.08c0.86-0.86,2.01-1.72,2.44-2.87c0.43-1.15,0.36-1.86,0-2.73s-2.22-3.87-3.23-4.81
		c-1-0.93-2.58-2.51-3.59-3.59c-1-1.08-2.44-2.44-3.8-3.37c-1.36-0.93-2.15-2.01-2.87-3.16
		C260.99,222.71,259.84,221.49,259.84,221.49z"/>
	<path id="hombre" class="st9" d="M190.48,108.16c0.63,0.49,0.85,1.35,1.48,2.12c0.77,0.93,3.56,1.57,5.73,2.31
		c2.18,0.74,5.77,2.24,7.66,3.27c1.89,1.02,3.81,2.53,4.81,7.62c0.99,5.09,1.22,7.46,1.41,9.64c0.19,2.18,0.22,4.13,0.22,4.13
		s-0.22,0.07-0.63,0.18c0.27,1.71,0.71,4.6,1.05,6.94c0.51,3.56,0.16,16.85-0.48,22.3c-0.64,5.45-1.22,6.92-1.73,8.2
		c-0.51,1.28-1.09,2.43-1.22,4.23c-0.13,1.79-0.19,2.05-1.41,3.91c-1.22,1.86-0.54,2.43-2.37,4.23c-0.63,0.62-1.27,1.14-1.83,1.57
		v1.02c0,2.69,0.19,13.04,0.23,16.27c0.03,3.24-0.1,4.32,0.35,5.83c0.45,1.51-0.06,2.66-0.06,2.88c0,0.22,0.54,0.67,0.61,2.27
		c0.06,1.6,0.03,2.5,0.06,3.17c0.03,0.67-0.67,11.82-0.48,14.26c0.19,2.43,1.28,3.08,0.8,4.29c-0.48,1.22-1.79,1.95-1.38,3.56
		c0.42,1.6,1.99,1.67,1.7,2.53c-0.29,0.86,0.26,1.89-0.83,2.47c-1.09,0.58-1.12,1.38-1.12,1.38s1.28,1.28,2.08,3.4
		c0.8,2.11,0.48,2.53,1.47,3.3c0.99,0.77,3.46,1.92,3.81,3.3c0.35,1.38,0.16,2.92-0.13,3.46c-0.29,0.54-3.01,1.18-4.52,1.25
		c-1.51,0.06-3.56-1.73-4.77-2.53c-1.22-0.8-2.79-2.79-4-3.88c-1.22-1.09-1.67-2.21-1.86-3.72c-0.19-1.51-0.19-2.05,0-2.98
		c0.19-0.93,0.26-1.6,0.26-1.6s-1.28-0.29-1.44-1.57c-0.16-1.28-0.48-2.88-0.22-4.61c0.26-1.73-0.51-2.05-0.51-4.55
		c0-2.5-0.58-2.43-0.26-4.81c0.32-2.37-0.45-10.44-0.64-12.94c-0.19-2.5-0.58-3.08-0.45-4.93c0.13-1.86-0.38-2.24-0.83-4.61
		c-0.45-2.37,0.13-2.18-0.45-5.89c-0.58-3.72-1.99-9.42-2.88-12.88c-0.9-3.46-1.35-3.91-1.67-5.13c-0.32-1.22-0.64-2.18-0.64-2.18
		s-1.09,2.56-1.54,6.66c-0.45,4.1-0.26,6.34-0.64,10.32c-0.39,3.97-0.96,7.3-1.03,9.74c-0.06,2.43-0.29,1.99-0.67,3.62
		c-0.38,1.63-0.35,2.92-0.1,4.68c0.26,1.76,0.1,2.05,0.1,3.81c0,1.76,0.03,7.4-0.16,10.48c-0.19,3.08-0.7,3.46-0.38,5.06
		c0.32,1.6,1.09,3.33,0.45,4.36c-0.64,1.03-0.38,1.6-0.7,2.69c-0.32,1.09-0.58,1.22-0.58,1.22s0.51,1.22,0.45,3.52
		c-0.06,2.31,0.38,3.97,0.26,4.93c-0.13,0.96-1.86,1.67-2.95,3.01c-1.09,1.35-3.08,3.72-5.96,5.19c-2.88,1.47-6.22,1.09-7.5,0.58
		c-1.28-0.51-1.28-3.01-0.9-3.91c0.38-0.9,1.6-1.86,2.95-2.82c1.35-0.96,1.54-2.37,2.76-3.59c1.22-1.22,1.02-2.69,1.67-3.97
		c0.64-1.28,0.77-2.24,0.64-3.27c-0.13-1.03-1.47-1.6-1.15-4.04c0.32-2.43,0.19-3.4,0.19-4.29c0-0.9-0.77-7.82-1.09-12.11
		c-0.32-4.29-1.35-6.34-0.77-8.33c0.58-1.99,0.96-3.4,0.45-7.11c-0.51-3.72-0.77-6.41-0.83-9.87c-0.06-3.46-0.64-6.86-0.64-9.55
		c0-0.24,0-0.52,0-0.84c-0.73-0.67-1.48-1.57-2.02-2.72c-1.41-3.01-2.5-4.74-3.2-7.75c-0.7-3.01-1.99-3.84-2.24-6.34
		c-0.26-2.5-0.96-5.45-0.96-7.24c0-1.79-0.19-9.55-0.19-14.86c0-3.58,0.32-7.07,0.53-8.97c-0.45-0.06-0.7-0.1-0.7-0.1
		s-0.16-4.07,0-7.18c0.16-3.11,0.7-10.28,1.54-11.73c0.83-1.44,1.18-1.92,1.18-1.92s0.32-1.44,3.65-3.4
		c3.33-1.95,5.32-3.56,7.63-4.71c2.31-1.15,2.56-0.61,3.04-2.11c0.41-1.27,0.42-2.45,1.46-3.02l-0.06-1.36c0,0-0.25-0.41-0.51-1.11
		c-0.26-0.7-0.44-2.4-0.44-2.4s-0.91-0.02-1.2-0.65c-0.29-0.63-0.68-2.68-0.7-4.43c-0.02-1.75,0.55-1.9,0.55-1.9
		s-0.05-0.97-0.11-2.19c-0.06-1.23-0.42-4.57-0.02-6.92c0.4-2.35,3.22-4.1,8.53-3.92c5.31,0.19,6.11,4.55,6.11,4.55
		s1.36,0.61,1.47,2.16c0.11,1.55,0.44,4.99,0.44,4.99s0.89,0.31,1.04,1.44c0.15,1.12,0.32,3.18-0.16,4.6
		c-0.48,1.41-1.37,1.75-1.37,1.75s-0.26,0.56-0.51,1.45c-0.25,0.88-0.1,1.78-0.04,3.01L190.48,108.16z M167.9,175.78
		c0.09-2.68,0.27-5.9,0.27-8.67c0-3.72,0.26-15.83,0.26-19.03c0-0.36-0.01-0.75-0.02-1.14c-0.35,2.71-0.75,5.8-1.1,8.09
		c-0.77,5.13-1.09,8.91-1.15,12.81c-0.06,3.91-0.32,5.06,0.45,6.41C166.93,174.84,167.42,175.32,167.9,175.78L167.9,175.78z
		 M202.38,142.34l0.35,9.82c0.13,3.65,0.26,6.6,0.26,9.61c0,2.34,0.27,8.14,0.33,13.04c0.25-0.17,0.46-0.35,0.64-0.51
		c1.06-0.99,1.25-1.25,1.41-1.7c0.16-0.45,0-7.82-0.45-13.78C204.57,154.29,203.31,147.42,202.38,142.34z"/>
	<g id="alturas">
		<text transform="matrix(1 0 0 1 287.8352 281.4775)" class="st1 st2 st3">Hoolock</text>
	</g>
	<g id="alturas">
		<text transform="matrix(1 0 0 1 221.5764 281.4775)" class="st1 st6 st3">Siamang</text>
	</g>
	<g id="alturas">
		<text transform="matrix(1 0 0 1 160.4358 281.4775)" class="st1 st2 st3">Hombre</text>
	</g>
	<g id="alturas">
		<text transform="matrix(1 0 0 1 349.8899 281.4775)" class="st1 st2 st3">Hylobates</text>
	</g>
	<g id="alturas">
		<text transform="matrix(1 0 0 1 408.7942 281.4775)" class="st1 st2 st3">Nomascus</text>
	</g>
</g>


</svg>
