<svg xmlns="http://www.w3.org/2000/svg" viewBox="0 0 1267.28 774.83"><defs><style>.cls-1{font-size:9px;font-family:BarlowSemiCondensed-Light, Barlow Semi Condensed;font-weight:300;}.cls-1,.cls-24{fill:#1e1e1c;}.cls-2{letter-spacing:-0.01em;}.cls-3{letter-spacing:0em;}.cls-4{letter-spacing:0em;}.cls-5{letter-spacing:0em;}.cls-20,.cls-6{letter-spacing:-0.01em;}.cls-7{letter-spacing:0em;}.cls-8{letter-spacing:0.01em;}.cls-9{letter-spacing:-0.01em;}.cls-10{letter-spacing:-0.01em;}.cls-11,.cls-19{letter-spacing:-0.01em;}.cls-12{letter-spacing:0em;}.cls-13{letter-spacing:0em;}.cls-14{letter-spacing:0em;}.cls-15{letter-spacing:0em;}.cls-16{letter-spacing:-0.01em;}.cls-17{letter-spacing:0em;}.cls-18,.cls-19,.cls-20{font-family:BarlowSemiCondensed-Medium, Barlow Semi Condensed;font-weight:500;}.cls-21{letter-spacing:0.02em;}.cls-22,.cls-26,.cls-32,.cls-33{fill:none;}.cls-22,.cls-31,.cls-33{stroke:#95c11f;}.cls-22,.cls-26,.cls-30,.cls-31,.cls-32,.cls-33{stroke-miterlimit:10;}.cls-22,.cls-26{stroke-width:7.8px;}.cls-23,.cls-30{fill:#95c11f;}.cls-24{font-size:8.5px;font-family:BarlowSemiCondensed-SemiBold, Barlow Semi Condensed;font-weight:600;}.cls-25{letter-spacing:-0.02em;}.cls-26,.cls-30,.cls-32{stroke:#063;}.cls-27,.cls-31{fill:#063;}.cls-28{letter-spacing:-0.01em;}.cls-29{letter-spacing:0em;}.cls-30,.cls-31{stroke-width:3.85px;}.cls-32,.cls-33{stroke-width:0.5px;stroke-dasharray:0.92 0.74;}</style></defs><g id="GUIAS"><text class="cls-1" transform="translate(508.8 48.15)"><tspan class="cls-2">T</tspan><tspan x="4.29" y="0">ala ilegal de bosques </tspan><tspan x="-12.11" y="10.8">se </tspan><tspan class="cls-3" x="-2.34" y="10.8">c</tspan><tspan class="cls-4" x="1.75" y="10.8" xml:space="preserve">omienza  a </tspan><tspan class="cls-3" x="40.22" y="10.8">c</tspan><tspan x="44.31" y="10.8">onside</tspan><tspan class="cls-3" x="67.09" y="10.8">r</tspan><tspan x="69.98" y="10.8">ar</tspan><tspan x="-40.3" y="21.6">un p</tspan><tspan class="cls-5" x="-25.56" y="21.6">r</tspan><tspan x="-22.69" y="21.6" xml:space="preserve">oblema  pa</tspan><tspan class="cls-3" x="14.59" y="21.6">r</tspan><tspan x="17.48" y="21.6">a la biodi</tspan><tspan class="cls-6" x="47.83" y="21.6">v</tspan><tspan x="51.47" y="21.6">e</tspan><tspan class="cls-7" x="55.66" y="21.6">r</tspan><tspan x="58.54" y="21.6">sidad</tspan></text><text class="cls-1" transform="translate(506.56 213.02)">Se <tspan class="cls-5" x="10.5" y="0">r</tspan><tspan x="13.37" y="0">epo</tspan><tspan class="cls-8" x="26.17" y="0">r</tspan><tspan x="29.14" y="0">tan in</tspan><tspan class="cls-3" x="48.38" y="0">c</tspan><tspan x="52.47" y="0">endios</tspan><tspan x="3.37" y="10.8">más f</tspan><tspan class="cls-5" x="22.44" y="10.8">r</tspan><tspan class="cls-4" x="25.31" y="10.8">ecuen</tspan><tspan class="cls-9" x="46.36" y="10.8">t</tspan><tspan x="49.08" y="10.8">emen</tspan><tspan class="cls-10" x="68.35" y="10.8">t</tspan><tspan class="cls-4" x="71.07" y="10.8">e</tspan></text><text class="cls-1" transform="translate(481.3 278.92)"><tspan class="cls-11">C</tspan><tspan x="4.65" y="0">omienzo de </tspan><tspan class="cls-12" x="45.89" y="0">c</tspan><tspan x="49.97" y="0">onstru</tspan><tspan class="cls-3" x="72.29" y="0">c</tspan><tspan x="76.38" y="0">ción de </tspan><tspan x="-11.47" y="10.8">caminos en habit</tspan><tspan class="cls-3" x="47.15" y="10.8">a</tspan><tspan x="51.23" y="10.8">t de Siamang y </tspan><tspan x="9.93" y="21.6">se ac</tspan><tspan class="cls-13" x="27.88" y="21.6">r</tspan><tspan x="30.75" y="21.6">e</tspan><tspan class="cls-3" x="34.94" y="21.6">c</tspan><tspan x="39.02" y="21.6">enta la agricultu</tspan><tspan class="cls-3" x="94.3" y="21.6">r</tspan><tspan x="97.19" y="21.6">a</tspan></text><text class="cls-1" transform="translate(536.34 336.35)">Plantaciones<tspan x="-43.48" y="10.8">de c</tspan><tspan class="cls-3" x="-29.11" y="10.8">a</tspan><tspan class="cls-14" x="-25.03" y="10.8">fé se ha</tspan><tspan class="cls-3" x="1.91" y="10.8">c</tspan><tspan x="5.99" y="10.8">en masi</tspan><tspan class="cls-15" x="32.72" y="10.8">v</tspan><tspan x="36.4" y="10.8">as</tspan></text><text class="cls-1" transform="translate(670.89 586.66)">24 de o<tspan class="cls-3" x="24.61" y="0">c</tspan><tspan x="28.7" y="0">tub</tspan><tspan class="cls-13" x="40.07" y="0">r</tspan><tspan class="cls-16" x="42.94" y="0">e</tspan><tspan x="47" y="0">, día </tspan><tspan x="0" y="10.8">in</tspan><tspan class="cls-10" x="6.26" y="10.8">t</tspan><tspan x="8.98" y="10.8">ernacional del </tspan><tspan x="0" y="21.6">Gibón por la UICN</tspan></text><text class="cls-1" transform="translate(668.95 282.6)">Se p<tspan class="cls-13" x="14.86" y="0">r</tspan><tspan x="17.73" y="0">ohíbe el </tspan><tspan class="cls-3" x="46.14" y="0">c</tspan><tspan x="50.22" y="0">ome</tspan><tspan class="cls-5" x="65.27" y="0">r</tspan><tspan x="68.14" y="0">cio in</tspan><tspan class="cls-10" x="86.52" y="0">t</tspan><tspan x="89.24" y="0">ernacional </tspan><tspan x="0" y="10.8">de Siaman</tspan><tspan class="cls-17" x="35.84" y="10.8">g</tspan><tspan x="40.01" y="10.8">s por la </tspan><tspan class="cls-3" x="66.6" y="10.8">c</tspan><tspan x="70.69" y="10.8">o</tspan><tspan class="cls-17" x="74.95" y="10.8">n</tspan><tspan class="cls-6" x="79.21" y="10.8">v</tspan><tspan x="82.86" y="10.8">ención sob</tspan><tspan class="cls-5" x="120.1" y="10.8">r</tspan><tspan x="122.97" y="10.8">e </tspan><tspan x="0" y="21.6">el </tspan><tspan class="cls-11" x="7.79" y="21.6">C</tspan><tspan x="12.45" y="21.6">ome</tspan><tspan class="cls-13" x="27.49" y="21.6">r</tspan><tspan x="30.36" y="21.6">cio In</tspan><tspan class="cls-10" x="48.88" y="21.6">t</tspan><tspan x="51.6" y="21.6">ernacional de </tspan><tspan class="cls-17" x="0" y="32.4">E</tspan><tspan x="4.63" y="32.4">species Amenazadas (CITES)</tspan></text><text class="cls-1" transform="translate(670.89 478.04)">Se decla<tspan class="cls-3" x="28.97" y="0">r</tspan><tspan x="31.86" y="0">a </tspan><tspan class="cls-18" x="37.74" y="0">en pelig</tspan><tspan class="cls-19" x="65.34" y="0">r</tspan><tspan class="cls-18" x="68.32" y="0">o de </tspan><tspan class="cls-20" x="85.03" y="0">e</tspan><tspan class="cls-18" x="89.25" y="0">xtinción </tspan><tspan x="119.55" y="0">por </tspan><tspan x="0" y="10.8">la Unión In</tspan><tspan class="cls-10" x="35.8" y="10.8">t</tspan><tspan x="38.52" y="10.8">ernacional de </tspan><tspan class="cls-11" x="86.57" y="10.8">C</tspan><tspan x="91.23" y="10.8">onse</tspan><tspan class="cls-21" x="107.76" y="10.8">r</tspan><tspan class="cls-15" x="110.87" y="10.8">v</tspan><tspan x="114.55" y="10.8">ación</tspan><tspan x="0" y="21.6">de la N</tspan><tspan class="cls-3" x="23.22" y="21.6">a</tspan><tspan x="27.3" y="21.6">tu</tspan><tspan class="cls-3" x="34.37" y="21.6">r</tspan><tspan x="37.26" y="21.6">aleza (UICN)</tspan></text><text class="cls-1" transform="translate(670.89 637.58)">La Unión Eu<tspan class="cls-13" x="40.84" y="0">r</tspan><tspan x="43.71" y="0">opea endu</tspan><tspan class="cls-5" x="79.46" y="0">r</tspan><tspan x="82.33" y="0">e</tspan><tspan class="cls-3" x="86.51" y="0">c</tspan><tspan x="90.6" y="0">e las </tspan><tspan class="cls-13" x="0" y="10.8">r</tspan><tspan x="2.87" y="10.8">egulaciones a las industrias del </tspan><tspan x="0" y="21.6">a</tspan><tspan class="cls-3" x="4.09" y="21.6">c</tspan><tspan x="8.17" y="21.6">ei</tspan><tspan class="cls-10" x="14.32" y="21.6">t</tspan><tspan x="17.04" y="21.6">e de </tspan><tspan x="0" y="32.4">palma en Indonesia y Malasia</tspan></text><text class="cls-1" transform="translate(533.12 376.65)">Ext<tspan class="cls-3" x="11.15" y="0">r</tspan><tspan x="14.04" y="0">a</tspan><tspan class="cls-3" x="18.13" y="0">c</tspan><tspan x="22.21" y="0">ción de</tspan><tspan x="-7.14" y="10.8">a</tspan><tspan class="cls-3" x="-3.05" y="10.8">c</tspan><tspan x="1.04" y="10.8">ei</tspan><tspan class="cls-10" x="7.18" y="10.8">t</tspan><tspan x="9.9" y="10.8">e de palma </tspan><tspan x="-9.85" y="21.6">ac</tspan><tspan class="cls-13" x="-1.67" y="21.6">r</tspan><tspan x="1.21" y="21.6">e</tspan><tspan class="cls-3" x="5.39" y="21.6">c</tspan><tspan x="9.48" y="21.6">enta la tala</tspan><tspan x="-18.75" y="32.4">de bosques n</tspan><tspan class="cls-3" x="26.58" y="32.4">a</tspan><tspan x="30.66" y="32.4">ti</tspan><tspan class="cls-6" x="35.41" y="32.4">v</tspan><tspan x="39.06" y="32.4">os</tspan></text><line class="cls-22" x1="638.08" y1="307.32" x2="638.08" y2="696.55"/><polygon class="cls-23" points="629.13 693.93 638.08 709.42 647.02 693.93 629.13 693.93"/><text class="cls-24" transform="translate(590.34 68.83)">1980</text><text class="cls-24" transform="translate(585.12 300.23)">1995</text><text class="cls-24" transform="translate(585.35 347.4)">1998</text><text class="cls-24" transform="translate(650.57 499.51)">2008</text><text class="cls-24" transform="translate(608.55 722.48)">A la <tspan class="cls-25" x="14.14" y="0">f</tspan><tspan x="16.82" y="0">echa</tspan></text><text class="cls-24" transform="translate(584.89 223.94)">1990</text><line class="cls-26" x1="613.43" y1="60.58" x2="613.43" y2="696.55"/><polygon class="cls-27" points="604.48 693.93 613.43 709.42 622.37 693.93 604.48 693.93"/><text class="cls-24" transform="translate(650.34 607.69)"><tspan xml:space="preserve"> 2</tspan><tspan class="cls-28" x="5.85" y="0">0</tspan><tspan class="cls-29" x="10.01" y="0">15</tspan></text><text class="cls-24" transform="translate(650.34 638.34)"><tspan xml:space="preserve"> 2</tspan><tspan class="cls-28" x="5.85" y="0">0</tspan><tspan class="cls-29" x="10.01" y="0">17</tspan></text><text class="cls-24" transform="translate(650.34 316)">1996</text><circle class="cls-30" cx="613.43" cy="65.93" r="5.35"/><circle class="cls-30" cx="613.43" cy="220.73" r="5.35"/><circle class="cls-30" cx="613.43" cy="297.48" r="5.35"/><circle class="cls-31" cx="638.08" cy="312.67" r="5.35"/><circle class="cls-31" cx="638.08" cy="496.72" r="5.35"/><circle class="cls-31" cx="638.08" cy="605.62" r="5.35"/><circle class="cls-31" cx="638.08" cy="636.45" r="5.35"/><circle class="cls-30" cx="613.43" cy="344.38" r="5.35"/><circle class="cls-30" cx="613.43" cy="405.54" r="5.35"/><line class="cls-32" x1="649.24" y1="312.84" x2="638.54" y2="312.84"/><text class="cls-24" transform="translate(585.58 408.18)">2002</text><line class="cls-33" x1="613.19" y1="405.54" x2="602.49" y2="405.54"/><line class="cls-32" x1="648.46" y1="605.62" x2="637.89" y2="605.62"/><line class="cls-32" x1="648.46" y1="496.72" x2="637.89" y2="496.72"/><line class="cls-32" x1="648.46" y1="636.45" x2="637.89" y2="636.45"/><line class="cls-33" x1="613.72" y1="297.48" x2="603.01" y2="297.48"/><line class="cls-33" x1="613.72" y1="344.38" x2="603.01" y2="344.38"/><line class="cls-33" x1="613.43" y1="220.73" x2="602.73" y2="220.73"/><line class="cls-33" x1="612.53" y1="65.93" x2="601.83" y2="65.93"/></g></svg>