<?xml version="1.0" encoding="utf-8"?>
<!-- Generator: Adobe Illustrator 26.0.1, SVG Export Plug-In . SVG Version: 6.00 Build 0)  -->
<svg version="1.1" id="Capa_1" xmlns="http://www.w3.org/2000/svg" xmlns:xlink="http://www.w3.org/1999/xlink" x="0px" y="0px"
	 viewBox="0 0 792 197.22" style="enable-background:new 0 0 792 197.22;" xml:space="preserve">
<style type="text/css">
	.st0{fill:none;stroke:#95C11F;stroke-width:7.8;stroke-miterlimit:10;}
	.st1{fill:#95C11F;}
	.st2{fill:#1E1E1C;}
	.st3{font-family:'BarlowSemiCondensed-Light';}
	.st4{font-size:7.5px;}
	.st5{fill:none;}
	.st6{font-family:'BarlowSemiCondensed-SemiBold';}
	.st7{font-size:8.5px;}
	.st8{fill:none;stroke:#006633;stroke-width:7.8;stroke-miterlimit:10;}
	.st9{fill:#006633;}
	.st10{font-family:'BarlowSemiCondensed-Medium';}
	.st11{fill:#95C11F;stroke:#006633;stroke-width:3.8464;stroke-miterlimit:10;}
	.st12{fill:#006633;stroke:#95C11F;stroke-width:3.8464;stroke-miterlimit:10;}
	.st13{fill:none;stroke:#006633;stroke-width:0.5;stroke-miterlimit:10;stroke-dasharray:0.9222,0.7378;}
	.st14{fill:none;stroke:#95C11F;stroke-width:0.5;stroke-miterlimit:10;stroke-dasharray:0.9222,0.7378;}
</style>
<g>
	<g>
		<line class="st0" x1="323.78" y1="91.94" x2="713.02" y2="91.94"/>
		<g>
			<polygon class="st1" points="710.4,100.89 725.89,91.95 710.4,83 			"/>
		</g>
	</g>
</g>
<g>
	<text transform="matrix(1 0 0 1 68.9398 146.0605)"><tspan x="0" y="0" class="st2 st3 st4">Tala ilegal</tspan><tspan x="-2.08" y="9" class="st2 st3 st4">de bosques</tspan></text>
</g>
<g>
	<text transform="matrix(1 0 0 1 223.714 146.0604)" class="st2 st3 st4">Incendios</text>
</g>
<g>
	<rect x="274.56" y="139.69" class="st5" width="68.07" height="25.88"/>
	<text transform="matrix(1 0 0 1 285.2539 146.0607)"><tspan x="0" y="0" class="st2 st3 st4">Construcción de </tspan><tspan x="-7.37" y="9" class="st2 st3 st4">caminos y agricultura</tspan></text>
</g>
<g>
	<text transform="matrix(1 0 0 1 343.2427 146.061)"><tspan x="0" y="0" class="st2 st3 st4">Plantaciones</tspan><tspan x="7.85" y="9" class="st2 st3 st4">de café</tspan></text>
</g>
<g>
	<text transform="matrix(1 0 0 1 75.0906 134.9205)" class="st2 st6 st7">1980</text>
</g>
<g>
	<text transform="matrix(1 0 0 1 306.4194 134.9886)" class="st2 st6 st7">1995</text>
</g>
<g>
	<text transform="matrix(1 0 0 1 353.6273 134.9199)" class="st2 st6 st7">1998</text>
</g>
<g>
	<text transform="matrix(1 0 0 1 504.6956 79.6861)" class="st2 st6 st7">2008</text>
</g>
<g>
	<text transform="matrix(1 0 0 1 691.5051 139.6859)" class="st2 st6 st7">A la fecha</text>
</g>
<g>
	<text transform="matrix(1 0 0 1 230.1478 134.92)" class="st2 st6 st7">1990</text>
</g>
<g>
	<g>
		<line class="st8" x1="77.04" y1="116.59" x2="713.02" y2="116.59"/>
		<g>
			<polygon class="st9" points="710.4,125.54 725.89,116.6 710.4,107.65 			"/>
		</g>
	</g>
</g>
<g>
	<rect x="559.06" y="44.33" class="st5" width="71.07" height="27.01"/>
	<text transform="matrix(1 0 0 1 579.2422 50.7088)"><tspan x="0" y="0" class="st2 st3 st4">24 de octubre, día </tspan><tspan x="-14.48" y="9" class="st2 st3 st4">internacional del Gibón </tspan><tspan x="19.09" y="18" class="st2 st3 st4">por la UICN</tspan></text>
</g>
<g>
	<rect x="183.58" y="44.92" class="st5" width="157.86" height="25.84"/>
	<text transform="matrix(1 0 0 1 187.8474 51.2907)"><tspan x="0" y="0" class="st2 st3 st4">Se prohíbe el comercio internacional de Siamangs por </tspan><tspan x="13.4" y="9" class="st2 st3 st4">la convención sobre el Comercio Internacional de </tspan><tspan x="68.06" y="18" class="st2 st3 st4">Especies Amenazadas (CITES)</tspan></text>
</g>
<g>
	<rect x="376.98" y="45.22" class="st5" width="146.22" height="27.11"/>
	<text transform="matrix(1 0 0 1 389.3521 51.5911)"><tspan x="0" y="0" class="st2 st3 st4">Se declara </tspan><tspan x="31.46" y="0" class="st2 st10 st4">en peligro de extinción </tspan><tspan x="99.75" y="0" class="st2 st3 st4">por la Unión </tspan><tspan x="47.32" y="9" class="st2 st3 st4">Internacional de Conservación</tspan><tspan x="68.92" y="18" class="st2 st3 st4">de la Naturaleza (UICN)</tspan></text>
</g>
<g>
	<rect x="643.54" y="35.07" class="st5" width="88.15" height="35.69"/>
	<text transform="matrix(1 0 0 1 643.5393 41.4414)"><tspan x="0" y="0" class="st2 st3 st4">La Unión Europea endurece </tspan><tspan x="0" y="9" class="st2 st3 st4">las regulaciones a las </tspan><tspan x="0" y="18" class="st2 st3 st4">industrias del aceite de </tspan><tspan x="0" y="27" class="st2 st3 st4">palma en Indonesia y Malasia</tspan></text>
</g>
<g>
	<text transform="matrix(1 0 0 1 612.9275 79.6866)" class="st2 st6 st7"> 2015</text>
</g>
<g>
	<text transform="matrix(1 0 0 1 645.4802 79.686)" class="st2 st6 st7"> 2017</text>
</g>
<g>
	<text transform="matrix(1 0 0 1 322.2551 79.686)" class="st2 st6 st7">1996</text>
</g>
<circle class="st11" cx="82.4" cy="116.59" r="5.35"/>
<circle class="st11" cx="237.2" cy="116.59" r="5.35"/>
<circle class="st11" cx="313.95" cy="116.59" r="5.35"/>
<circle class="st12" cx="329.14" cy="91.94" r="5.35"/>
<circle class="st12" cx="513.19" cy="91.94" r="5.35"/>
<circle class="st12" cx="622.08" cy="91.94" r="5.35"/>
<circle class="st12" cx="652.92" cy="91.94" r="5.35"/>
<circle class="st11" cx="360.85" cy="116.59" r="5.35"/>
<circle class="st11" cx="422.01" cy="116.59" r="5.35"/>
<line class="st13" x1="329.3" y1="80.78" x2="329.3" y2="91.48"/>
<g>
	<rect x="397.75" y="139.69" class="st5" width="48.52" height="16.93"/>
	<text transform="matrix(1 0 0 1 402.3738 146.0607)"><tspan x="0" y="0" class="st2 st3 st4">Extracción de</tspan><tspan x="-3" y="9" class="st2 st3 st4">aceite de palma</tspan></text>
</g>
<g>
	<text transform="matrix(1 0 0 1 414.9722 134.9197)" class="st2 st6 st7">2002</text>
</g>
<line class="st14" x1="422.01" y1="116.83" x2="422.01" y2="127.54"/>
<line class="st13" x1="622.08" y1="81.56" x2="622.08" y2="92.13"/>
<line class="st13" x1="513.19" y1="81.56" x2="513.19" y2="92.13"/>
<line class="st13" x1="652.92" y1="81.56" x2="652.92" y2="92.13"/>
<line class="st14" x1="313.95" y1="116.31" x2="313.95" y2="127.01"/>
<line class="st14" x1="360.85" y1="116.31" x2="360.85" y2="127.01"/>
<line class="st14" x1="237.2" y1="116.59" x2="237.2" y2="127.3"/>
<line class="st14" x1="82.4" y1="117.49" x2="82.4" y2="128.19"/>
</svg>
