<svg id="mapa_completo" data-name="mapa completo" xmlns="http://www.w3.org/2000/svg" xmlns:xlink="http://www.w3.org/1999/xlink" viewBox="0 0 814 261.76"><defs><style>.cls-1{fill:none;}.cls-2{clip-path:url(#clip-path);}.cls-3,.cls-5{fill:#dedddd;}.cls-4,.cls-5{opacity:0.8;}.cls-6{font-size:88.7px;fill:#063;font-family:BarlowSemiCondensed-SemiBold, Barlow Semi Condensed;font-weight:600;}.cls-7{letter-spacing:0.01em;}.cls-8{letter-spacing:-0.04em;}.cls-9{letter-spacing:-0.02em;}.cls-10{letter-spacing:0em;}.cls-11{fill:#95c11f;}.cls-12{font-size:18.28px;fill:#1d1d1b;font-family:BarlowSemiCondensed-Regular, Barlow Semi Condensed;}.cls-13{letter-spacing:0.01em;}.cls-14{letter-spacing:0.04em;}.cls-15{letter-spacing:-0.03em;}.cls-16{letter-spacing:-0.05em;}.cls-17{letter-spacing:0.04em;}.cls-18{letter-spacing:-0.01em;}.cls-19{letter-spacing:0em;}.cls-20{fill:#1e1e1c;}</style><clipPath id="clip-path"><rect class="cls-1" x="245.12" y="-0.95" width="276.83" height="263.67"/></clipPath></defs><g id="zoom_mapa" data-name="zoom mapa"><g class="cls-2"><path class="cls-3" d="M183.26,82.13l-1.34,9.24-3.71,2.52-7.71,2-4.21-7-1.57-12.76,4-14.46,6.12,4.95L179,72.88Z"/><path class="cls-3" d="M565.83,227.11l1-2.1,7.63-2,6.18-.3,2.77-1.11,3.35,1.1-3.26,2.41-9.23,3.9-7.42,2.57-.16-2.71Z"/><g class="cls-4"><path class="cls-3" d="M354.14,93.82l.7,4.54,5.85-1,2.89-3.64,2,.83,5.23,5.34,3.72,5.92.51,5.94-.94,4,.86,3,.64,5.21,3.12,2.43,3.49,7.79-.17,3-6.28.58-8.38-6.52-10.48-7-1-4.49-5.12-5.89-1.23-7.31-3.19-4.82,1-6.44-1.95-3.75L346.92,90Zm155.43,15.26-6.53,3-7.68-1.49H485.18l-3.07,10-3.41,3.07-4.55,12.24-7.22,1.88-8.38-2.47-4.25.77-5.17,4.45-5.65-.63-5.72,1.79-6.06-5-1.48-5.88,6.5,3,6.84-1.65,1.79-7.45,3.77-1.67,10.62-1.91,6.36-7,4.35-5.58,4,4.57,1.86-3,4.23.29.52-5.64.4-4.36,6.82-6.15,4.47-6.92,3.58,0,4.55,4.48.4,3.85,5.84,2.47,7.39,2.66-.63,3.46-5.94.44Z"/></g><path class="cls-3" d="M415.94-45.84l-11.83,8.08-7.39,8.87-1.94,6.48,6.77,9.79,8.29,12,8,5.67,5.38,7.35,4.06,16.82-1.2,15.86L418.74,51l-10.15,5.77-7.23,7.45-11,8.3-3.22-5.71,2.49-6L383,55.72l7.67-3.61,9.3-.65L396.09,46,411,39.1l1.09-10.83-2.05-6,1.61-9.1L409.4,6.67,402.7.29l-5.59-8.11-7.36-10.95-10.62-5.57,2.55-3.36,5.66-2.45-3.44-8.19L373-38.41,369-47l-5.18-7.51,4.76-2.32,7.06,0,8.61-1.1,7.56-5.1,4.27,3.59,8.1,1.75-1.4,5.49L407-48.29Z"/><g class="cls-4"><path class="cls-3" d="M528.15,239.13l-3.73.17L512.66,233l8.26-1.75,4.66,2.72,3.1,2.71Zm33-.89-7.59,2-1.06-1.07.8-3,3.81-5.45,8.76-3.54.89,1.76.17,2.7ZM503.2,220l3.2,2.37,5.47-.73,2.19,3.79-10.24,1.78-6.13,1.2-4.76-.07,3-5.13,4.86-.07Zm44.33,0-1.3,4.94-13.31,2.53-11.78-1.1,0-3.26,7-1.85,5.55,2.67,5.89-.68ZM421,208.32l17,.88,1.95-3.65,16.43,4.26,3.23,5.75,13.29,1.63,10.87,5.28-10.11,3.39-9.74-3.59-8,.25-9.2-.66-8.29-1.6-10.26-3.39-6.51-.88L418,217.1l-16.16-3.65-1.53-3.82-8.11-.65,6.08-8.46L409,201l7.15,3.46,3.67.68Zm231.25-5-4.55,6-.87-6.66,1.58-3.18,1.85-3,2,2.58ZM586,179l-3.31,2.93-6.13-1.62-1.72-3.79,9-.43Zm28.55-3.22,3.22,6.75-7.48-3.64-7.4-.73-5,.58-6.13-.31,2.1-4.85,10.94-.37Zm32.53-17.1,2.48,14.24,9.16,5.27,7.41-9.34,10.17-5.32h7.87l7.58,3.07,6.57,3.15,9.51,1.68.15,28.77.15,28.93-7.89-7.31-9-1.79-2.18,2.54-11.23.27,3.76-7.23,5.58-2.47-2.31-9.64-4.25-7.42-17.18-7.48-7.3-.74-13.31-8.15L640.24,184l-3.4.78-2-3.24,0-3.83L628,173.36l9.54-3.17,6.32.17-.74-2.34h-13l-3.51-5.24-7.91-1.63L615,156.79,627,154.66l4.54-2.87,14.22,3.61ZM568.24,136l-7.12,8.73-6.66,1.69-8.53-1.72-14.76.44-7.74,1.27-1.26,6.66,7.93,7.83,4.79-4,16.52-3-.73,4.06-3.86-1.28L543,161.88l-7.79,3.42,8.38,11.29-1.62,3,8,10.19-.07,5.8-4.73,2.6-3.48-3.11,4.28-7.23-8.69,3.42-2.2-2.44,1.14-3.41-6.38-5.18.65-8.59-5.91,2.68.75,10.28.36,12.64L520,198.54,516.2,196l2.54-8.13-1.37-8.52-3.73-.06-2.75-6,3.66-5.77,1.26-7,4.45-13.27,1.86-3.62,7.54-6.54,6.91,2.6,11.17,1.22,10.19-.37,8.76-6.39Zm30.54,2.53-.46,7.69-4.57-.86-1.35,5.35,3.65,4.65-2.48,1L590,150.88l-2.64-11.25,1.79-7,2.93-3.2.64,4.81L598,135ZM503,132.44l9.93,8.15-10.5,1-2.95,6,.38,8-8.52,6-.23,8.77-3.42,13.48-1.3-3.14-10.07,4-3.51-5.39-6.31-.5L462.07,176l-10.53,3.17-3.23-4.26-5.81.48-7.3-1-1.36-11.81-4.42-2.45-4.25-7.53-1.24-7.7,1-8.16,5.27-5.85,1.48,5.89,6.06,5,5.71-1.79,5.66.64,5.16-4.46,4.25-.77,8.38,2.47,7.23-1.88,4.54-12.24,3.41-3.07,3.07-10h10.19l7.68,1.49-5,8,6.51,8.34ZM396.16,200.13l-9.81.18-7.46-7.39-11.38-7.21-3.79-5.35L357,173.18l-4.4-6.6-6.74-12.32-7.78-7.33-2.6-7.57-3.27-6.87-8-5.55-4.63-7.54-6.67-4.94-9.24-9.72-.78-4.5,5.71.35,13.71,1.71,7.84,8.64,6.85,6,4.88,3.67,8.4,9.47,9,.14,7.44,6,5.13,7.37,6.74,4-3.55,7.18,5.08,3.06,3.18.22,1.5,6.14,3.09,4.92,6.51.78,4.31,5.57-2.23,11Z"/></g><path class="cls-3" d="M390.85,21.58l2.88-4.09.4-7.72-7.17-8L386.4-7.3l-6.74-7.52L373-15.45l-1.79,3.22L366-12l-2.65-1.63L354-8.08l-.21-8.29L356-26.18l-6-.43-.5-5.63-3.84-2.89,1.89-3.47,7.54-6.14.79,2.22,4.73.26-1.34-10.85,4.59-1.4L369-47l4,8.59,10.9.07,3.44,8.19-5.66,2.45-2.55,3.36,10.62,5.57,7.36,11L402.7.29l6.7,6.38,2.23,6.46L410,22.23l-7.85-3.35-4,6.26Z"/><path class="cls-3" d="M839.69,208.69l-2.48.89-3.83-3.4-3.88-5.62-1.91-6.74,1.23-.85.95,2.63,2.68,2,4.3,5.61,4.18,3Zm-34.52-11.87-4.64.72-1.4,2.48-4.84,2.16-4.55,2.07H785l-7.26-2.57-5.06-2.47.73-2.74,7.94,1.3,4.85-.7,1.34-4.23,1.27-.22.86,4.69,5-.68,2.5-3,5-3.15-1-5.2,5.31-.17,1.79,1.45-.18,4.9Zm-42.45,16.91,7.91,5.83,5.75,9.44,5.08-.3-.36,4,6.84,1.52-2.66,1.68,9.42,3.76-1,2.59-5.86.63-2.18-2.32-7.61-1-8.95-1.34-6.89-5.7-5-4.91-4.6-7.79L741,215.88l-7.5,2.53-5.41,2.94,1.12,6.57-7,3.06-5-1.49-9.16-.37L708,200.18l-.15-28.76,15.37,6.07,16.38,5,6.11,4.52,4.93,4.44L752,196.7l14.76,5.46,2.16,4.7-8.15.95Zm52.7-25.56-2.77,2.36L811,185.32l-2.06-3.41-4-2.89-5-3.76-6.39-2.59,2.46-2.13,4.78,2.47,3,1.93,3.73,2.12,3.54,3.7,3.37,2.83Z"/><path class="cls-3" d="M470.46,108.66l3.5-3.3,7.54-4.85-.4,4.36-.51,5.64-4.24-.28-1.86,3Z"/><path class="cls-3" d="M375.6,54.41,372,49.74l-4.49-9.28-2.09-10.91L371.09,22l11.46-1.74,8.3,1.3,7.31,3.56,4-6.26L410,22.23l2.05,6L411,39.1,396.09,46,400,51.46l-9.3.65L383,55.72Z"/><path class="cls-3" d="M746.83,542.8l8.56,4,4.82-1.61,6.91-2.24,5.32.78.63,14-3,4.11-.91,9.68-3.1-3.31-6.15,8.46L758,576l-5.45-.38-5.46-10.35-1.22-7.89-5.11-10.28.23-5.36ZM730.56,270.86l3.19,7.12,5.68-3.43,2.94,3.85,4.25,3.56-.91,4,1.89,7.85,1.35,4.59,2.23,1.12,2.4,7.88-.85,4.81,2.87,6.3,9.6,4.87,6.25,4.45L777.4,332l-1.16,2.28,5.07,5.91,3.44,10.27,3.54-2.09,3.59,4.13,2.17-1.47,1.52,10.14,6.29,5.91,4.11,3.69,6.92,7.86,2.49,7.86.23,5.6-.61,6.12,4.22,8.46-.5,8.88-1.53,4.68-2.4,9.07.18,5.87-1.75,7.4L809.31,452l-6.56,5.16-3.24,8.18-3,5.27-2.63,9.26-3.42,5.39-2.24,8.17L787.13,501l.45,3.51-5.08,3.86-9.92.41-8.17,4.59-4.07,4.36L755,522.59l-7.33-5-5.43-2,1.38-5.84-4.85,2.11L731,520,723.34,517l-5-1.79-5.07-.8-8.57-3.24-5.73-6.88-1.65-8.39-2.06-5.53-4.35-4.42-8.52-1.31,2.91-5.25-2.14-8-4.33,7.43-7.88,2,4.63-6,1.34-6.17,3.43-5.2-.71-7.82-7.21,9-5.53,3.63-3.4,8.51-6.92-4.41.28-5.66-5.54-7.68-4.68-3.94,1.67-2.42-11.37-6.32-6.23-.3-8.52-5-15.86,1-11.48,3.72-10.08,3.47-8.45-.69-9.39,5.36-7.69,2.42-1.7,5.53-3.27,4.31-7.52.26-5.57.94-7.83-1.94L527,466.54l-6.09.49-5.27,5.69-2.58-.48-4.44,3-4.26,3.42-6.47-.43h-5.93l-9.4-6.85-4.77-2,.2-6.09,4.4-1.44,1.5-2.4-.31-3.78,1.08-7.28-1-6.15-4.68-10.41L477.49,426l.38-5.78-3.53-6.57-.22-2.95-3.93-4-1.1-7.8L464,391.08l-1.22-4.19,3.89,4.25-3-9.1,4.39,2.84,2.62,3.8-.14-5L466.18,376l-.85-3.06-2.05-2.9,1-5.58,1.81-2.37,1.21-4.8-.94-5.59,3.66-6.84.66,7.24,3.75-6.54,7.2-3.17,4.31-4,6.78-3.46,4-.73,2.44,1.16,7-3.51,5.38-1,1.34-2.06,2.34-.85,4.9.22,9.31-2.74,4.82-4.15,2.26-5,5.2-4.71.4-3.69.23-5,6.2-7.82,3.73,7.94,3.77-1.83-3.16-4.35,2.79-4.45,3.9,2,1.08-7,4.84-4.49,2.14-3.6,4.45-1.55.14-2.54,3.89,1.06.16-2.28,3.89-1.3,4.29-1.23,6.54,4.17,4.92,5.39,5.54.06,5.64.86-1.88-5,4.24-7.28,4-2.37L612,264.93l3.84-5.15,5.37-3.18,4.53,1.07,7.45-1.7-.17-4.6-6.49-3,4.72-1.31,5.87,2.23,4.7,3.68,7.46,2.31,2.54-.91,5.49,2.76,5.17-2.57,3.33.78,2.08-1.73,4.06,4.46L669.62,263l-3.36,3.65-3,.3,1,3.62-2.6,4.53-3.15,4.47.64,2.57,7,5.05,6.82,2.93,4.56,3.16,6.41,5.44h2.5l4.63,2.36,1.35,2.84L700.9,307l5.85-3.16,1.74-4.95,1.79-4.07,1.1-5,2.7-7.26-1.23-4.41.63-2.64-1-5.19,1.16-6.82,1.7-1.84-1.38-3,2.14-4.77,1.68-4.94.22-2.56,3.3-3.36,2.5,4.39.61,5.63,2.21,1.09.37,3.78,3.23,4.59.66,5.12Z"/><path class="cls-3" d="M148.26-186.25l9.52,12.61-.89,8.66,3.52,5.4-.29,5.35-6.36-1.4,2.48,11.47,8.71,6.52,12.31,7.16-5.62,4.62-3.44,9.45,8.58,3.8,8.36,4.9,11.55,5.58,12.15,1.29,5.11,5,6.84.94,10.66,2.29,7.38-.16,1-3.9-1.16-6.29.68-4.29,5.41-2.1.74,7.84.19,2,8.05,3.75,5.57-1.55,7.48.67,7.23-.3.62-6.08L271-106.18l7.15-1.24,8.07-7.45,10.21-6.41,7.43,2.48,6.32-4.25,4.15,6.27-3,4.22,9.55,1.49.67,3.79-3.11,1.83.73,6.1-6.33-1.79-11.47,6.83.27,5.63-4.89,8.19-.45,4.74-4,8L285.48-70,285.13-60l-2,3.26.94,4.05-4.37,2.25L275-65.64l-2.45,0-1.44,6.13-4.85-5L269-69.92l4-.56,4.09-8.2L272-80.34l-8.22.14-8.43-1.33-.78-6.8-4.23-.48-7-4.24-3.13,6.65,6.4,5.17L241-77.61l-2,3.54,5.46,2.59L243-65.67l3.07,7.21,1.38,7.85-1.27,3.46-6-.11-10.92,2,.51,7.1L225-32.63l-12.75,6.3-9.92,10.95-6.66,5.84-8.83,6V.73L182.42,3l-8,3.28-4.14.49-2.66,7,1.84,11.82.48,7.51-3.76,8.57,0,15.25-4.58.43-4,6.82,2.7,2.94-8.08,2.52-3,6.06-3.56,2.55-8.39-8.3-4.1-12.51-3.4-9-3.1-4.26-4.71-8.65-2.2-11.32-1.53-5.67L110.13,5.92l-3.67-17.84-2.65-11.89,0-11.34L102.13-44l-12.9,5.65L83-39.46,71.42-50.93l4.25-3.44-2.61-3.75L62.67-66.26l5.9-6.43,19.49,0L86.3-81l-5-5-1-7.55-5.8-4.43,9.76-10.41,10.29.75,9.27-10.51,5.55-10.27,8.6-10.26-.13-7.36,7.55-6-7.15-5.17-3.08-7.12L112-173.6l4.35-4.61,13.44,2.61,9.87-1.59Z"/><path class="cls-3" d="M340.56-33,335.4-28.9l-6.26.42-4,10.08-3.74,1.69,4.29,8.12,5.62,6.74L334.9,4.2l-3.25,8-3.06,1.68,2.12,4.57,5.91,7.22,1,5.06-.14,4.19L341,43.1l-4.87,8.37-4.29,9.2L331,54l2.72-6.87-3-5.32.72-9.83-3.6-4.69-2.89-10.87-1.6-11.54L319.49-2.7l-5.83,4.61L303.58,8.45l-5-.82-5.49-2.14L296.18-5.9l-1.85-8.66-6.94-10.73,1.08-3.36-5.18-1.2L277-37.51l-.58-7.6,3.09,1.43.19-6.8,4.37-2.25-.94-4.05,2-3.26.35-9.94,6.92,2.2,4-8,.45-4.74,4.89-8.19-.27-5.63,11.47-6.83,6.33,1.79-.73-6.1,3.11-1.83-.67-3.79,5.18-.74,3,5.88,3.86,2.37L333.2-96l-.36,8.11-8.38,8.15-1.07,11.49,9.35-1.61L334.86-61l5.61,1.85-2.58,7.92,6.58,3.57,3.83,1.74,6.5-2.76.27,3.92-7.54,6.14-1.89,3.47Z"/><polygon class="cls-5" points="367.75 40.61 359.8 36.48 352.22 36.64 353.52 29.54 345.71 29.6 345.01 39.53 340.23 52.66 337.35 60.56 337.96 67.02 343.73 67.3 347.32 75.43 348.92 83.12 353.86 88.2 359.23 89.23 363.82 93.83 360.93 97.46 355.07 98.52 354.38 93.98 347.15 90.1 345.61 91.68 342.11 88.28 340.59 83.88 335.89 78.87 331.59 74.65 330.14 79.88 328.46 74.94 329.43 69.39 332.04 60.83 336.33 51.63 341.19 43.26 337.73 35.04 337.87 30.84 336.85 25.79 330.94 18.57 328.83 14 331.89 12.32 335.13 4.36 331.5 -1.7 325.88 -8.43 321.6 -16.55 325.34 -18.24 329.38 -28.32 335.63 -28.74 340.8 -32.81 345.88 -34.98 349.71 -32.08 350.22 -26.45 356.2 -26.02 354.03 -16.22 354.24 -7.92 363.57 -13.44 366.23 -11.8 371.42 -12.07 373.2 -15.29 379.9 -14.66 386.64 -7.14 387.19 1.94 394.37 9.93 393.97 17.64 391.09 21.74 382.78 20.44 371.33 22.18 365.65 29.71 367.75 40.61"/><path class="cls-3" d="M578.3,74.21l.9,5.9.53,5-3,8.11-3.24-9-4.14,4.5,2.83,6.52-2.54,4.15L559.19,94.2l-2.49-6.41,2.7-4.21-5.61-4.2L551,83.06l-4.17-.34-6.56,5-1.46-2.6,3.48-7.48,5.58-2.51,4.83-3.35,3.13,4,6.74-2.44,1.44-4,6.26-.24-.52-6.9,7.18,4.24.74,4.48ZM557.09,57.58l-3.18,2.94-2.78,5.64-2.78,2.64-5.46-6.17,1.83-2.39,2.22-2.51,1-5.55,4.88-.53-1.42,6L557.94,49Zm-48.53,8.6-11.79,8.45,4.35-6.23,6.39-5.51,5.33-6.18,4.64-8.9,1.58,7.31L513.21,60Zm29.93-23.07,5.32,2.78h5.64l-.17,3.75-4.1,3.81-5.63,2.69L539.24,52l.62-4.58Zm32.07-2.44,2.49,10-6.84-2.38.19,3,2.17,5.53-4.22,2L564,52.57l-2.67-.46-1.39-5.44,5.21.72L565,44l-5.42-6.88,8.51.2Zm-35.22-8.18L533,40.28l-3.79-4.49-4.53-6.89,7.59.34Zm-1.83-49.75L539-14.61,541.71-17l.8,2.36-1.44,3.83,3,6.62-2.34,7.64-5.22,3-1.39,7.36,2,7.25,4.69,1L545.74,21l11.07,5L556,31l2.9,2.17-.93,4.16L551,32.87l-3.27-4.75-2.29,3.32L539.83,26l-8,1.34-4.42-2,.46-3.75,2.76-2.31L528,17.19l-1.14,3.28-4.38-5.23-1.32-4-.33-8.76,3.56,3,.92-14.4,2.89-8.39Z"/><text class="cls-6" transform="translate(742.9 -1.48)">OC<tspan class="cls-7" x="95.53" y="0">E</tspan><tspan x="141.82" y="0">ANO </tspan><tspan class="cls-8" x="309.9" y="0">P</tspan><tspan class="cls-9" x="353.18" y="0">A</tspan><tspan class="cls-10" x="401.88" y="0">CÍFICO</tspan></text><polygon class="cls-5" points="354.38 93.98 355.07 98.52 360.69 97.31 363.58 93.67 365.62 94.5 370.85 99.84 374.57 105.76 375.08 111.7 374.14 115.72 375 118.75 375.64 123.96 378.76 126.39 382.25 134.18 382.08 137.16 375.8 137.74 367.42 131.22 356.94 124.23 355.9 119.74 350.78 113.85 349.55 106.54 346.36 101.72 347.33 95.28 345.38 91.53 346.92 89.95 354.38 93.98"/><polygon class="cls-11" points="354.12 96.56 354.62 100.95 360.16 99.32 362.18 96.49 363.6 97.13 367.25 101.3 369.85 105.92 370.2 110.56 369.55 113.69 370.14 116.06 370.6 120.13 372.77 122.02 369.28 125.5 357.54 120.34 356.82 116.83 353.25 112.23 352.39 106.53 350.16 102.77 350.84 97.74 349.48 94.81 350.55 93.58 354.12 96.56"/><polygon class="cls-11" points="396.15 200.13 386.35 200.31 378.89 192.92 367.51 185.71 363.72 180.36 357.01 173.19 352.61 166.58 345.87 154.26 338.09 146.93 335.49 139.36 332.22 132.49 324.23 126.94 319.6 119.4 312.93 114.46 303.69 104.74 302.91 100.24 308.62 100.59 336.74 127.72 345.38 143.96 361.1 166.31 376.7 179.22 380.55 183.28 387.38 182.64 396.51 186.46 396.15 200.13"/></g><text class="cls-12" transform="translate(381.79 121.59)"><tspan class="cls-13">M</tspan><tspan x="11.37" y="0">A</tspan><tspan class="cls-14" x="21.07" y="0">L</tspan><tspan class="cls-15" x="30.67" y="0">A</tspan><tspan x="39.86" y="0">SIA</tspan></text><text class="cls-12" transform="translate(362.07 89.27)"><tspan class="cls-16">T</tspan><tspan x="8.24" y="0">AI</tspan><tspan class="cls-17" x="22.28" y="0">L</tspan><tspan x="31.87" y="0">A</tspan><tspan class="cls-18" x="41.58" y="0">N</tspan><tspan x="52.1" y="0">DIA</tspan></text><text class="cls-12" transform="translate(277.58 189.43)">I<tspan class="cls-18" x="4.33" y="0">N</tspan><tspan class="cls-19" x="14.86" y="0">D</tspan><tspan x="24.75" y="0">O</tspan><tspan class="cls-18" x="34.6" y="0">N</tspan><tspan x="45.12" y="0">ESIA</tspan></text><polygon class="cls-11" points="357.85 90.27 361.9 93.7 359.42 97.17 355.46 97.42 354.31 92.95 351.06 91.59 354.12 89.27 357.85 90.27"/><polygon class="cls-20" points="265.71 15 256.25 36.48 265.71 32.19 273.04 36.48 265.71 15"/><text class="cls-12" transform="translate(260.39 54.2)">N</text></g></svg>