<svg id="mapa_completo" data-name="mapa completo" xmlns="http://www.w3.org/2000/svg" xmlns:xlink="http://www.w3.org/1999/xlink" viewBox="0 0 814 261.76"><defs><style>.cls-1,.cls-19{fill:none;}.cls-2{clip-path:url(#clip-path);}.cls-17,.cls-3,.cls-4{fill:#dedddd;}.cls-11,.cls-4{opacity:0.8;}.cls-5{font-size:88.7px;fill:#063;font-family:BarlowSemiCondensed-SemiBold, Barlow Semi Condensed;font-weight:600;}.cls-6{letter-spacing:0.01em;}.cls-7{letter-spacing:-0.04em;}.cls-8{letter-spacing:-0.02em;}.cls-9{letter-spacing:0em;}.cls-10{clip-path:url(#clip-path-2);}.cls-12{font-size:37.91px;fill:#1d1d1b;font-family:BarlowSemiCondensed-Regular, Barlow Semi Condensed;}.cls-13{letter-spacing:0em;}.cls-14{letter-spacing:-0.03em;}.cls-15{letter-spacing:0.01em;}.cls-16{letter-spacing:0em;}.cls-17{fill-opacity:0.8;}.cls-18{fill:#95c11f;}.cls-19{stroke:#1e1e1c;stroke-miterlimit:10;stroke-width:0.42px;}</style><clipPath id="clip-path"><rect class="cls-1" x="245.12" y="281.05" width="276.83" height="263.67"/></clipPath><clipPath id="clip-path-2"><rect class="cls-1" x="219.84" width="414.98" height="245.09"/></clipPath></defs><g id="zoom_mapa" data-name="zoom mapa"><g class="cls-2"><path class="cls-3" d="M279.7,231.52l-.19,6.8-3.09-1.43.58,7.6-2.53-4.92-.51-4.82-1.69-4.57-3.7-5.55-8.16-.38.8,3.93-2.78,5.29-3.77-1.92-1.28,1.72-2.51-1-3.43-.85-1.38-7.85L243,216.33l1.51-5.81L239,207.93l2-3.54,5.54-3.62-6.4-5.17,3.13-6.65,7,4.24,4.23.48.78,6.8,8.43,1.33,8.22-.14,5.11,1.66-4.09,8.2-4,.56-2.73,5.48,4.85,5,1.44-6.13,2.45,0Z"/><path class="cls-3" d="M87.35,18.89l2-5.25,5.83-1.7,14.58,4.14L111.12,9l5-2.51,12.61,5.09L132,10.23l14.69.33,13.15,1.26,4.44,4.31,5.46,1.75-1.24,2.7-14,6.42-3.16,4.67L140,33.06l-3.35,7.44L127.27,39l-6.13,2.26-8.46,5.46,1.23,2.68L111.38,52,94.63,53.7,83.69,50l-9.61.89.84-6.62,9.64,1.92,3.25-3.55,6.74,1.13,11.34-8.35-10.5-6.18-6.31,2.93-6.54-4.43L90,20.06Z"/><path class="cls-3" d="M537.56,209l-5.34,15.41-3.79,7.82-4.67-8-1-7.1,5.21-9.48,7.09-7.35,4.05,2.9Z"/><path class="cls-3" d="M595.78,61.27l7.65,13.22,2.19,7.17.07,12.59-3.34,6-8,2.07-7.08,4.44-8,.92-1-5.84,1.64-8.11L576,82.3l6.59-1.85L576.51,71l.56-1,3.95.4,3.46-5,6.26-.55,3.77-.74Z"/><path class="cls-3" d="M616.07,17.35l1.24,2.09L614,18.72l-3.85,4-2.64,4,.33,8.43-4.58,2.58-1.57,2-3.34,3.43-5.9,1.89-3.85,3.09-.28,5-1,1.26,3.53,1.85,5,5L594.51,64l-3.77.74-6.26.55-3.46,5-3.95-.4-.56,1-4.3-2.12-1.07,2.1-2.59.92-.32-2.1-2.29-1-2.38-1.79L566,62l2.09-1.32-.79-2.07,2.25-6.13L569,50.6l-5.17-1.25-4.18-3.08,7.22-7.42,9.76-6.27,6.09-8.35,4.2,3.7,7.66.43-1.38-6.24L606.83,17l3.52-6.73Z"/><path class="cls-3" d="M415.94,236.16l-11.83,8.08-7.39,8.87-1.94,6.48,6.77,9.79,8.29,12.05,8,5.67,5.38,7.35,4.06,16.82-1.2,15.86L418.74,333l-10.15,5.77-7.23,7.45-11,8.3-3.22-5.71,2.49-6.05L383,337.72l7.67-3.61,9.3-.65L396.09,328,411,321.1l1.09-10.83-2.05-6,1.61-9.1-2.23-6.46-6.7-6.38-5.59-8.11-7.36-10.95-10.62-5.57,2.55-3.36,5.66-2.45-3.44-8.19-10.9-.07L369,235l-5.18-7.51,4.76-2.32,7.06,0,8.61-1.1,7.56-5.1,4.27,3.59,8.1,1.75-1.4,5.49,4.22,3.87Z"/><path class="cls-3" d="M48,75.26l.24-6.82-11.78-4.8L27.17,58.1l-5.78-5.35L11.26,44.83l-4.36-12-3-2.13-9.58.54L-9,28.85l-1-9.45-11.93-6.33-7.47,7-7.56,4.09,1.45,5.94-10,.16-.35-44.64L-23-21.83l1.66,1.09,13.73,9L-.4-7.09,8.06,4,18.45,2.19l15.2-.95,10.6,8.87-.66,12,4.32.08,1.8,9.67L61,32.25l2.43,5.53,3.29-.08,3.88-8.37,11.69-8.24,5.08-2.2L90,20.06l-7.44,7.67,6.54,4.43,6.31-2.93,10.5,6.18L94.55,43.76l-6.74-1.13-3.66.3-1.27-3.22,1.85-5.4L72.88,37l-2.82,7.43L65.85,50.8l-7.39-.54-2.3,5L62.66,58l1.91,8.4-5,11.28-6.68-2.35Z"/><path class="cls-3" d="M1,94.06.17,84.88l-6.6-.4L-16.55,74.7l-7.08-1.21-9.8-5.66-6.3-1-3.89,2.08-5.92-.32-6.3,6.37-7.79,2.15-1.65-7.87L-64,57.43l-6.91-3.85,2.27-7.85-5.88-.67,2-9.78,8.36,2.86,7.78-3.73-6.45-7-2.54-6.78-7.13,3-.9,8.64-2.77-7.64,3.91-3.95,10.06-2.48,6,3.34L-50,30.8l4.54-.58,10-.16-1.45-5.94L-29.39,20l7.47-7L-10,19.4l1,9.45,3.39,2.41,9.58-.54,3,2.13,4.36,12,10.13,7.92,5.78,5.35,9.27,5.54,11.78,4.8L48,75.26l-2.67-.34-4.18-3-1.39,4L32.27,78l-1.77,8.8-5,3.33-7,1.64-1.85,4.92L10,98.17Z"/><path class="cls-3" d="M124.52,77.81,131.07,83l2.62,8.41,14.57,4.39-8.56,9.06-9.87,1.59-13.44-2.61L112,108.4l3.14,9.31,3.08,7.12,7.15,5.17-7.55,6,.13,7.36-8.6,10.26-5.55,10.27-9.27,10.51-10.29-.75-9.76,10.41,5.8,4.43,1,7.55,5,4.95,1.76,8.33-19.49,0-5.9,6.43-6.5-2.43-2.64-6.95L46.69,199l-16.33,1.84L16,201,3.49,202.33,6.83,191l12.78-5.08-.73-4.56-4.24-1.6L14.39,171l-8.47-4.41-3.57-6.08L-2,155.13l14.85,5.17,8.86-1.51L27,160.08l1.8-2.22,6.17.89,11.51-4.22.31-8.69L51.7,140h6.6l1-2.88L66,135.79l3.27,1,3.46-2.92-.48-6.26,3.76-6.33,5.64-2.66-3.48-7,8.42.34,2.44-3.84L88.7,104l4.41-4.52-1-5.39L90,89.44l5.17-4.77,9.51-2.31,10.17-1.28,4.5-2Z"/><path class="cls-3" d="M651.5,110.2l1.13,3.65-5,6.39L644,116.86l-4.54,2.45-2.35,6.15-5.78-3,.07-5,4.9-6.33,5,1.23L645,107.9Zm56.15-32.49-3.34,8.78L705.86,92l-4.62,7.64-11.32,5.06-15.57.66-12.63,12.14-6-4.07-.37-8L640,107.78l-10.48,5-10.37.2,9,7.79-5.91,17.72-5.73,4.34-4.28-4,2.17-9.36-5.6-3-3.6-7.21,8.37-3.25,4.65-6.68,8.91-5.53,6.5-7.37,17.63-3.24,9.48,2.22L670,75.9l5.9,5.28,13-11.09,5-4.36,5.57-13.85-1.52-13,3.75-7.37,9.41-2.16L716,45.54l-.26,9.29-8.2,11.38Zm26-81.94,6.23,2.62,6.26-5.22,2,13.74L735,10.22l-7.76,11.89L713.28,14l-4.82,13-9.85.17-1.22-11.82,4.38-9.28,9.47-.67,2.58-17,2.62-9.76,10.41,13Z"/><path class="cls-3" d="M-63.63,77.08l7.79-2.15,6.3-6.37,5.92.32,3.89-2.08,6.3,1,9.8,5.66,7.08,1.21,10.12,9.78,6.6.4L1,94.06l-3.61,13.42-2.43,7.74,3.85,1.57L-5,122.56l2.9,8.36.7,6.58,6.71,1.75L6,145.87l-8,9.26,4.38,5.33,3.57,6.08L14.39,171l.25,8.78,4.24,1.6.73,4.56L6.83,191,3.49,202.33l-16.67-2.94-9.66-2.24-10-1.27-3.79-12.06-4.24-1.76-6.8,1.77-8.94,4.78-10.83-3.27-8.94-7.62-8.53-2.83-5.92-9.5-6.53-13.51-4.77,1.66-5.63-3.38-3.31,4-4.9-5.37-.09-5.46h-2.83l1.45-7.47-4.56-7.91-10.85-5.75L-139,112.13l2-8.34,4.46-3.71-.67-6.32-5.81-3.27-5.74-13.1-4.84-8.91L-147.8,65l-2.76-13,6.06-3.26,1.41,4.31,4.47,5.25,6.08,1.51,3.21-.34,10.45-8.39,3.32-.85,2.62,3.36L-116,59.22l5.53,5.9,2.2-.56,2.8,8.26,8.41,2.31,6.15,5.55,12.6,1.9,13.83-2.92Z"/><path class="cls-3" d="M1,94.06l9,4.11,6.69-1.44,1.85-4.92,7-1.64,5-3.33L32.27,78l7.47-2.14,1.39-4,4.18,3,2.67.34,4.93.07,6.68,2.35L62.3,79l6.41-3.55,3,2.14,2.86-5.09,5.3.24,1.36-1.64.94-4.51L86,62.69l4.8,2.56-1,3.43,2.68.53-.82,9.34,3.5,3.62,3.09-2.32,3.93-1.1,5.52-5,6.1.82,9.14,0,1.58,3.18-5.16,1.24-4.5,2-10.17,1.28-9.51,2.31L90,89.44l2.09,4.61,1,5.39L88.7,104l.37,4.11-2.44,3.84-8.42-.34,3.48,7-5.64,2.66-3.76,6.33.48,6.26-3.46,2.92-3.27-1-6.77,1.36-1,2.88H51.7l-4.94,5.82-.31,8.69-11.51,4.22-6.17-.89L27,160.08l-5.29-1.29-8.86,1.51L-2,155.13l8-9.26-.73-6.62-6.71-1.75-.7-6.58L-5,122.56l3.79-5.77-3.85-1.57,2.43-7.74Z"/><path class="cls-3" d="M271,175.82l3.61,3.18-.62,6.08-7.23.3-7.48-.67-5.57,1.55-8.05-3.75-.19-2,5.86-7.4,4.79-2.54,6.33,2.32,4.68.24Z"/><path class="cls-3" d="M436.22,263.12l-7.66,4.46-7.26-2.87-.26-8,4.37-4.24,9.67-2.62,5.1.22,2,3.57-3.89,4.12ZM589.65-76.62l15.42,4.35,10.5,9.59,3.58,12.47,13.47,0,7.68-5.21,14.64-3.91-4.66,11.88-3.44,4.78-3,14.1-5.95,12.28L627.1-18.49l-7.61,4.43,2.33,10.6-1.27,14.39-4.53.33.06,6.09-5.73-7.09L606.83,17l-13.68,5.14,1.39,6.24-7.66-.43-4.21-3.71-6.09,8.36-9.76,6.27-7.22,7.41-12.38,3.34L540.7,55l-9.55,3.1,4.71-5.27L534,48.32l7-7.75-4.68-6.1-7.72,4.11-10,8L513.16,54l-8.69.55L500,59.86l4.67,7.61,7.25,1.84.3,5,7,3.24,9.93-7.94L537,74l5.73.29,1.43,5.81L531.6,83.12,527.46,89l-8.62,5.46-4.55,7.56,9.54,5.89,3.48,10.45L532.7,128l6,8-.14,7.66-5.57,2.8,2.12,5.45,5.22,3.16L539,163.34l-2.25,8-5,.89L525.32,183l-7.18,12.91-8.23,11.61-12.18,8.91-12.32,8.07-10,1.09L470,229.79l-3.06-3.1-5,4.74-12.38,4.75-9.37,1.45-3,10-4.91.55-2.32-6.84,2.1-3.65-11.89-3-4.19,1.54L407,233.7l-4.22-3.86,1.4-5.49-8.1-1.75L391.83,219l-7.55,5.1-8.61,1.1-7.07-.05-4.75,2.33-4.6,1.4,1.34,10.84-4.72-.26-.8-2.22-.26-3.91-6.5,2.76-3.84-1.75-6.58-3.56,2.58-7.92L334.86,221l-2.11-8.85-9.36,1.6,1.07-11.49,8.39-8.15.35-8.11-.26-7.57-3.87-2.37-3-5.88-5.18.74-9.55-1.5,3-4.21-4.15-6.28-6.32,4.26-7.43-2.48-10.21,6.41-8.07,7.44L271,175.82l-3.88-2.68-4.67-.25-6.34-2.31-4.78,2.54-5.86,7.4-.74-7.84-5.41,2.1-10.33-1-10-2.29-7.19-4.4-6.89-2-3-4.85-5-1.45L188,152.22l-7.11-3.14-3.67,2.44L165,144.36l-8.7-6.52-2.49-11.47,6.36,1.41.29-5.36L156.89,117l.9-8.67-9.53-12.61-14.57-4.39L131.07,83l-6.54-5.14L123,74.63l-1.33-6.36.31-4.36-5.38-2.57-2.91,1.14L111.39,52l2.52-2.62-1.22-2.68,8.46-5.46,6.12-2.27,9.38,1.56L140,33.06l11.37-1.39L154.52,27l14-6.42,1.24-2.69L169,11.05,175.1,7.9l-8-21.34,17.55-5,4.54-2.8,6.39-22.94,17.58,4.27,4.93-5.88L218.54-59l7.36-1.25,6.74-8.95,3.47-1.11,2.33,9.39,7.44,7,12.64,5,6.11,10.48-3.41,14.94L264.41-18l10.53,2.14,11.93,1.74,10.71,7.74,5.47,1.37,4,11.27,5.21,7.17,9.76-.28,18.29,2.7,11.78-1.67,8.75,1.78L374,23.15H384.7l3.92,3.68,10.31-6.36,14.32-4.15,13.27-.45,10.35-4.23,6.36-6.48,6.21-4.1L448-3l-2.83-4.74,4.65-8,5,1.13,9.1,2.53,8.83-6.64,13.51-4.88L492.74-32,499-35.68l12.87-1.71,7,1.45,1-4.59-8-9.12-7.11-4.21L497.86-49l-8.74-2-5,1.67-2.29-5.39,6.26-13.36,4.32-10.26L503-73.23l12.49-8.66L515.44-88l8-14.93,4.93-4.58-.11-8-4.86-3.46,7.32-7.31,11-2.67,11.74-.4,13.26,4.4,7.78,5.41L580-104.92l3.32,6.12,3.09,8.63Z"/><path class="cls-3" d="M236.09-70.32l9.34-2.35,16.91-11.82L275.81-91l7.71,4.28,9.24.2,5.92,6.46,8.84.49,12.82,3.44L329-85.74l-3.6-8.21,9.18-14.73,9.92,5.92,8,1.66,10.42,3.64L364.6-87l12.58,5.82,8.38-2.55,11.21-1.81,8.87,1.82,8.68,6.61,5.38,7,8.21-.14,11.17,2.2,8.14-3.36,11.66-2.25,13-9.66,5.31,1.49,4.64,4.6,10.57-1.14-4.31,10.26-6.26,13.36,2.28,5.39,5-1.67,8.74,2,6.8-4.86,7.11,4.22,8,9.12-1,4.59-7-1.45L499-35.67,492.73-32l-6.49,8.41-13.51,4.88-8.83,6.64-9.11-2.52-5-1.14-4.66,8L448-3l1.43,4.05-6.2,4.09-6.36,6.48-10.35,4.23-13.28.45-14.31,4.15L388.6,26.82l-3.92-3.68H374l-13.11-7.24-8.74-1.78L340.32,15.8,322,13.11l-9.76.28-5.2-7.17L303-5.06l-5.47-1.37-10.71-7.73-11.93-1.75L264.39-18l-3.19-5.47,3.41-14.93L258.5-48.94l-12.63-4.94-7.45-7Z"/><path class="cls-3" d="M390.85,303.58l2.88-4.09.4-7.72-7.17-8-.56-9.08-6.74-7.52-6.69-.63-1.79,3.22L366,270l-2.65-1.63L354,273.92l-.21-8.29,2.18-9.81-6-.43-.5-5.63-3.84-2.89,1.89-3.47,7.54-6.14.79,2.22,4.73.26-1.34-10.85,4.59-1.4L369,235l4,8.59,10.9.07,3.44,8.19-5.66,2.45-2.55,3.36,10.62,5.57,7.36,10.95,5.59,8.11,6.7,6.38,2.23,6.46-1.61,9.1-7.85-3.35-4,6.26Z"/><path class="cls-3" d="M1142.88-351.94l-8.78,9.39-14.53,2.21-.22,20.42-3.54,4.26-8.3-.61-6.75-7.16L1089-329.49l-2-9.13-9-3.48-10.08,2.76-4.81-7.48,1.92-8.06-10.61,5.16,4,10.09-5,9-.06.11-11.39,9.12-11.48-1.51,8,10.87,5.27,16.44,4.09,5.27,1,8-2.29,5.06L1030-281.47l-24.77,14.25L997.4-265,983.84-252.1,971-241,967.73-233l-12.68-12.32-23.08,14-4-6.57-8.54,7.57-11.85-2.41-2.85,11.47-10.63,16.49.32,6.75,10.09,3.71-1.19,23.57-8.22.59L891.27-157l3.69,6.65-15.49,7.8-3.08,17.07-13.21,3.59-2.65,14.74L847.75-94l-3.27-9.75-3.8-21.14-4.94-33.65,4.26-22,7.48-9.7.46-7.72,13.76-3.73L877.53-223l15.25-18.1,15.93-14.44L915.83-282l-10.76,1.62-5.33,15.55-22.47,20.1L870-267.31,847.14-261,825-230.79l7.31,10.67-19.77,4.49-13.7,1.76.64-12.47L785.68-229l-11,8.53-27.09-3-29.14,5.12-28.7,32.64-33.95,37.21,13.95,1.93,4.36,9.48,8.61,3.34,5.67-7.52,9.72,1,12.79,16.4.3,12.4L704.3-97.18l-.75,16.64-4,21.63-13.35,19-3,8.91-12,14.73L659.27-2l-5.72,7.22-11.81,7.09-5.59.16-5.56-5.87-11.9,8.82-1.38,4-1.24-2.09L616,11.24l4.53-.33,1.27-14.38-2.33-10.61,7.61-4.42,10.74,2.22,6-12.29,3-14.1,3.44-4.77,4.66-11.89-14.64,3.92-7.68,5.2H619.14l-3.59-12.47-10.49-9.59-15.42-4.36-3.28-13.53-3.08-8.63L580-104.92l-5.48-14.57-7.78-5.41-13.26-4.4-11.75.4-11,2.67-7.31,7.31,4.86,3.46.11,8-4.93,4.58-8,14.93.09,6.09L503-73.23l-10.64-5.16L481.8-77.25l-4.64-4.6-5.31-1.49-13,9.66-11.66,2.25-8.14,3.36-11.16-2.2-8.22.14-5.38-7-8.67-6.61-8.88-1.83-11.21,1.81-8.37,2.56L364.59-87,362.9-97.47l-10.41-3.64-8.05-1.67-9.92-5.91L325.34-94l3.6,8.22-8.61,9.59-12.81-3.45-8.85-.49-5.92-6.45-9.24-.21L275.81-91l-13.48,6.55L245.42-72.68l-9.34,2.35-3.47,1.11-4.69-8.32L216.5-75.71l-3.77-5.82-6.19-2.68-4.27-8-4.89-2.53-12.73,3.6-12.2-8.1-4.72,7.37-19.8-36.58L136.62-140l3.24-4.75-22.2,14.2-8.49.84.73-8.16-11.38-5.15-9.25,3.68-2.79-15.83-15.92-3.35-8,6.42-22.17,5.66-4.33,3.76L2.94-137.48l-4.06,5.12,6.4,10.13-8.51,3.81,1.66,4-8.5,7L4.28-97.65,2.07-91l-12.45-.6-2.57,4.14L-24.28-94.7l-14,.28-9.4,5.9-10.49-5.66L-77.75-104l-13.84.37-18.29,15.32L-111-78.2l-9.11-8-7.07,15.08,2.59,2.76-5.11,10.16,7.52,9,6.57-.37,5.65,8.72-.9,6.65,4.5,2.07-4,7.55L-119-22.53l-8.8,12.92,8,11.67-.87,8.17,9.67,14.09-5.29,4.75-1.52,3-3.92-.8-6.09-7.16-2.49-.4L-135.8,21l-2.71-4.9-8.26-2.51-5.37,1.89-1.56-2.23-12.06-5.79-13-2-7.49-2.08-1.08,1.44-11.3-10.35-10.11-4.67-7.65-7.32,6.45-2,7.35-10.6-5-5.07,13.05-5.27-.23-2.84-8,2.09.27-5.78,4.57-3.67,8.57-1,1.4-4.41-2-7.36,3.6-7-.11-4-13.06-4.45-5.18.14-5.46-6.45-6.8,2.19-11.25-4.87.19-2.75-3.15-6.08-7.07-.68-.73-4.4,2.21-2.89-5.66-8.13-9.18,1.39-2.7-.72-2.23,3.27-3.31-.58-2.18-9.28L-264-123.6l1.71-1.38,7.14.51,3.45-3.23-2.55-4-6-2.63.54-2.71-3.61-2.75-5.55-10,1.9-4.16-.87-7.29-8.66-3.74-4.65,1.88-1.26-3.91-9.32-4-2.85-9.44-.76-7.88L-299.6-192l3.8-5.24-2.63-15.68,6.3-9.9-1.33-3,10.07-9.7-9.28-8.49,19-23.39,8.22-10.92,3.34-9.8-13.12-13.45,3.63-13.1-8-15.34,6-18.21-10.31-25.14,8.18-17.31-13.57-15.77,1.29-17.08,7.16-2.28,15.07-10.08,9.14-8.89,14.56,15.36,24.26,5.93,33.48,27.32,6.8,11.08.58,15.16-9.84,11.67-14.46,5.84-39.55-16.79-6.51,2.84,14.44,16.11.57,10,.58,21.34,11.4,6.21,6.93,5.24,1.14-9.82-5.34-8.85,5.64-7.91,21.42,12.95,7.46-5-6-15.42,20.65-21.3,8.18,1.28,8.27,7.68,5.16-15.21-7.39-13.53,4.34-13.92-6.51-14.83,24.78,7.72,5.06,13.22-11.22,2.87.06,12.75,7,7.71L-117-372l2.16-14.57,18.51-11.14,30.92-20.67,6.68,1.2-8.73,14.66,11,2.49,6.34-8.17,16.61-.67L-20.39-419l10.09,14.61L-.23-420.45l-9.28-14.46,4.6-8.42,26.17,7.72,12.27,7.87,32.1,27.8,5.93-12.56-9-13-.26-5.3-10.67-2.47,2.92-12.09L49.8-465.86l-.27-8.65,16.35-25.25,5.82-26.6,6.59-5.94,23.45,7.95L103.59-508l-8.4,23,5.51,8.78,2.85,18.76-2,35,9.77,14.95-3.8,15.82L90.16-359.44l10.12,3.24,3.53-7.94,9.75-5.74,2.35-11.23,7.67-11-5.17-13.46,4.14-16.06-9.69-2-2.13-14,7.07-26.15L106.29-486l15.86-19.09L120.1-526l4.42-.69,4.65,16.4-3.49,27.39,9.48,5-4-20.14L146-509.35l18.39-1.54,16.37,16.37-7.88-24.09L172-551.1l15.4-6.38,21.31,1.4,19.2-4.18-7.2-17,10.26-22.17,10.17-1,17.23-17.42,23.39-4.78,3-10L307.93-636l7.25,8.23,19.89-19.71,16.27.63,2.44-16.55,8.47-16.85L383.17-697l15.19,13.3-12.06,9.89,20.07,6.06,2.39,19.07,8.1-9.3,25.9.51,20,18.46,7.11,13.75-2.2,18.5-9.81,10.25-23.28,18.69-6.65,9.73,11,4.53L452-555.5l8-6,4.53,20.2,3.89-8.09,14.16-5,28.43,5.2,2.16,14.46,37,4.51.5-23.61,18.8,5.51,14.15-.17,14.31,16.23L602-513.18l-5.24,12.12L607.89-479l13.93,11,8.55-29,14.21,12.63,15.1-7.51,17.15,8.58,6.53-7.82,14.49,3.92-6.4-26.53,11.7-12.85,80,19.15,7.54,16.92,23.19,21,35.78-5.13,17.64,4.47,7.37,11.05-1.07,19,10.91,7.23L896.39-438l15.71-.66,16.73,5,16.79-2.8,15.43,22.1,11-7.85-7.16-16,3.94-11.43,28.27,7.22L1015.5-444,1041-431.88l12.4,10.87,21.7,18.51,23.23,23.2-.76,14,6,5.51L1101.48-376l24,3.37ZM740.24-66l-8.92-24.28-3.65-14.24.22-14.21-3.06-14.23-2.31-10-3.94,2.12,3.52,7L713.91-127l-.79,19.9,5.19,13.94-.38,18.49-2.06,10.23,1,14.33-1,12.69,1.64,10.74,5.81-9.9,6.71,7.73.25-9-8.63-13.36,5.45-19.3ZM-343.65-152.84l-9.28-2.7-12.22,5-2,6.72,10.91,1.73,16.29-.23-.71-3.88.95-4.2Zm1397-316.35,11.57-1.65,9.13-6.52.76-3.75L1062-489.06l-7.51-.06-1.13,1.17-11.29,11.52,1.58,8.61Zm-347.2-85.6-8.4,12.37,1.55,1.64,18.16,3.42,13.43-.21-1.07-8.12-12.59-12Zm77.65-30.11,10.24-13.42-22.23-9.08-16.52-5.32-2.12,11.33,16.47,13.49Zm-79.4-5.35,32.66.94,7-25.74-32-19.18-23.39-1.62L677-629l-4.76,24.49,17.55,22.16ZM389.58-723,392.21-741,369.75-767.4l-6.65-3.11-7.28,5.36-16.18,58.79Zm-104.21-51.4,14.7,18.11L324.75-743l19.33-5.69,2.18-43.05-20.4-50.68-17.21-28.52-19.16,13-23,37.39,12.09,10.33Z"/><path class="cls-3" d="M239.36,174.78l-.68,4.29,1.16,6.29-1,3.9-7.38.16-10.66-2.29-6.84-.94-5.11-5-12.15-1.29-11.55-5.58-8.36-4.9-8.58-3.8,3.44-9.45,5.62-4.62,3.68-2.44,7.1,3.14,8.94,6.61,5,1.46,3,4.84,6.88,2,7.19,4.4,10,2.29Z"/><path class="cls-3" d="M148.26,95.75l9.52,12.61-.89,8.66,3.52,5.4-.29,5.35-6.36-1.4,2.48,11.47,8.71,6.52,12.31,7.16-5.62,4.62-3.44,9.45,8.58,3.8,8.36,4.9,11.55,5.58,12.15,1.29,5.11,5,6.84.94,10.66,2.29,7.38-.16,1-3.9-1.16-6.29.68-4.29,5.41-2.1.74,7.84.19,2,8.05,3.75,5.57-1.55,7.48.67,7.23-.3.62-6.08L271,175.82l7.15-1.24,8.07-7.45,10.21-6.41,7.43,2.48,6.32-4.25,4.15,6.27-3,4.22,9.55,1.49.67,3.79-3.11,1.83.73,6.1-6.33-1.79-11.47,6.83.27,5.63-4.89,8.19-.45,4.74-4,8-6.92-2.2-.35,9.94-2,3.26.94,4.05-4.37,2.25L275,216.36l-2.45,0-1.44,6.13-4.85-5,2.73-5.48,4-.56,4.09-8.2L272,201.66l-8.22.14-8.43-1.33-.78-6.8-4.23-.48-7-4.24-3.13,6.65,6.4,5.17L241,204.39l-2,3.54,5.46,2.59L243,216.33l3.07,7.21,1.38,7.85-1.27,3.46-6-.11-10.92,2,.51,7.1L225,249.37l-12.75,6.3-9.92,11-6.66,5.84-8.83,6v4.23L182.42,285l-8,3.28-4.14.49-2.66,7,1.84,11.82.48,7.51-3.76,8.57,0,15.25-4.58.43-4,6.82,2.7,2.94-8.08,2.52-3,6.06-3.56,2.55-8.39-8.3-4.1-12.51-3.4-9-3.1-4.26-4.71-8.65-2.2-11.32-1.53-5.67-8.06-12.54-3.67-17.84-2.65-11.89,0-11.34L102.13,238l-12.9,5.65L83,242.54,71.42,231.07l4.25-3.44-2.61-3.75-10.39-8.14,5.9-6.43,19.49,0L86.3,201l-5-4.95-1-7.55-5.8-4.43,9.76-10.41,10.29.75,9.27-10.51,5.55-10.27,8.6-10.26-.13-7.36,7.55-6-7.15-5.17-3.08-7.12L112,108.4l4.35-4.61,13.44,2.61,9.87-1.59Z"/><path class="cls-3" d="M87.81,42.63l-3.25,3.55-9.64-1.92-.84,6.62L83.69,50,94.63,53.7,111.38,52l2.25,10.5,2.91-1.13,5.38,2.56-.31,4.37,1.33,6.36-9.14,0-6.1-.82-5.52,5-3.93,1.1-3.09,2.32-3.5-3.62.82-9.34-2.68-.53,1-3.43L86,62.69l-3.81,3.92-.94,4.51-1.36,1.64-5.3-.24L71.7,77.61l-3-2.14L62.3,79l-2.71-1.34,5-11.28L62.66,58l-6.5-2.71,2.3-5,7.39.54,4.21-6.35L72.88,37l11.85-2.71-1.85,5.4,1.27,3.22Z"/><path class="cls-3" d="M340.56,249l-5.16,4.06-6.26.42-4,10.08-3.74,1.69,4.29,8.12,5.62,6.74,3.63,6.05-3.25,8-3.06,1.68,2.12,4.57,5.91,7.22,1,5.06-.14,4.19L341,325.1l-4.87,8.37-4.29,9.2L331,336l2.72-6.87-3-5.32.72-9.83-3.6-4.69-2.89-10.87-1.6-11.54-3.83-7.61-5.83,4.61-10.08,6.54-5-.82-5.49-2.14,3.05-11.39-1.85-8.66-6.94-10.73,1.08-3.36-5.18-1.2L277,244.49l-.58-7.6,3.09,1.43.19-6.8,4.37-2.25-.94-4.05,2-3.26.35-9.94,6.92,2.2,4-8,.45-4.74,4.89-8.19-.27-5.63,11.47-6.83,6.33,1.79-.73-6.1,3.11-1.83-.67-3.79,5.18-.74,3,5.88,3.86,2.37.26,7.58-.36,8.11-8.38,8.15-1.07,11.49,9.35-1.61,2.12,8.86,5.61,1.85-2.58,7.92,6.58,3.57,3.83,1.74,6.5-2.76.27,3.92-7.54,6.14-1.89,3.47Z"/><path class="cls-3" d="M87.35,18.89l-5.08,2.2L70.58,29.33,66.7,37.7l-3.29.08L61,32.25l-11.27-.38-1.8-9.67-4.32-.08.66-12L33.65,1.24l-15.2,1L8.06,4-.4-7.09l-7.25-4.69-13.73-9L-23-21.83l-22.81,7.41.35,44.64L-50,30.8l-6.2-9.27-6-3.34-10.06,2.48-3.91,3.95-.5-2.89,2.18-5-1.69-4.17L-86.48,8.47l-4-10.94-4.89-3.11-.29-4L-87-8.44l.34-9.11,7.54-2,7.74,1.88,1.59-12.35L-71.42-38l-8.86.63-7.54-3.16-10.25,5.68-8.27,2.69-4.5-2.08.9-6.64-5.64-8.72-6.58.37-7.52-9,5.11-10.16-2.59-2.76,7.08-15.07,9.11,8,1.1-10.09,18.29-15.32,13.84-.37,19.53,9.8,10.49,5.66,9.4-5.9,14-.28,11.33,7.24,2.58-4.14L2.07-91l2.22-6.65-14.35-9.79,8.5-7-1.66-4,8.51-3.81-6.4-10.14L3-137.47l33.15-5.25,4.33-3.76,22.17-5.66,8-6.42,15.92,3.34,2.79,15.84,9.25-3.68,11.38,5.15-.74,8.16,8.5-.85,22.2-14.2L136.63-140l11.31,11.56L167.73-91.9l4.72-7.38,12.21,8.11,12.73-3.6,4.89,2.52,4.27,8,6.19,2.68,3.77,5.82,11.42-1.83,4.69,8.32-6.74,8.95L218.52-59l-.42,13.23-4.93,5.88L195.6-44.19l-6.4,23-4.53,2.8-17.55,5,8,21.34L169,11l.71,6.84-5.46-1.75-4.44-4.31-13.15-1.26L132,10.23l-3.22,1.33L116.15,6.47l-5,2.51-1.38,7.1L95.16,11.94l-5.83,1.7Z"/><polygon class="cls-4" points="367.75 322.61 359.8 318.48 352.22 318.64 353.52 311.54 345.71 311.6 345.01 321.53 340.23 334.65 337.35 342.56 337.96 349.02 343.73 349.3 347.32 357.43 348.92 365.12 353.86 370.2 359.23 371.23 363.82 375.83 360.93 379.46 355.07 380.52 354.38 375.98 347.15 372.1 345.61 373.68 342.11 370.28 340.59 365.88 335.89 360.87 331.59 356.65 330.14 361.88 328.46 356.94 329.43 351.39 332.04 342.83 336.33 333.63 341.19 325.26 337.73 317.04 337.87 312.84 336.85 307.79 330.94 300.57 328.83 296 331.89 294.32 335.13 286.36 331.5 280.3 325.88 273.57 321.6 265.44 325.34 263.76 329.38 253.68 335.63 253.26 340.8 249.19 345.88 247.02 349.71 249.92 350.22 255.54 356.2 255.97 354.03 265.78 354.24 274.08 363.57 268.56 366.23 270.2 371.42 269.93 373.2 266.71 379.9 267.34 386.64 274.86 387.19 283.94 394.37 291.93 393.97 299.64 391.09 303.74 382.78 302.44 371.33 304.18 365.65 311.71 367.75 322.61"/><text class="cls-5" transform="translate(742.9 280.52)">OC<tspan class="cls-6" x="95.53" y="0">E</tspan><tspan x="141.82" y="0">ANO </tspan><tspan class="cls-7" x="309.9" y="0">P</tspan><tspan class="cls-8" x="353.18" y="0">A</tspan><tspan class="cls-9" x="401.88" y="0">CÍFICO</tspan></text></g></g><g id="pequeño_mapa" data-name="pequeño mapa"><g class="cls-10"><path class="cls-3" d="M435.51,93l0,1.49-.68-.31.12,1.67-.55-1.08-.11-1.06-.37-1-.82-1.21-1.79-.09.18.87-.61,1.16-.83-.42-.29.37-.55-.22-.75-.19-.3-1.72-.68-1.59.33-1.27-1.19-.57.43-.78,1.21-.8-1.4-1.13.69-1.46,1.54.93.93.1.17,1.5,1.85.29,1.81,0,1.12.36-.9,1.8-.87.13-.6,1.2,1.07,1.09.31-1.34h.54Z"/><path class="cls-3" d="M299.23,41.08l.56,1.11.75-.2,1.5.42,2.86.15,1-.69,2.29-.63,1.42,1,1.14.28-1,1.11-.71,1.9.63,1.49-1.68-.35-2,.82,0,1.29-1.77.25-1.37-.91-1.56.72-1.44-.08L299.66,47l-1-.84.32-.37-.21-.31.33-.84.74-.83-.95-1.15-.17-1Z"/><path class="cls-3" d="M312.24,145.47l-.13-2.34-.49-.88,1.18.15.6-1.1,1,.13.12.76.42.44v.63l-.48.4-.75,1-.71.71Z"/><path class="cls-3" d="M300.84,12.29l1.88,0,2.11-1.25.45-1.89,1.6-1.08-.18-1.54L307.88,6,310,4.63l2,.88.28.85,1-.41,1.9.82.19,1.61-.41.91,1.21,2.19.8.6-.12.6,1.31.57.56.87-.75.71-1.57-.11-.38.3.46,1.07.48,2-1.67.19-.6.69-.13,1.57-.77-.3-1.76.15-.51-.73-.73.54-.73-.45-1.54-.06L306.39,19l-2-.25-1.51.07-1.07.85-.93.12,0-1.39-.6-1.47,1.17-.66V15l-.54-1.23Z"/><path class="cls-3" d="M288.14,28.8l-.9-.56-.91.16-1.51-.91-.69.23L283,28.92l-1.45-1-1.1-1.27-1-.72-.21-1.27-.34-.9,1.42-.66.72-.76,1.4-.6.49-.58.51.35.87-.32.92,1,1.46.27-.13.84,1.06.63.29-.79,1.34.34.18.95,1.45.19.89,1.47h-.58l-.3.54-.44.12-.13.68-.37.14-.06.28-.66.3-.86-.05Z"/><path class="cls-3" d="M279.83,6.57l-1.17,2.76-2-1.92L276.35,6l2.86-1.15Zm-3.46-2.95-.48,1.32-.58-.38-1.4,2.49.53,1.66-1.25.51-1.47-.44-.79-1.89-.06-3.56.33-1,.56-1.07,1.71-.22.68-1,1.57-1L275.65.93l-.57,1.17.23,1Z"/><path class="cls-3" d="M337.56,112.31l-.66-.64-.8-1.16-.87-.64-.5-.69-1.7-.8-1.33,0-.47-.42-1.14.47-1.18-.91L328.3,109l-2.27-.42-.2-.8.84-3,.19-1.34.61-.62,1.43-.33,1-1.16,1.13,2.35.54,1.85,1.06,1,2.66,1.89,1.08,1.13,1.06,1.15.6.68,1,.6-.59.49Z"/><path class="cls-3" d="M605.88,168.15l-.24,1-.16.11-1.24.5-1.24.42-.25-.75,1-.42.62-.11,1.14-.63Zm-4,3-.88-.25-.75.7.18.89,1.08.25,1.2-.28.32-1.06-.67-.58Z"/><path class="cls-3" d="M257.19,125.28l-3.05,1.13-1.08.67-1.76.56-1.73-.55.09-.76-.85-1.68.51-2.2.82-1.64-.52-2.78-.26-1.48,0-1.12,3.39-.09.86.14.62-.31.9.15-.14.62.81,1v1.43l.19,1.54.48.71-.43,1.76.16,1,.52,1.23Z"/><path class="cls-3" d="M222.35,111.1l.25-.88,2.12,0,.44-.48.61,0,.77.49h.61l.64-.33.39.57-.84.45-.85,0-.83-.42-.72.46-.35,0-.47.28Z"/><path class="cls-3" d="M225.68,115.28l-1-.82-.82-.14-.45-.55v-.3l-.59-.42-.12-.43,1-.32.64.07.52-.23,3.6.09,0,.67-.22.2.17.66-.31.26h-.43l-.51.34-.59,0Z"/><path class="cls-3" d="M286.66,33.83l.65-1.84-.38-.62H288l.15-1.18,1,.74.72.32,1.63-.36.16-.58.77-.08.95-.46.21.19.91-.36.46-.69.64-.18,2.08.89.42-.3,1.08.79.13.78-1.19.61-.92,1.94-1.17,1.91-1.57.53-1.21-.12-1.49.73-.73.42-1.61-.54L288,35.16l-.62-.34-.38-1Z"/><path class="cls-3" d="M243.06,12.43l.33,2.34-1.48,2.86-3.45,1.86L235.71,19l1.58-3.32-1-3.31,2.65-2.61,1.47-1.57.4,1.8-.4,1.79,1.2-.05Z"/><path class="cls-3" d="M324.65,69.73l-.34.72-.7-.31-.41,1.52.49.26-.5.31-.08.6.92-.31,0,.88-1,3.59-1.28-3.86.57-.75-.13-.13.51-1.06.4-1.73.27-.59.06,0h.65l.18-.4.52,0,0,.94-.26.35Z"/><path class="cls-3" d="M324.31,70.45l.34-.72,2.17.91,3.81-2.46.79,2.81-.37.34-3.9,1.15,1.94,2.26-.64.38-.33.75-1.48.31-.47.8-.84.68-2.16-.35L323.1,77l1-3.59,0-.88.28-.67Z"/><path class="cls-3" d="M393.25,46.33l.44-1.16L395,44.8l3.2.91.3-1.56,1.11-.55,2.77,1.12.71-.3,3.22.08,2.89.27,1,.95,1.2.39-.28.59L408,48.11l-.7,1-2.49.31-.74,1.63L402,50.73l-1.35.5-1.85,1.2.26.59-.55.57-3.68.38-2.4-.81-2.12.19.19-1.45,2.12.42.71-.78,1.48.25L397.32,50,395,48.6l-1.39.64-1.44-1,1.64-1.69Z"/><path class="cls-3" d="M348.51,75.93l.4,1-.17.51.62,1.67-1.37.06-.49-1.06-1.73-.21,1.43-2.14Z"/><path class="cls-3" d="M324.85,68.42l-.52,0-.18.4h-.65l.69-1.89,1-1.66,0-.08.87.12.32.92-1.06.88Z"/><path class="cls-3" d="M414.32,122.17l-.29,2-.82.56-1.69.44-.93-1.55-.34-2.8.88-3.18,1.34,1.09.91,1.38Z"/><path class="cls-3" d="M299.37,10.91l-.15-.85.2-.92-.86-.54-2-.59-.42-2.89L298.34,4l3.26.23,1.92-.35.27.73,1,.22,1.87,1.68.18,1.54-1.6,1.08-.45,1.89-2.11,1.25-1.88,0-.47-1Z"/><path class="cls-3" d="M266.89,24.23l.39.69-.11,1.31-.56.06-.44-.25.21-1.69Z"/><path class="cls-3" d="M296.11,5.12l.07-2.65,1-2.24L299-1l1.54,2.69,1.57-.07.37-2.77,1.66-.64.85.45L306.64,0h1.6l.94.83.17,1.73L310,4.63,307.88,6l-1.18.58-1.87-1.68-1-.22-.27-.73-1.92.35L298.34,4Z"/><path class="cls-3" d="M306.94,29.9l.46-.43,1.3-.29,1.43.91.8.11.88.78-.14,1,.71.47.28,1.19.68.72-.13.43.36.28-.52.21-1.14-.08-.2-.39-.4.22.14.5-.54.9-.34,1-.49.3-.35-1.26.21-1.2L309.88,34l-1.13-1.7L308.14,31l-.61-.86Z"/><path class="cls-3" d="M293.67,45.71l-.12-.49-.85,1.29.13.83-.4-.2-.55-.85-.84-.53.21-.44.29-1.46.63-.62.37-.24.51.45.29.37.64.29.74.55-.16.23-.37.59Z"/><path class="cls-3" d="M577.8,178.48l1.6,1.29,1,1-.74.5-1.07-.57-1.39-.93L576,178.62l-1.29-1.45-.26-.7.83,0,1.09.7.86.7Z"/><path class="cls-3" d="M259.32,113.5l.05-1.35-2.25-.45-.06-1-1.1-1.3-.26-.91.16-1,1.25-.08.72-.71,2.65-.17,1.73-.32.17-1.24,1.06-1.35V99l2.75-.92L271.81,94l6.67-4,3.08.91,1.1,1.15,1.38-.78.47,3.25.73.54,0,.66.81.7-.42.89-.75,4.15-.1,2.64-2.49,1.9-.84,2.63.81.74v1.28l1.25,0-.2.93-.55.12-.06.63-.36,0-1.32-2.17-.46-.08-1.52,1.11-1.5-.58-1.05-.11-.56.28-1.14-.07-1.15.85-1,0-2.35-1-.92.49-1,0-.73-.75-1.95-.75-2.09.24-.51.43-.27,1.14-.56.8-.13,1.77-1.49-1.14H260Z"/><path class="cls-3" d="M264.73,14.74l-.12.63.33.11.15.28.06.26.27.1,0,.14-.24.18-.27,0v.2l.19.32-.27.32.27.08.55-.53.33-.49V16l-.11-.23-.32-.16.07-.36-.07-.32.29-.69.28-.36.81-.3,1.62.1.36,1.1-.48,2.93-.5,1.19h-1.17l.33,3.25L266,21.45l-1.23-1.35-1.8.64-1.43-.24.49-.86.63-.84.89-.87.53-1.45.17-1.51Z"/><path class="cls-3" d="M354,87.32l-.12-1.56.52-1.13.53-.23.59.68,0,1.25-.43,1.26-.54.15Z"/><path class="cls-3" d="M291.82,26.13l.11.19.8-.41,1,1.06,1.15-.64.91.3,1.41-.42L299,27.36l-.54.77-.38,1.18-.42.3-2.08-.89-.64.18-.46.69-.91.36-.21-.19-.95.46-.77.08-.16.58-1.63.36-.72-.32-1-.74-.2-1,.16-.37.28-.65.86.05.66-.3.06-.28.37-.14.13-.68.44-.12.3-.54Z"/><path class="cls-3" d="M232.86,123.61l-.52-.14-1.4-.79-1-1-.34-.72-.23-1.44,1-.86.22-.55.33-.42.54-.05.45-.37h1.56l.54.7.42.82-.06.57.31.51,0,.72.54-.11-.91.91-.88,1.06-.1.57Z"/><path class="cls-3" d="M222.6,110.22l-.81-1.55-1-.71.86-.38.94-1.41.46-1,.67-.65,1,.18.95-.44,1.08,0,.94.59,1.29.53,1.18,1.48,1.28,1.37.09,1.25.38,1.14.73.55.17.77-.09.62-.28.11-1.06-.16-.15.23-.43,0-1.4-.48-.94,0-3.6-.09-.52.23-.64-.07-1,.32-.32-1.52,1.77.05.47-.28.35,0,.72-.46.83.42.85,0,.84-.45-.39-.57-.64.33h-.61l-.77-.49-.61,0-.44.48Z"/><path class="cls-3" d="M258.76,124.86l-1.57.42-.43-.69-.52-1.23-.16-1,.43-1.76-.48-.71-.19-1.54V117l-.81-1,.14-.62,1.71,0-.25,1,.6.58.67.69.08,1,.39.41-.09,4.48Z"/><path class="cls-3" d="M498.37,154l.23-.46,1.67-.44,1.36-.06.61-.25.73.24-.71.53-2,.86-1.63.56,0-.59Z"/><path class="cls-3" d="M492.16,88.08,491,91.47l-.83,1.72-1-1.77-.22-1.56,1.15-2.08,1.56-1.62.88.64Z"/><path class="cls-3" d="M355.52,88.4l.35-.1.07.58,1.52-.33,1.61,0,1.18.06,1.33-1.43L363,85.85l1.23-1.32.37.73.27,1.7h-1l-.15,1.39.34.29-.88.42v.87l-.56.87-.05.84-.4.45L356.34,91l-.74-2.14Z"/><path class="cls-3" d="M317.15,138.75l-2.13,0-.68.23-1.17.6-.47-.2,0-1.45.45-.74.11-1.55.41-.9.74-1,.75-.52.63-.68-.78-.26.11-2.27.8-.53,1.24.44,1.57-.46h1.37l1.2-.89.92,1.34.23,1,.85,2.22-.71,1.41-.95,1.28-.56.79,0,2Z"/><path class="cls-3" d="M324.31,70.45v1.4l-.28.67-.92.31.08-.6.5-.31-.49-.26.41-1.52Z"/><path class="cls-3" d="M237.54,47.33l.71-.66.79-.38.49,1.28h1.15l.33-.33,1.14.1.54,1.3-.9.7,0,2-.32.37-.08,1.2-.84.21.78,1.5-.53,1.63.67.73-.27.67-.72.92.16.81-.78.63-1-.35-1,.27.29-1.9-.18-1.52-.87-.22-.46-.94.15-1.64.78-.91.14-1,.4-1.53,0-1.09-.39-.93Z"/><path class="cls-3" d="M369.7,95,369,96.39l-.88-.11-.41.49-.31,1,.24,1.37-.19.25h-.89l-1.22.76-.19,1-.44.43-1.21,0-.76.51v.82l-1,.56-1.07-.19-1.3.68-.9.12-.64-1.42-1.52-3.36,5.84-2,1.3-4.14-.89-1.49.05-.84.56-.87v-.87l.88-.42-.34-.29.16-1.39h1l.87,1.46,1.09.77,1.43.27,1.15.39.88,1.21.52.7.7.26v.47l-.71,1.24-.31.59Zm-4.81-10.1-.26.39-.37-.73.57-.74.24.19Z"/><g class="cls-11"><path class="cls-3" d="M451.86,124.74l.15,1,1.29-.23.64-.8.44.18,1.15,1.17.82,1.3.11,1.31-.21.88.19.67.15,1.14.68.54.77,1.71,0,.65-1.38.13L454.78,133l-2.3-1.54-.23-1-1.13-1.3-.27-1.61-.7-1,.21-1.42-.42-.82.33-.35ZM486,128.09l-1.44.66-1.68-.32h-2.24l-.68,2.2-.74.67-1,2.69-1.59.42-1.84-.55-.94.17-1.13,1-1.24-.14-1.26.4-1.33-1.1-.32-1.29,1.42.66,1.51-.36.39-1.64.83-.36,2.33-.42,1.4-1.53,1-1.23.89,1,.41-.67.93.07.11-1.24.09-1,1.5-1.35,1-1.52h.79l1,1,.09.84,1.28.54,1.62.59-.14.76-1.3.1Z"/></g><path class="cls-3" d="M505,55.64l1.68,2.9.48,1.58,0,2.76-.74,1.31-1.76.45-1.56,1-1.75.2-.22-1.28.36-1.78-.86-2.5,1.45-.41-1.34-2.09.13-.22.86.09.76-1.11,1.38-.12.83-.16Z"/><path class="cls-3" d="M295.54,46.89l-.09.53-.24,0-.14-.95-.46-.27-.42-.7.37-.59.46-.19.27-.88.35-.15.28.37.36.17.26.42.32.13.37.48h.28l-.22.64-.23.31.06.2-.43.1Z"/><path class="cls-3" d="M509.41,46l.27.46-.74-.16-.85.88-.58.89.08,1.85-1,.57-.35.45-.73.75-1.3.42-.84.67-.06,1.09-.23.28.78.41,1.1,1.09-.28.6-.83.16-1.38.12-.76,1.11-.86-.09-.13.22-.94-.46-.24.46L499,58l-.06-.46-.51-.22-.52-.4.53-1.08.46-.3-.17-.45.49-1.35-.13-.41L497.92,53l-.92-.68,1.58-1.63,2.15-1.37,1.34-1.84.92.81,1.68.1-.3-1.37,3-1.13.78-1.48Z"/><path class="cls-3" d="M465.44,94.06l-2.6,1.77-1.62,2-.43,1.43,1.49,2.15L464.1,104l1.76,1.24,1.19,1.61.89,3.7-.26,3.48-1.63,1.3-2.23,1.27-1.58,1.64-2.43,1.82-.71-1.26.55-1.32-1.45-1.12,1.69-.79,2-.15-.85-1.19,3.27-1.52.24-2.38-.45-1.33.35-2-.49-1.42-1.47-1.4-1.23-1.78-1.62-2.4-2.33-1.23.56-.74,1.24-.53-.75-1.8-2.4,0-.87-1.89L454,92.15l1.05-.51h1.55l1.89-.24,1.66-1.12.94.79,1.78.38-.31,1.21.93.85Z"/><path class="cls-3" d="M334.92,138.42l1.15,1.6-1.36.77-.48.81-.73.14-.28,1.36-.62.78-.38,1.29-.79.64-2.79-1.94-.13-1.12-7.06-3.94-.33-.21,0-2,.56-.79.95-1.28.71-1.41-.85-2.22-.23-1-.92-1.34,1.19-1.16,1.32-1.28,1,.32v1.09l.67.64h1.35l2.47,1.65.61,0,.46-.06.43.23,1.3.15.57-.81,1.78-.81.78.66h1.33l-1.7,2.19Z"/><path class="cls-3" d="M286.94,194.49l-1.44-1.66-.77-1.6-.43-2.11-.48-1.55-.65-3.28,0-2.52-.25-1.14-.76-.86-1-1.72-1-2.47-.42-1.29-1.58-2-.12-1.56.93-.39,1.17-.34,1.26.06,1.16.92.3-.15,7.89-.09,1.34,1,4.72.28,3.57-.82,1.6-.46,1.26.11.77.46v.17l-1.09.46h-.59l-1.25.8-.74-.84-3,.71-1.45.07-.06,7.34-1.92.07v14.15l-1.74,1.13-1,.16-1.23-.42-.87-.16-.33-.94-.77-.6Z"/><path class="cls-3" d="M299.33,30.88l.84-.62,1.21.32h1.24l.91.71.66-.45,1.44-.27.49-.68h.82l.59.28.61.86.61,1.21,1.13,1.7.06,1.24-.21,1.2.35,1.26.87.51.91-.44.89.47,0,.71-.94.59-.59-.26-.55,3.27-1.14-.28-1.42-1-2.29.63-1,.69L302,42.41l-1.5-.42-.75.2-.56-1.11-.36-.47.45-.46-.48-.34-.61.61-1.13-.79-.16-1.13-1.18-.65-.22-.88-1.06-1.1,1.57-.53,1.17-1.91.92-1.94Z"/><path class="cls-3" d="M295.76,37.85l1.18.65.16,1.13,1.13.79.61-.61.48.34-.45.46.36.47-.48.62.17,1,.95,1.15-.74.83-.33.84.21.31-.32.37-.9,0-.67.15-.06-.2.23-.31.22-.64h-.28l-.37-.48-.32-.13-.26-.42-.36-.17-.28-.37-.35.15-.27.88-.46.19.16-.23-.74-.55-.64-.29-.29-.37-.51-.45.45-.12.29-1.27-.94-1,.49-1.2h-.71l.75-1-.62-.79-.47-1.08,1.49-.73,1.21.12,1.06,1.1Z"/><path class="cls-3" d="M384.6,58.71l0-1.5-2.59-1.05-2-1.22-1.27-1.18L376.53,52l-.95-2.63-.66-.47-2.1.12-.75-.52-.2-2.08-2.63-1.39-1.64,1.53-1.66.9.32,1.3-2.19,0L364,39l5-1.63.36.24,3,2,1.59,1,1.86,2.43,2.28-.39,3.34-.21,2.33,1.95L383.64,47h.94l.4,2.13,2.48.08.53,1.22.72,0,.86-1.84,2.56-1.81,1.12-.48.58.25-1.64,1.69,1.44,1L395,48.6l2.3,1.36-2.49,1.83-1.48-.25-.8.07-.28-.71.4-1.19-2.6.6-.62,1.63-.92,1.4-1.63-.12-.5,1.1,1.43.6.42,1.84-1.1,2.48-1.47-.51Z"/><path class="cls-3" d="M305.05,173.25l.39.36.62,1.19,2.2,2.26.83.22V178l.57,1.31,1.5.32,1.24,1-2.75,1.54-1.75,1.57-.64,1.41-.59.8-1.06.17-.34,1-.2.67-1.24.5-1.59-.11-.93-.6-.82-.26-.95.5-.47,1-.92.65-1,1-1.39.22-.44-.76.18-1.31-1.15-2-.53-.32v-6.15l1.92-.07.06-7.34,1.45-.07,3-.71.74.84,1.25-.8h.59l1.09-.46.35.15Z"/><path class="cls-3" d="M374.27,62.84l-.17-2-1.45-.08-2.23-2.15-1.55-.27-2.15-1.24-1.39-.23-.85.46-1.3-.07-1.39,1.4-1.71.47-.36-1.73.28-2.59L358.48,54l.5-1.73-1.29-.14.43-2.15,1.84.63,1.71-.82-1.42-1.55-.56-1.49-1.56.67-.2,1.89-.61-1.67.86-.87,2.21-.55,1.31.74,1.37,2,1-.12,2.19,0-.32-1.3,1.66-.9,1.64-1.53,2.63,1.39.2,2.08.75.52,2.1-.12.66.47.95,2.63,2.23,1.74L380,54.94l2,1.22,2.59,1.05,0,1.5-.59-.07L383.1,58l-.31.87-1.64.47-.39,1.94-1.1.73-1.53.36-.41,1.08-1.47.31Z"/><path class="cls-3" d="M273.58,75.19l-.83-4.07-1.2-.92v-.56L270,68.26l-.18-1.75L271,65.2l.46-2L271.12,61l.4-1.24,2.12-1L275,59l-.06,1.23,1.65-.89.14.47-1,1.18v1.11l.67.59-.25,2.06L274.88,66l.37,1.28,1,0,.49,1.1.74.36-.11,1.77-.95.66-.6.73-1.33.88.2.93-.17,1Z"/><path class="cls-3" d="M401.42,59.27l1.43,1.13.58,1.85,3.2,1-1.88,2-2.17.35L399.63,65l-.95,1,.68,2.05L400,69.6l1.57,1.14L400,72.06l0,1.61-1.89,2.26-1.22,2.25-2,2.31-2.26-.16-2.15,2.28,1.27,1,.23,1.66L393,86.33l.39,1.84h-4.29l-1.29,1.41L386.4,89l-.58-1.53-1.5-1.63-3.59.41-3.16,0-2.74.3.73-2.5L378.37,83l-.16-1-.93-.35-.06-1.93-1.86-1-.78-1.33-1-1.17,3.27,1.13,1.94-.33,1.17.28.39-.48,1.36.19,2.52-.92.07-1.91,1.09-1.28h1.45l.21-.63,1.49-.3.72.21.76-.64-.11-1.37.83-1.4,1.24-.58-.77-1.54,1.85.07.54-.84-.08-.91,1-1-.23-1.18-.46-1,1.14-1,2.09-.51,2.23-.28,1-.45Z"/><path class="cls-3" d="M351.56,161.06l.52.85.48,1.31.31,2.4.51.94-.2,1-.34.59-.66-1.18-.37.6.37,1.49-.17.85-.54.47-.12,1.72-.77,2.38-1,2.83-1.2,3.94-.74,2.93-.88,2.46-1.59.51-1.7.9-1.12-.54-1.54-.77-.54-1.12-.13-1.88L339.5,182l-.18-1.51.35-1.5.89-.36V178l.93-1.56.17-1.31-.45-1-.37-1.29L340.7,171l.68-1.13.26-1.28,1-.08,1.08-.41.73-.37.85,0,1.11-1.15,1.6-1.23.59-1-.27-.85.83.23,1.07-1.38,0-1.19.64-.89Z"/><path class="cls-3" d="M323.1,77l-.55.89-.41,1.67-.53,1.14-.46.38-.65-.7-.87-1-1.39-3.18-.2.2.8,2.34L320,81l1.47,3.38.72,1.17.62,1.21,1.75,2.36-.39.37.07,1.37,2.26,1.88.35.43h-23.1V77.57l-.59-1.79.51-1.39-.31-1,.71-1.09,2.59,0,1.87.6,1.93.67.91.35,1.49-.72.81-.65,1.71-.18,1.39.28.53,1.13.45-.74,1.56.53,1.52.13.95-.57Z"/><path class="cls-3" d="M252.43,69.37l-.68-2.45-.11-1.42L250.9,64l-.84,0-2-.52-1.85.16-1.17-1h-1.43L243,64l-1.3,2.44-1.44,1-1.95,1.06L237,70.06l-.27,1.21-.73,2,.48,2.79-1.62,1.86-1,.59L232.38,80l-1.81.24-1,.84h8.67V78.45l3.14-1.64,1.94-.34,1.6-.6.74-1.12,2.27-.89.09-1.68,1.12-.2.89-.84,2.54-.39.36-.89Z"/><path class="cls-3" d="M343.53,62.06l1.28.72.15,1.38L344,65l-.45,1.83L344.88,69l2.38,1.26,1,1.74-.32,1.64h.62l0,1.2L349.66,76l-1.15-.11-1.31-.19-1.43,2.14-3.62-.18-5.49-4.5-2.9-1.59L331.42,71l-.79-2.81,4.31-2.43.74-2.86-.19-1.75,1.07-.59,1-1.52.83-.37,2.27.31.68.62.93-.41Z"/><path class="cls-3" d="M517.19,66.39l.25.8-1.1,1.4-.8-.74-1,.54L514,69.74l-1.27-.66,0-1.1,1.07-1.39,1.11.27.8-1Zm12.33-7.14-.73,1.93.34,1.2-1,1.68-2.49,1.11-3.42.14L519.43,68l-1.3-.89-.08-1.75-3.39.52-2.3,1.1-2.28,0,2,1.71-1.3,3.9-1.25,1-.95-.88.48-2.06L507.8,70,507,68.37l1.84-.71,1-1.47,2-1.21,1.43-1.62,3.87-.71,2.08.48,2-4.28,1.3,1.16,2.85-2.44,1.11-1,1.22-3-.33-2.85.82-1.62,2.07-.47,1.06,3.54-.06,2-1.8,2.5Zm5.71-18,1.37.57L538,40.68l.43,3-2.88.73L533.82,47l-3.06-1.79L529.7,48.1l-2.16,0-.27-2.6,1-2,2.08-.15.57-3.74.57-2.14,2.29,2.86Z"/><path class="cls-3" d="M338.39,104.71l-.25-.86-.59-.61-.15-.81-1-.73-1-1.7-.55-1.67-1.34-1.42-.87-.34-1.29-2-.23-1.45.09-1.24-1.12-2.33-.91-.83-1.05-.43-.64-1.22.1-.49L327,85.5l-.57-.48-.76-1.6-1.18-1.75-1-1.51-1,0,.3-1.21.09-.78.24-.88,2.16.35.84-.68.47-.8,1.48-.31.33-.75.64-.38-1.94-2.26,3.9-1.15.37-.34,2.34.62,2.9,1.59,5.49,4.5,3.62.18,1.73.21.49,1.06,1.37-.06.77,1.89.95.5.34.77,1.32.91.12.89-.19.72.24.72.56.6.26.7.29.53.59.42.54-.15.37.81.08.49.74,2.14,5.85,1.06.4-.45.89,1.49-1.3,4.14-5.84,2-5.61.79-1.82.92-1.39,2.13-.91.33-.49-.67-.74.1-1.89-.2-.35-.2-2.25,0-.53.19-.8-.53-.51,1,.2.86Z"/><path class="cls-3" d="M570.68,157.14l.54.68h-1.36l-.74-1.21,1.16.47Zm-2.47-1.2-.76.05-1.19-.2-.41-.3.12-.78,1.29.31.63.41Zm1.61-.53-.29.36-1.44-1.7-.41-1.17h.66l.7,1.57Zm-3.51-2.47.08.39-1.52-.83-1.07-.7-.73-.65.29-.2.9.47,1.59.9ZM561.76,151l-.39.11-.85-.45-.8-.8.1-.32,1.17.82Z"/><path class="cls-3" d="M321.23,118.38l-.26,0,0-1-.24-.67-1-.78-.23-1.42.23-1.46-.9-.13-.13.44-1.17.1.46.58.17,1.18-1.07,1.08-1,1.42-1,.2-1.64-1.15-.73.41-.2.57-1,.37-.07.41h-1.94l-.27-.41-1.4-.06-.7.33-.54-.17-1-1.14-.33-.54-1.41.27-.53.91-.5,1.75-.67.37-.6.21-.16-.09-.67-.56-.13-.61L301,118v-.8l-1.12-1.23-.22-.84,0-.48-.71-.58,0-1.15-.41-.76-.68.11.19-.73.51-.82-.22-.83.64-.61-.41-.47.51-1.23.89-1.48,1.68.14-.09-8,0-.87h2.24V93.13h23.1l.62,2-.42.37.28,2.13.71,2.44.74.51,1.07.75-1,1.16-1.43.33-.61.62-.19,1.34-.84,3,.2.8-.31,1.72-.79,1.95-1.17,1-.84,1.51-.19.81-.92.55-.58,2Z"/><path class="cls-3" d="M318.89,154.69l.92.87.49,1.67-.33.53-.39,1.6L320,161l-.62.69-.59,1.84,1,.52-5.91,1.64.18,1.43-1.47.28-1.11.8-.24.69-.69.16-1.69,1.67L307.77,172l-.66.05-.63-.24-2.18-.22-.35-.15v-.17l-.77-.46-1.26-.11-1.6.46L299,169.92l-1.31-1.65.09-6.36,4.05,0-.16-.69.29-.74-.34-.92.22-1-.21-.61.67,0,.11.61.92-.05,1.23.18.65.9,1.56.28,1.19-.63.44,1,1.49.27.72.85.8,1.09,1.49,0-.17-2.14-.53.36-1.36-.77-.53-.35.24-2,.35-2.33-.44-.86.56-1.25.52-.24,2.61-.33.77.2.81.5.78.33,1.24.33Z"/><path class="cls-3" d="M315.84,180.92l-1-.21-.65.25-.94-.35-.8,0-1.24-1-1.5-.32L309.1,178v-.73l-.83-.22-2.2-2.26-.62-1.19-.39-.36-.75-1.63,2.18.22.63.24.66-.05,1.08-1.31,1.69-1.67.69-.16.24-.69,1.11-.8,1.47-.28.13.75,1.62,0,.91.42.42.5.92.15,1,.65v2.56l-.38,1.42-.09,1.53.32.6-.22,1.22-.3.18-.51,1.5Z"/><path class="cls-3" d="M321.11,63.8l1.32-1-1.77.71-1.4,0L319,64h-.13l-.93.09.46,1,.95.3,2-1-.07-.19Z"/><path class="cls-3" d="M240.12,128.31l-.51,0-2-.92-1.77-1.48-1.66-1.06-1.31-1.26.47-.62.1-.57.88-1.06.91-.91.41,0,.51-.22.81,1.19-.12.79.37.41h.55l.4-.79.55.06-.09.56.2.94-.43.87.57.53.62.13.82.82.06.76-.18.25Z"/><path class="cls-3" d="M311.53,195.32l.68.67-.6,1.08-.33.73-1.09.35-.35.72-.7.22-1.46-1.72,1-1.41,1-.87.91-.45Z"/><path class="cls-3" d="M249.57,127.09l-.89,0-1.35-.38-1.25,0-2.31.34-1.35.56-1.93.71-.37-.05.15-1.59.18-.25-.06-.76-.82-.82-.62-.13-.57-.53.43-.87-.2-.94.09-.56H239l.12-.85-.16-.38.19-.27.72-.23-.48-1.57-.45-.81.16-.67.39-.15.25-.18.54.3h1.5l.36-.57.34,0,.56-.22.3.84.46-.25.8-.29.87.43.34.65.88.41.68-.49.91-.08,1.33.51.52,2.78-.82,1.64-.51,2.2.85,1.68Z"/><path class="cls-3" d="M280.58,132.38l-.24-.11-1.16.25-1.18-.26-.92.13-3.17,0,.28-1.52-.76-1.28-.89-.33-.39-.87-.5-.28,0-.54.5-1.37.93-1.88h.56l1.16-1.14.74,0,1.09.81,1.34-.66.18-.81.44-.79.3-1,1-.8.39-1.37.42-.44.27-1,.52-1.25,1.64-1.53.1-.66.21-.35-.77-.79.06-.63.55-.12.78,1.27.13,1.31-.07,1.31,1.06,1.79-1.09,0-.55.14-.89-.2-.42.93,1.15,1.14.85.34.27.81.61,1.34-.3.53-1,2-.47.36-.15,1.5.2.82-.16.58.92,1,.16.7.72,1,.89.62.09.88.21.57-.14,1-1.55-.46-1.57-.51Z"/><path class="cls-3" d="M273.61,134.81l-.37-.29.67-2.18,3.17,0v2.33l-2.83,0Z"/><path class="cls-3" d="M301.26,62.71l1.06.8,1.52-.13,1.44.17,0,.41,1.06-.29-.24.7-2.81.2,0-.39-2.37-.46Zm5.65-14.55-.6,1.61-.46.29L304.66,50l-1-.24-2.35.66,1.35,1.43-1,.42h-1.09l-1-1.31-.36.56L299.6,53l1,1.18-.74.54,1.09,1.15,1,.72,0,1.39-.94-.8-.86.15.57,1.24-.63.14-.7-.49L300.2,61h-.41l-.31-.88-.4,0-.18.92-.31-.21.07-.51-.39-.73h-.44l.08.59-.17.18-.43-.37-.27-.71.36-.4-.24-.51-.29-.26-.29-.07-.34-.65.4-.36.25-.34.39.07.17-.28.41-.12.48.32.38.12.27-.43-.65-.06-.39-.14-.87.2-.84,0-.76-1.14-.13-.17.12-.45-1-.8-.13-.72.91-1.22.11-.83.63-.37,0-.67,1.28-.23.74-.56,1.05.05.32-.45.37-.08,1.44.07,1.56-.71,1.37.9,1.77-.24,0-1.29Z"/><path class="cls-3" d="M276.72,144.46l-2-2-1.29-1.59-1.18-2,.07-.64.42-.62.47-1.41.4-1.43.65-.11,2.83,0v-2.33l.92-.13,1.18.26,1.16-.25.24.11-.14.84.54,1,1.45-.16.49.39-.85,2.24.92,1.14.22,1.51-.25,1.28-.6.92-1.72-.08-1-.93-.15.86-1.31.23-.67.49.73,1.28Z"/><path class="cls-3" d="M244.11,10.15l-1.05,2.28-1.47-.68-1.2.05.4-1.79-.4-1.8L242,8.07Zm5.17-14.41-2.08,4,2-.5,2.13,0-.5,2.93-1.75,3.14,2,.22.15.37,1.74,4,1.33.53,1.2,3.76.55,1.28,2.36.61-.24,2-1,.93.78,1.61-1.75,1.62-2.61,0-3.31.84-.91-.6-1.28,1.43-1.8-.35-1.37,1.16-1-.6,2.86-3.22,1.74-.67h0l-3-.52-.56-1.25,2-1-1.07-1.72.37-2.13,2.89.3h0L249.4,12l-1.31-2,0-.05-2.36-.59-.47-.92.71-1.52-.64-1-1.05,1.62-.11-3.33-1-1.79.7-3.72,1.52-3,1.55.29Z"/><path class="cls-3" d="M280.42,146l-.73-.67-.59.33-.78.83-1.6-2,1.48-1.07-.73-1.28.67-.49,1.31-.23.15-.86,1,.93,1.72.08.6-.92.25-1.28-.22-1.51-.92-1.14.85-2.24-.49-.39-1.45.16-.54-1,.14-.84,2.46.07,1.57.51,1.55.46.14-1,1-1.81,1.16-1,1.31.32,1.26.11-.12,1.17-.58,1-.38,1.21-.25,1.72.11,1.09-.32.67-.05.71-.22.62-1.28.93-.9,1-.84,1.88.06,1.59-.49.62-1.13.95-1.15,1.21-.73-.34-.12-.55-1.06,0-.67.74Z"/><path class="cls-3" d="M273.8,31.91l.08.51-.3.7.88.52,1,.07-.15,1.16-.86.48L273,35l-.42,1.13-.93.09-.33-.45-1.1.95-.93.13-.84-.6L267.78,35l-.93.44,0-1.28,1.42-1.6-.06-.73.89.27.53-.49,1.66,0,.4-.63Z"/><path class="cls-3" d="M286.91,148.14l.48,1.45.55,1.17.45.63.75,1,1.29-.16.64-.27,1.07.28.29-.49.49-1.14,1.21-.07.1-.34h1l-.17.7h2.36l0,1.22.39.76-.29,1.18.15,1.2.65.73-.11,2.34.48-.18.85,0,1.2-.3.89.12.21.61-.22,1,.34.92-.29.74.16.69-4.05,0-.09,6.36,1.31,1.65,1.28,1.27-3.58.82-4.71-.28-1.35-1-7.89.09-.3.14-1.16-.91-1.26-.06-1.17.34-.93.39-.19-1.27.27-1.78.68-1.83.1-.86.63-1.8.46-.81,1.12-1.3.62-.88.21-1.46-.1-1.12-.59-.7-.51-1.19-.48-1.18.1-.41.6-.77-.59-1.89-.4-1.3-1-1.23.18-.38.8-.26.57,0,.68-.23Zm-7.57-.37-.5.2-.52-1.46.79-.83.58-.33.73.67-.71.4-.31.5Z"/><path class="cls-3" d="M292.12,39.38h.71l-.49,1.2.94,1L293,42.88l-.45.12-.37.24-.63.62-.29,1.46-1.72-1-.73-1.12-.75-.59-.89-1-.42-.84-1-1.28.41-1.13.7.63.42-.57.91-.06,1.67.45,1.35,0Z"/><g class="cls-11"><path class="cls-3" d="M490.09,156.66l-.82,0-2.58-1.37,1.81-.39,1,.6.68.59Zm7.24-.19-1.67.43-.23-.23.18-.67.83-1.2,1.93-.78.19.39,0,.59Zm-12.72-4,.7.52,1.2-.16.49.83-2.25.39-1.35.26h-1l.67-1.13h1.07Zm9.74,0-.29,1.09-2.92.55-2.59-.24v-.71l1.55-.41,1.22.59,1.29-.15Zm-27.8-2.56,3.73.19.43-.8,3.61.93.71,1.27,2.92.35,2.39,1.16-2.22.75L476,153l-1.77,0-2-.14-1.82-.35-2.25-.75-1.43-.19-.81.24-3.55-.8-.34-.84-1.78-.14,1.34-1.86,2.36.12,1.57.76.81.15Zm50.81-1.1-1,1.32-.18-1.46.34-.7.41-.66.44.57Zm-14.55-5.35-.73.65-1.35-.36-.38-.83,2-.1Zm6.27-.71.71,1.49-1.65-.8-1.62-.16-1.1.12-1.35-.06.46-1.07,2.41-.08Zm7.14-3.75.55,3.13,2,1.15,1.63-2.05,2.23-1.17h1.73l1.67.68,1.44.69,2.09.37,0,6.32,0,6.35-1.74-1.6-2-.39-.48.55-2.47.06.83-1.59L525,151l-.51-2.12-.93-1.63-3.77-1.64-1.61-.16-2.92-1.79-.58.94-.74.17-.45-.71v-.84l-1.49-.95,2.1-.7,1.39,0-.17-.52H512.5l-.77-1.15-1.74-.36-.82-1,2.62-.46,1-.63,3.13.79Zm-17.32-5-1.57,1.91-1.46.38-1.87-.38-3.25.09-1.7.28-.27,1.47,1.74,1.72,1.05-.88,3.63-.66-.16.89-.85-.28-.84,1.13-1.72.75,1.84,2.48-.35.67,1.75,2.24,0,1.27-1,.57-.76-.68.94-1.59-1.91.75-.48-.54.25-.74-1.41-1.14.15-1.89-1.3.59.17,2.26.07,2.78-1.23.28-.84-.57.56-1.79-.3-1.87h-.82l-.6-1.33.8-1.27.28-1.53,1-2.92.41-.8,1.65-1.43,1.52.57,2.45.27,2.24-.08,1.93-1.41Zm6.71.55-.1,1.69-1-.19-.29,1.18.8,1-.55.23-.78-1.22-.58-2.48.39-1.54.65-.71.14,1.06,1.14.17Zm-21.05-1.34,2.18,1.79-2.3.22-.65,1.32.08,1.75L482,139.64l-.05,1.92-.75,3-.29-.69-2.21.88-.77-1.19-1.39-.11-1-.62-2.31.7-.71-.94-1.28.11-1.6-.23-.3-2.59-1-.54-.93-1.65-.28-1.69.23-1.8,1.16-1.28.32,1.29,1.33,1.09,1.26-.39,1.24.14,1.14-1,.93-.17,1.84.54,1.59-.41,1-2.69.75-.67.67-2.21h2.24l1.68.32-1.1,1.75,1.43,1.83ZM461.09,148.1l-2.15,0-1.64-1.63-2.5-1.58-.84-1.18-1.47-1.57-1-1.45L450,138l-1.7-1.61-.58-1.66-.71-1.51L445.29,132l-1-1.66-1.46-1.08-2-2.14-.17-1,1.25.08,3,.37,1.72,1.9,1.51,1.32,1.07.8L451,132.7l2,0,1.63,1.33,1.13,1.62,1.48.88-.78,1.58,1.11.67.7.05.33,1.35.68,1.08,1.43.17,1,1.22-.49,2.41Z"/></g><path class="cls-3" d="M327,48.75l2.79,1,2.27-.39,1.67.23,2.3-1.35,2.07-.12L340,49.37l.33.91-.19,1.24,1.45.63.76.74L341,53.6l.61,2.86-.38.76,1.06,2-.93.41-.68-.62-2.27-.31-.83.38-2.22.37-1,0-2.24.91h-1.6l-1-.46-2.15.68-.63-.47-.11,1.34-.52.53-.52.52-.72-1.09.74-.9-1.19.2-1.62-.55-1.34,1.39-3,.27-1.57-1.3-2.1-.08-.45,1-1.34.29-1.89-1.28-2.12,0L307.78,58l-1.43-1.36.95-1.93-1.23-1.2,2.16-2.42,3-.1.82-2,3.71.35,2.34-1.68,2.27-.74,3.22,0ZM308.06,50.4l-1.63,1.38-.61-1.19,0-.53.46-.29.6-1.61-1-.69,2-.82,1.67.35.23,1,1.7.84-.35.63-2.31.14Z"/><path class="cls-3" d="M321.12,138.6l.33.21,7.06,3.94.13,1.12,2.79,1.94-.9,2.4.12,1.1,1.24.71.06.5-.53,1.18.11.59-.13.94.68,1.22.81,1.94.71.43L332.05,158l-2.13.76-1.16,0-.7.59-1.35.05-.51.25-2.34-.55-1.46.16-.55-2.68-.66-.92-.39-.54-1.91-.36-1.1-.59-1.24-.33-.78-.33-.81-.5-1-2.46-1.13-1.09-.39-1.12.2-1-.35-1.79.8-.09.71-.71.75-1,.48-.4v-.63l-.42-.44-.12-.76.57-.25.11-1.13-.77-1.1.68-.23,2.13,0Z"/><path class="cls-3" d="M358.5,104.1l-1.41.54-.38.9,0,.68-1.94.85-3.11.93-1.74,1.41-.86.11-.58-.12-1.14.83-1.24.38-1.64.1-.49.12-.42.52-.51.15-.3.5-1,0-.62.27-1.35-.1-.5-1.16.05-1.09-.32-.59-.38-1.48-.56-.82.39-.1-.2-.91.24-.39-.09-.88.86-.64-.2-.86.51-1,.8.53.53-.19,2.25,0,.35.2,1.89.2.74-.1.49.67.91-.33,1.39-2.13,1.82-.92,5.61-.79,1.52,3.37Z"/><path class="cls-3" d="M315.14,130l-.11,2.27.78.26-.63.68-.75.52-.74,1-.41.9-.11,1.55-.45.74,0,1.45-.56.54-.07,1.15-.27.15-.18,1.06.49.88.13,2.34.35,1.79-.2,1,.39,1.12,1.13,1.09,1,2.46-.77-.2-2.61.33-.52.24-.56,1.25.44.86-.35,2.33-.24,2,.53.35,1.36.77.53-.36.17,2.14-1.49,0-.8-1.09-.72-.85-1.49-.27-.44-1-1.19.63-1.56-.28-.65-.9-1.23-.18-.92.05-.11-.61-.67,0-.89-.12-1.2.3-.85,0-.48.18.11-2.34-.65-.73-.15-1.2.29-1.18-.39-.76,0-1.22h-2.36l.17-.7h-1l-.1.34-1.21.07-.49,1.14-.29.49-1.07-.28-.64.27-1.29.16-.75-1-.45-.63-.55-1.17-.48-1.45-5.75,0-.68.23-.56,0-.81.26-.27-.61.5-.2.06-.85.31-.5.71-.4.51.19.67-.74,1.06,0,.12.55.73.34,1.15-1.21,1.13-.95.49-.62-.06-1.59.84-1.88.9-1,1.28-.93.22-.62.05-.71.32-.67-.11-1.09.25-1.72.38-1.21.58-1,.12-1.17.17-1.35.76-1,1-.62,1.6.66,1.24.71,1.43.2,1.45.37.58-1.17.27-.15.88.2,2.17-1,.77.41.63-.06.29-.47.72-.17,1.47.21,1.25,0,.64-.2,1.18,1.6.87.23.52-.32.9.13,1.09-.41.46.82Z"/><path class="cls-3" d="M284,91.32l-1.38.78L281.56,91,278.48,90l-.85-1.33-1.54-1-.91.39-.69-1.19-.07-.92-1.15-1.56.77-.91-.17-1.36.25-1.19L274,80l.34-1.8-.11-1-.63-2,.95-.52.17-1-.2-.93,1.33-.88.6-.73.95-.66.11-1.77,2.29.8.81-.2,1.63.38,2.58,1,.91,2,1.75.44,2.74.94,2.08,1.12,1-.58.93-1-.45-1.74.61-1.11,1.4-1.07,1.34-.32,2.63.47.67,1h.72l.62.39,1.93.27.48.75-.71,1.09.31,1-.51,1.39.59,1.79v19.7h-2.24l0,.87-7.77-4-7.76-4Z"/><path class="cls-3" d="M317.55,190.46l-.39,1-1.14.24-1.16-1.18,0-.75.53-.81.18-.63.56-.15,1,.39.29,1Z"/><path class="cls-3" d="M360.08,59.11l1.71-.47,1.39-1.4,1.3.07.85-.46,1.39.23,2.15,1.24,1.55.27,2.23,2.15,1.45.08.17,2-.79,3-.54,1.7.85.34L373,69.1l.63,1.84.16,1.44,1.47.39.16,1.45-1.77,2,1,1.17.78,1.33,1.86,1,.06,1.93.93.35.16,1-2.81,1.11-.73,2.5L371.17,86,369,85.49l-2.19-.28L366,82.56l-.94-.39-1.49.39-2,1-2.38-.72-2-1.67-1.87-.62-1.3-2.09-1.44-3-1.05.37-1.23-.74-.73.87-1.08-1.18,0-1.2h-.62l.32-1.64-1-1.74L344.88,69l-1.35-2.21L344,65l1-.82-.15-1.38-1.28-.72-1.26-2.88-1.06-2,.38-.76L341,53.6l1.34-.71.3.94,1,1.16,1.33.33.71-.08,2.29-1.84.73-.19.58.74-.67,1.24,1.21,1.29.48-.12.62,1.81,1.85.51,1.35,1.22,2.77.42,3-.64Z"/><path class="cls-3" d="M374.27,62.84l2,.9,1.47-.31.41-1.08,1.53-.36,1.1-.73.39-1.94,1.64-.47.31-.87.91.66.59.07,1.08,0,1.47.51.6.3,1.41-.78.65.47.63-1.12,1.16,0,.3-.36.21-1L393,56l1.05.56-.21.75.59.12-.18,2,.77.8.67-.51.87-.24,1.21-1.09,1.34.18h2l.35.7-1.14.27-1,.45-2.23.28-2.09.51-1.14,1,.46,1,.23,1.18-1,1,.08.91-.54.84-1.85-.07.77,1.54-1.24.58-.83,1.4.11,1.37-.76.64-.72-.21-1.49.3-.21.63h-1.45l-1.09,1.28-.07,1.91-2.52.92-1.36-.19-.39.48-1.17-.28-1.94.33-3.27-1.13,1.77-2-.16-1.45-1.47-.39-.16-1.44L373,69.1l.83-1.27-.85-.34.54-1.7Z"/><path class="cls-3" d="M317,18.13l.72.13.5-.72.59.16,2-.31,1.25,1.79-.49.63.16,1,1.56.15.69,1.34,0,.6,2.47,1.07,1.49-.48,1.2,1.42,1.14,0,2.87,1,0,.88-.79,1.55.43,1.61-.31,1-1.88.21-1,.81-.06,1.27-1.56.23-1.29.92-1.82.14-1.68,1.06-.92.71,1,1,1,.67,2-.17-.38,1-2.13.47-2.64,1.58L320,40.19l.43-1.29-2.12-.8.34-.53,2.2-1.14-.28-.56-.31.28-.31-.15-3-.7-.14-1.06-1.8.35-.72,1.55-1.51,2-.89-.47-.91.44-.87-.51.49-.3.34-1,.54-.9-.14-.5.4-.22.2.39,1.14.08.52-.21-.36-.28.13-.43-.68-.72-.28-1.19-.71-.47.14-1-.88-.78-.8-.11-1.43-.91-1.3.29-.46.43h-.82l-.49.68-1.44.27-.66.45-.91-.71h-1.24l-1.21-.32-.84.62-.13-.78-1.08-.79.38-1.18.54-.77.42.17-.5-1.34,1.77-2.5,1-.36.21-.86-1-2.7.93-.12,1.07-.85,1.51-.07,2,.25,2.17.75,1.54.06.73.45.73-.54.51.73,1.76-.15.77.3.13-1.57.6-.69Z"/><path class="cls-3" d="M591.9,223.7l.44,1.06,1.38-1,.56,1.09v1.09l-.73,1.21-1.27,1.94-1,1.07.72,1.29-1.5,0-1.67,1-.52,1.78-1.1,2.8-1.53,1.25-1,.8-1.8-.06-1.26-.93-2.11-.19-.33-1,1-2,2.45-2.69,1.25-.51,1.4-1,1.67-1.4,1.17-1.37.86-2,.74-.65.29-1.44,1.36-1.19ZM595,211.89l1.41,2.55,0-1.66.88.66.29,1.84,1.57.8,1.32.2,1.11-.94,1,.28-.48,2.19-.59,1.45-1.49,0-.52.76.19,1.09-.29.47-.74,1.37-1,1.76-1.51,1-.33-.68-.81-.37,1.12-2.11-.64-1.4-2.09-1,0-.91,1.41-.87.33-1.9-.09-1.59-.79-1.62,0-.43-.93-1L592,209.7l-.81-1.67.72-.19,1.06,1.31,1.51.62Z"/><path class="cls-3" d="M581.82,169.05l-.64.26-.65-.88.07-.54ZM580.39,166l.31,1.62-.52-.25-.41.1-.27-.55,0-1.53Z"/><path class="cls-3" d="M433.61,80.8l.79.7-.14,1.34-1.59.06L431,82.76l-1.22.34L428,82.27l0-.44,1.28-1.62,1.06-.56,1.39.51,1,0Z"/><path class="cls-3" d="M316.48,196l-.38.32-.82,1.13-.55,1.15-1.1,1.62-2.2,2.35-1.37,1.38L308.59,205l-2,.9-1,.12-.25.65-1.19-.35-1,.44-2.11-.45-1.18.29-.8-.12-2,.92-1.66.37-1.21.89-.88.06-.82-.84-.66,0-.84-1.05-.09.32-.26-.62v-1.37l-.63-1.54.63-.42-.06-1.76-1.27-2.12-1-1.9h0l-1.4-2.89.93-1.08.77.6.33.94.87.16,1.23.42,1-.16,1.74-1.13v-8l.53.32,1.15,2-.18,1.31.44.76,1.39-.22,1-1,.93-.65.47-1,.95-.5.82.26.93.6,1.59.11,1.24-.5.2-.67.34-1,1.06-.17.58-.8.65-1.41,1.75-1.57,2.75-1.55.8,0,.94.35.65-.25,1,.21.93,3,.51,1.5-.35,2.38.17.77-1-.39-.56.15-.18.63-.54.81,0,.75,1.16,1.17,1.14-.23.4-1,1.48,0-.49,1.59-.23,1.82-.5,1Zm-5-.67-.85-.68-.91.45-1,.87-1,1.41,1.46,1.72.7-.22.35-.72,1.09-.35.33-.73.6-1.08Z"/><path class="cls-3" d="M342.72,52.82l.58.67h.86v.38l.79,1.45L343.61,55l-1-1.16-.3-.94Zm4.62-3.77.86.17.33-.65,1.16-1,1,1.36,1,1.82.9.12.6.69-1.6.2-.34,2-.33.88-.72.58.06,1.23-.49.12-1.21-1.29.67-1.24-.58-.74-.73.19-2.29,1.84,0-1.73-.87-.41-.83-.69.55-.8-1-.88.39-.64-.74-.44-.41-.68.48-.42,1.45.74,1.05.16.26-.31-.95-1.4.5-.36.55.09Z"/><path class="cls-3" d="M469.89,100l-1.68,1-1.6-.63-.05-1.76,1-.93,2.12-.58,1.12,0,.44.79-.86.9ZM503.6,25.34l3.39,1,2.3,2.11.79,2.74h3L514.73,30l3.21-.86-1,2.61-.76,1.05-.66,3.09-1.31,2.7-2.36-.49-1.67,1,.51,2.33-.28,3.16-1,.07,0,1.34-1.26-1.56-.77,1.48-3,1.13.3,1.37-1.68-.1-.92-.81-1.34,1.84-2.15,1.37L497,52.34l-2.72.74-1.43,1.17-2.1.68,1-1.16-.4-1,1.54-1.7-1-1.34-1.7.9L488,52.42,486.8,54l-1.91.12-1,1.17,1,1.67,1.59.4.07,1.1,1.54.71,2.18-1.74,1.73,1,1.26.07.31,1.27-2.75.68-.91,1.3-1.9,1.2-1,1.66,2.09,1.29.77,2.3,1.18,2.11,1.32,1.76,0,1.68-1.22.62.46,1.2,1.15.69-.3,1.81L492,79.81l-1.09.2-1.42,2.36-1.58,2.84-1.81,2.55-2.67,2-2.71,1.77-2.19.24-1.19.93-.68-.68-1.1,1-2.72,1-2.06.32-.66,2.19-1.08.12-.51-1.5.46-.8-2.61-.67-.92.34-2-.54-.93-.85.31-1.21-1.78-.38-.94-.79-1.66,1.12-1.89.24H455l-1.05.51-1,.31.3,2.38-1,0-.17-.49-.06-.86-1.43.6-.84-.38-1.45-.78.57-1.74-1.23-.41-.47-1.94-2.05.35.23-2.53,1.84-1.79.08-1.78-.06-1.66-.85-.52-.65-1.29-1.14.16-2.09-.33.65-.93-.91-1.38-1.39.94-1.63-.55L437,78.89l-1.77,1.64-1.57.27-.86-.59-1,0-1.4-.51-1.05.56L428,81.83l-.17-1.72-1.18.46-2.27-.21-2.21-.5-1.58-1-1.51-.44-.65-1.06-1.09-.32-2-1.45-1.56-.69-.81.53-2.7-1.57-1.91-1.43-.55-2.52,1.4.31.06-1.18-.77-1.18.19-1.91-2.09-2.77-3.2-1-.58-1.85-1.43-1.13-.35-.7-.29-1.39.07-1-1.19-.57-.64.25-.49-2.31.56-.57-.27-.59,1.85-1.2,1.35-.5,2.06.34.74-1.63,2.49-.31.7-1,3.07-1.41.27-.59-.16-1.51,1.34-.69-1.75-4.69,3.85-1.09,1-.62,1.4-5,3.87.94L422,32.12l.09-2.91,1.62-.27,1.48-2,.76-.24.51,2.06,1.64,1.55,2.77,1.08,1.35,2.31L431.45,37l.7,1.2,2.31.47,2.62.38,2.35,1.7,1.21.3.88,2.48,1.15,1.58,2.14-.06,4,.59,2.59-.37,1.92.39,2.88,1.59h2.35l.87.81,2.26-1.4,3.15-.91,2.91-.1,2.28-.93,1.39-1.42,1.37-.9-.32-.89-.62-1,1-1.76L474,39l2,.55,1.94-1.46,3-1.07,1.43-1.85,1.37-.8,2.83-.38,1.53.32.22-1-1.77-2-1.56-.93-1.49,1.07L481.52,31l-1.11.37-.5-1.19,1.38-2.93.94-2.25,2.34,1.13,2.74-1.9V22.85l1.75-3.28,1.09-1,0-1.75L489,16.05l1.61-1.61,2.42-.58,2.58-.09,2.91,1,1.71,1.19,1.21,3.2.73,1.34.67,1.9Z"/><path class="cls-3" d="M314.34,139l.77,1.1-.11,1.13-.57.25-1-.13-.6,1.1-1.18-.15.18-1.06.27-.15.07-1.15.56-.54.47.2Z"/><path class="cls-3" d="M425.93,26.73l2.05-.52,3.71-2.59,3-1.44,1.7.94,2,0,1.3,1.42,1.94.11,2.81.76,1.9-2.11-.79-1.8,2-3.24,2.18,1.3,1.77.37,2.29.8.37,2.3,2.76,1.28,1.84-.56,2.47-.4,1.95.4,1.9,1.45,1.18,1.53,1.81,0,2.45.48,1.79-.73,2.56-.5,2.85-2.12,1.17.33,1,1,2.32-.25-1,2.25-1.37,2.94.5,1.18,1.1-.37,1.92.45,1.5-1.07,1.56.93,1.76,2-.21,1L486.5,34l-2.82.38-1.37.8L480.88,37l-3,1.07L476,39.52,474,39l-1.09-.25-1,1.76.62,1,.31.89-1.36.9L470,44.73l-2.27.93-2.92.1-3.14.91-2.27,1.4-.86-.81h-2.35l-2.88-1.59-1.93-.39-2.58.37-4-.59-2.15.06-1.14-1.58-.89-2.47-1.2-.31-2.35-1.69-2.62-.39-2.32-.47-.7-1.2.75-3.28-1.34-2.3-2.78-1.09-1.63-1.55Z"/><path class="cls-3" d="M459.93,108.87l.63-.9.09-1.69-1.58-1.76-.12-2-1.48-1.66-1.47-.14-.4.71-1.14.06-.58-.36-2.05,1.22-.05-1.83.48-2.15-1.31-.1-.11-1.23-.85-.64.42-.76,1.65-1.35.18.49,1,0-.3-2.38,1-.31,1.14,1.65.87,1.89,2.4,0,.75,1.8-1.24.53-.56.74,2.33,1.23,1.62,2.4,1.23,1.78,1.47,1.4.49,1.42-.35,2-1.73-.73-.88,1.37Z"/><path class="cls-3" d="M625.14-35.14l-1.93,2.06-3.19.49,0,4.48-.78.94-1.82-.14-1.48-1.57-2.59-1.33-.44-2-2-.77-2.22.61L607.61-34l.43-1.77-2.33,1.14.87,2.21-1.1,2v0l-2.51,2-2.52-.33,1.76,2.39,1.16,3.61.89,1.15.23,1.76-.5,1.11-3.63-.91-5.44,3.13-1.73.48-3,2.84-2.82,2.44L586.66-9l-2.78-2.71L578.8-8.64l-.88-1.44L576-8.42l-2.6-.53-.63,2.52-2.33,3.62.07,1.48,2.22.82-.27,5.18-1.8.13-.84,2.88.81,1.46-3.4,1.71-.68,3.75-2.9.79-.58,3.24-2.81,2.9-.72-2.14-.83-4.64-1.09-7.4.94-4.82L560.24.39l.1-1.69,3-.82,3.48-4.71,3.35-4L573.69-14l1.57-5.81-2.37.35L571.72-16l-4.93,4.42-1.6-5-5,1.39L555.3-8.53l1.6,2.35-4.34,1-3,.39.14-2.74-3-.58-2.42,1.87-6-.65-6.4,1.13-6.3,7.17-7.46,8.17,3.06.43,1,2.08,1.89.73,1.25-1.65,2.13.22,2.81,3.6.07,2.72-1.52,3.14-.17,3.65-.88,4.76-2.93,4.17-.65,2-2.64,3.23-2.63,3.14-1.25,1.59L515,44.89l-1.22,0-1.23-1.29L510,45.57l-.3.87L509.4,46V44.65l1-.08.28-3.16-.52-2.33,1.67-1,2.37.49,1.31-2.7.66-3.1.76-1,1-2.61-3.22.86L513,31.15h-3l-.79-2.74L507,26.3l-3.39-1-.72-3-.68-1.9-.73-1.34-1.2-3.2-1.71-1.19-2.91-1-2.59.09-2.41.58L489,16.05l1.07.76,0,1.75-1.08,1-1.76,3.28,0,1.34-2.74,1.9L482.23,25l-2.32.25-1-1-1.17-.32L474.87,26l-2.56.49-1.79.74-2.45-.48-1.81,0-1.18-1.53-1.91-1.45-1.95-.4-2.46.39-1.84.57-2.76-1.28-.37-2.31L451.5,20l-1.77-.36-2.18-1.3-2,3.23.8,1.81-1.9,2.1-2.81-.75-1.94-.11-1.31-1.42-2,0-1.69-.94-3,1.43L428,26.21l-2.05.52-.77.24-1-1.83-2.51.4-.82-1.28-1.37-.58-.93-1.77-1.08-.56-2.79.8L412,20.37l-1,1.61-4.35-8-2.49-2.54.72-1.05-4.88,3.12-1.87.19.16-1.79-2.5-1.13-2,.8-.61-3.47-3.5-.74-1.75,1.41L382.94,10l-.95.83L374.71,12l-.9,1.13,1.41,2.22-1.87.84.36.87-1.86,1.54L375,20.72l-.49,1.47-2.73-.14-.57.91-2.48-1.59-3.09.06-2.07,1.3-2.3-1.24L357,19.33l-3,.09-4,3.36L349.68,25l-2-1.76-1.56,3.31.57.61-1.12,2.23,1.65,2,1.45-.08,1.24,1.91-.2,1.46,1,.46-.89,1.66-1.89.46L346,40.06l1.77,2.57-.19,1.8,2.12,3.09-1.16,1-.33.66-.87-.18L346,47.47l-.55-.09-1.22-.6-.6-1.08-1.81-.55-1.18.42-.35-.49-2.65-1.27-2.86-.44-1.65-.45-.23.31L330.41,41l-2.22-1-1.68-1.61,1.42-.44,1.61-2.33-1.08-1.11,2.86-1.16-.05-.62-1.74.46.06-1.27,1-.81,1.88-.21.31-1-.43-1.61.79-1.55,0-.88-2.87-1-1.14,0-1.2-1.41-1.49.48-2.48-1.07.05-.61-.7-1.33-1.55-.15-.16-1,.49-.63-1.25-1.79-2,.31-.59-.16-.49.72-.73-.13-.47-2L316.06,15l.37-.3,1.57.11.76-.71-.56-.87-1.31-.57.12-.6-.8-.6L315,9.29l.42-.91-.19-1.61L313.32,6l-1,.41L312,5.51l-2-.88-.62-2.07L309.18.83,308.24,0l.84-1.15L308.5-4.6l1.38-2.17-.29-.67,2.21-2.13-2-1.86,4.17-5.14,1.81-2.4.73-2.15-2.88-3,.79-2.88-1.75-3.36,1.31-4-2.26-5.52,1.8-3.8-3-3.47.29-3.75,1.57-.5,3.31-2.21,2-2,3.2,3.38,5.33,1.3,7.35,6,1.5,2.44.12,3.33L333-36.53l-3.17,1.28-8.69-3.69-1.43.63,3.17,3.54.12,2.19.13,4.68,2.51,1.37,1.52,1.15.25-2.16-1.17-1.94,1.24-1.74,4.7,2.85,1.64-1.11-1.31-3.39,4.54-4.68,1.79.28,1.82,1.69,1.13-3.34-1.62-3,.95-3.06-1.43-3.26,5.45,1.7,1.11,2.9L343.8-43v2.8l1.53,1.7,3-1.07.48-3.2,4.06-2.45,6.79-4.54,1.47.26-1.92,3.22,2.42.55,1.39-1.8,3.65-.14,2.89-2.22,2.22,3.21L374-50.19l-2-3.18,1-1.85,5.75,1.7,2.7,1.73,7.05,6.1,1.3-2.76-2-2.85-.05-1.16L385.4-53l.64-2.65-1-4.51-.06-1.9,3.59-5.55,1.28-5.84,1.45-1.3L396.41-73l.41,3.6-1.85,5,1.21,1.93.63,4.13-.44,7.68,2.14,3.29-.83,3.47-3.81,7.08,2.22.71.78-1.74L399-39.08l.51-2.47L401.21-44l-1.14-3,.91-3.53-2.13-.44L398.39-54l1.55-5.75-2.53-4.88,3.48-4.19-.45-4.6,1-.15,1,3.6-.77,6,2.08,1.11-.88-4.43,3.25-2.48,4-.34,3.6,3.59L412-71.76l-.19-7.13,3.38-1.41,4.68.31,4.22-.92-1.58-3.73,2.25-4.87,2.24-.21,3.78-3.83,5.14-1,.65-2.19,5.11-.75,1.59,1.81,4.37-4.33,3.58.14.53-3.64,1.86-3.7,4.6-3.69,3.34,2.92-2.65,2.18,4.41,1.33.52,4.19,1.78-2,5.69.12,4.39,4.05,1.56,3-.48,4.07-2.16,2.25-5.11,4.11-1.46,2.13,2.41,1,2.88,1.77,1.75-1.33,1,4.44.86-1.78,3.11-1.09,6.24,1.14.48,3.18,8.14,1,.11-5.18,4.13,1.21,3.11,0,3.14,3.56.89,4.2-1.15,2.66L507.61-63l3.06,2.42L512.55-67l3.12,2.77L519-65.88,522.75-64l1.44-1.72,3.18.86L526-70.68l2.57-2.82,17.57,4.21,1.66,3.71,5.1,4.62,7.86-1.12,3.87,1,1.62,2.43L566-54.5l2.4,1.59L571-54l3.45-.15,3.67,1.1,3.69-.62,3.39,4.86,2.42-1.73L586-54.11l.87-2.51L593.11-55l4-.34,5.59,2.67,2.73,2.38,4.77,4.07,5.1,5.1-.17,3.08,1.32,1.21-.45-3.57,5.28.74ZM536.68,27.68l-2-5.33-.8-3.13.05-3.13L533.3,13l-.51-2.19-.87.47.78,1.53-1.8,1.5-.17,4.37,1.14,3.07-.09,4.06L531.33,28l.22,3.15L531.34,34l.36,2.36L533,34.15l1.48,1.69,0-2-1.89-2.94,1.19-4.24ZM298.56,8.6l-2-.59L293.84,9.1l-.44,1.48,2.39.38,3.58-.05-.15-.85.2-.92ZM605.48-60.9l2.54-.36,2-1.43.16-.83-2.81-1.75h-1.65l-.25.26L603-62.49l.35,1.89ZM529.2-79.71,527.36-77l.34.36,4,.75,2.95,0-.24-1.79-2.76-2.64Zm17.06-6.61,2.25-3-4.88-2L540-92.43l-.47,2.49,3.62,3ZM528.82-87.5l7.17.21,1.53-5.65-7-4.22-5.14-.35L522.78-96l-1,5.38,3.86,4.87Zm-69.17-29.15.58-4-4.94-5.79-1.46-.69-1.6,1.18L448.67-113Zm-22.9-11.29,3.23,4L445.4-121l4.25-1.25.48-9.46-4.48-11.13-3.78-6.27-4.21,2.86-5.06,8.21,2.66,2.27Z"/><path class="cls-3" d="M322.4,159.19l1.46-.16,2.34.55.51-.25,1.35-.05.7-.59,1.16,0,2.13-.76,1.55-1.14.32.88-.08,2,.24,1.74.07,3.11.34,1-.58,1.43-.75,1.39-1.24,1.25-1.78.77-2.19,1-2.2,2.18-.75.37-1.36,1.46-.8.47-.17,1.47.93,1.57.38,1.22,0,.63.35-.11-.06,2.06-.31,1,.45.36-.28.88-.82.76-1.6.71-2.34,1.16-.86.79.17.91.5.15-.17,1.14-1.48,0-.16-1-.29-1-.17-.77.35-2.38-.51-1.5-.93-3,2.05-2.36.51-1.5.3-.18.22-1.22-.32-.6.09-1.53.38-1.42v-2.56l-1-.65-.92-.15-.42-.5-.91-.42-1.62,0-.13-.75-.18-1.43,5.91-1.64,1.12,1,.53-.19.77.51.11.8-.41.93.15,1.42,1.27,1.25.59-1.4.84-.43-.16-2.58-.82-1.44-.7-.64-.67,0-.55-2.58Z"/><path class="cls-3" d="M229.55,81.09l-1.23,2.22-1.3.79-.7,1.33,0,1.14-.51,1.25-.66.34L224,89.51,223.35,91l.13.72-.64,1.09-.75.57-.09,1-.08.88.42-.7,7.62,0-.37-3,.48-1.08,1.82-.19-.06-5.45,6.39.12V81.62l0-.42v-.14h-8.68Z"/><path class="cls-3" d="M298.31-33.94l-1.89,3.26.3,2.79-3.09,3.56-3.76,3.71-1.42,5.84L289.84-12l1.86,2.18-1.79,4.32-2,.88-.74,6.14L286,4.86l-2.36-.34-1.11,2.74-2.25.16-.62-3.27-1.63-4-1.48-5.21.86-2.18,1.62-2.65.64-4.67-1.24-2.07-.12-5.58,1.26-4.1,1.93.08.68-1.78-.71-1.55,3-6.59,1.94-5.46,1.29-3.64,1.87,0,.51-2.93,3.67.85.29-3.53,1.2-.22,2.6,2.64,3,3.57.05,7.72.65,1.88Z"/><path class="cls-3" d="M426.65,80.57l-.15,1,.25,1.38-.22.85-1.62,0-2.34-.5-1.51-.21L419.94,82l-2.67-.29-2.54-1.22-1.83-1.08L411,78.55l.76-2.07,1.23-1,.81-.53,1.56.69,2,1.45,1.09.32.65,1.06,1.51.44,1.58,1,2.21.5Z"/><path class="cls-3" d="M261.58,20.5l1.43.24,1.8-.64L266,21.45l1.07.72-.22,2.06-.51.12L266.17,26l-1.7-1.37-1,.23-1.36-1.43-.9-1.22-.91-.05L260,21.11Z"/><path class="cls-3" d="M336,48.23l.29-1.11-.49-1.79-1.12-1-1.08-.31-.71-.82.23-.31,1.65.45,2.86.44,2.65,1.27.35.49,1.18-.42,1.81.55.6,1.08,1.22.61-.5.35.95,1.4-.26.3-1.05-.15-1.45-.74-.48.42-2.7.4-1.88-1.26Z"/><path class="cls-3" d="M274.44,8.71l0,1.3,2,.78,0,1.18,2-.62,1.09-.92,2.2,1.32.92,1.05.46,1.66-.55.86.71,1.15.48,1.7-.15,1.08.8,2-.87.32-.51-.35-.49.58-1.4.6-.72.76-1.42.66.34.9L279.5,26l1,.72,1.1,1.27-.69,1.36-.69.37.27,1.89-.18.48-.61-.58-.93-.09-1.39.51-1.72-.12-.27.76-1-.8-.59.16L271.72,31l-.4.63-1.66,0,.25-2.07,1-2-2.8-.55-.92-.78.11-1.31-.39-.69.22-2.06-.33-3.25H268l.5-1.19.48-2.93-.36-1.1L269,13l1.63-.17.36.72,1.32-1.62-.45-1.25-.09-1.9,1.47.44Z"/><path class="cls-3" d="M339,112l.46.61-.06.83-1.11.47.84.54-.72,1-.43-.35-.47.14-1.09,0,0-.6-.15-.54.66-.93.68-.88.83.18Z"/><path class="cls-3" d="M288.18,30.18,288,31.36h-1.1l.38.62-.65,1.84-.37.48-1.7.07-1,.64L282,34.8l-2.78-.73-.44-1-1.92.5-.23.54-1.18-.41-1-.07-.88-.52.3-.7-.08-.51.59-.16,1,.8.27-.76,1.72.12,1.39-.51.93.09.61.58.18-.48-.27-1.89.69-.37.69-1.36,1.45,1,1.09-1.2.69-.23,1.51.91.91-.16.9.56-.16.37Z"/><path class="cls-3" d="M282,34.8l1.61.22,1-.64,1.7-.07.37-.48.33,0,.38,1-1.55.74-.19,1.13L285,37v.77l-.76,0-.66-.45-.36.46-1.36-.09.44-.25-.47-1.19Z"/><path class="cls-3" d="M291.78,36.48l.47,1.08.62.79-.75,1-.88-.61-1.35,0-1.67-.45-.91.06-.42.57-.7-.63-.41,1.13,1,1.28.42.84.89,1,.75.59.73,1.12,1.72,1-.21.44-1.83-1-1.13-1L286.3,43l-1.64-2,.4-.2-.89-1.15,0-.92-1.25-.43-.6,1.18-.57-.92,0-1,.07,0,1.36.09.36-.46.66.45.76,0V37l.68-.29.19-1.13,1.55-.74.62.34,1.45,1.2,1.61.54Z"/><path class="cls-3" d="M295.21,47.4l-.25.88.27,1.11L296,50l0,.68-.63.37-.12.82-.9,1.23-.33-.18,0-.55-1.08-.85-.17-1.22.17-1.75.26-.81-.33-.41-.13-.83.85-1.29.12.49.52-.23.42.7.46.27Z"/><path class="cls-3" d="M340,49.37l2.7-.4.41.68.74.44-.39.64,1,.88-.55.8.83.69.87.41,0,1.73-.71.08-.79-1.45v-.38h-.86l-.58-.67-.4.07-.77-.74-1.45-.63.19-1.24Z"/><path class="cls-3" d="M295.21,47.4l.24,0,.09-.53,1.15-.41.43-.1.67-.15.9,0,1,.84.14,1.72-.37.09-.32.45-1.05-.05-.75.56L296,50l-.81-.62L295,48.28Z"/><path class="cls-3" d="M558.53,150l-.54.19-.85-.74-.85-1.24-.42-1.48.27-.19.21.58.59.44.95,1.23.91.66ZM551,147.37l-1,.16-.31.54-1.06.48-1,.45h-1l-1.59-.57-1.11-.54.16-.6,1.74.28,1.07-.15.29-.93.28-.05.19,1,1.11-.14.55-.67,1.09-.69-.22-1.14,1.17,0,.39.32,0,1.07Zm-9.33,3.71,1.74,1.28,1.26,2.08,1.12-.07-.08.87,1.5.33-.58.37,2.07.83-.22.57-1.29.14-.48-.51-1.67-.22-2-.3-1.52-1.25-1.1-1.08-1-1.71-2.54-.85-1.65.55-1.19.65.25,1.44-1.53.67-1.09-.32-2-.09,0-6.35,0-6.32,3.38,1.33,3.6,1.11,1.34,1,1.08,1,.3,1.14,3.24,1.2.47,1-1.79.21Zm11.58-5.61-.61.52-.37-1.15-.45-.75-.88-.63-1.11-.83-1.4-.57.54-.46,1.05.54.66.42.82.47.78.81.74.62Z"/><path class="cls-3" d="M285.34,56.58l-.7,1.93.29.76-.41,1.24L283,59.6l-1-.26-2.72-1.24.28-1.26,2.27.22,2-.26Zm-12.28-7.51,1.16,1.82L274,54.23l-.89-.16-.79.84-.74-.67-.08-3L271,49.74l1.07.13Zm6.16-15,2.78.73-.21,1.38.47,1.19L280.71,37l-1.59,1,.11,1.36-.24.78.64,1.38,1.83,1.36,1,2.19,2.16,2.12,1.53,0,.47.58-.55.52,1.75.93,1.43.78,1.67,1.33.2.47-.37.91-1.08-1.18L288,51l-.82,1.64,1.41.93-.23,1.3-.81.15-1,2.13-.81.18v-.75l.4-1.33.42-.53-.76-1.45L285.13,52l-.81-.32-.57-1.1-1.25-.46-.85-1L280.21,49l-1.52-1.17-1.78-1.7-1.32-1.52L275,41.93l-1-.31-1.58-.89-.9.36-1.12,1.25-.81.2.22-1.17L268.77,41l-.5-2.11.67-.84-.57-1,.08-.79.84.6.93-.13,1.1-.95.33.44.93-.08L273,35l1.44.36.86-.48.15-1.16,1.18.41.23-.54,1.92-.5Z"/><path class="cls-3" d="M237.54,47.33l.1-1.86-.79-1.15,2.75-1.93,2.38.49,2.61,0,2.08.46,1.61-.14,3.15.09.77,1,3.59,1.2.7-.57,2.19,1.19,2.26-.34.1,1.52L259.2,49l-2.49.54-.18.87-1.19,1.41-.75,2,.75,1.42-1.12,1.11L253.8,58l-1.47.49L251,60.38l-2.47,0-1.86-.05-1.21.85-.75.91-.95-.2-.72-.81-.55-1.39-1.82-.37-.16-.81.72-.92.27-.67-.67-.73.53-1.63-.78-1.5.84-.21.08-1.2.32-.37,0-2,.9-.7-.54-1.3-1.14-.1-.33.33h-1.15L239,46.29l-.79.38Z"/><path class="cls-3" d="M322.4,159.19l-.55,1.5.55,2.58.67,0,.7.64.82,1.44.16,2.58-.84.43-.59,1.4-1.27-1.25-.15-1.42.41-.93-.11-.8-.77-.51-.53.19-1.12-1-1-.52.59-1.84L320,161l-.38-1.64.39-1.6.33-.53-.49-1.67-.92-.87,1.91.36.39.54.66.92Z"/><path class="cls-3" d="M278.48,90l-6.67,4-5.63,4.06-2.75.92-2.15.2,0-1.31-.9-.33L259.14,97l-.46-1-6.57-4.54-6.56-4.62-7.33-5.23,0-.42V78.45l3.14-1.64,1.94-.34,1.6-.6.74-1.12,2.27-.89.09-1.68,1.12-.2.89-.84,2.54-.39.36-.89-.51-.49-.68-2.45-.11-1.42L250.9,64l1.88-1.3,2.1-.42,1.23-1,1.87-.73,3.3-.43,3.22-.2,1,.36,1.84-1h2.08l.79.56,1.33-.15-.4,1.24.31,2.29-.46,2-1.2,1.31.18,1.75,1.59,1.38v.56l1.2.92.83,4.07.63,2,.11,1L274,80l.14,1-.25,1.19.17,1.36-.77.91L274.42,86l.07.92.69,1.19.91-.39,1.54,1Z"/><path class="cls-3" d="M231.44,108.18l-1.28-1.37L229,105.33l-1.29-.53-.94-.59-1.08,0-.95.44-1-.18-.67.65-.16-1.09.54-1,.24-1.92-.21-2-.24-1,.2-1-.51-1-1-.89.42-.7,7.62,0-.37-3,.48-1.08,1.82-.19-.06-5.45,6.39.12V81.62l7.33,5.23-3,0,.94,9.06.94,8.81.33.24-.43,1.41-7.81,0-.29.45-.75-.13-1.1.39-1.36-.56-.62,0-.33,1.18Z"/><path class="cls-3" d="M330.63,68.18l-3.81,2.46-2.17-.91,0,0,.26-.35,0-.94.48-1.28,1.06-.88-.32-.92-.87-.12L325,63.41l.48-1,.52-.52.52-.53.11-1.34.64.47,2.14-.68,1,.46h1.6l2.24-.91,1,0,2.22-.38-1,1.52-1.07.59.19,1.75-.74,2.86Z"/><path class="cls-3" d="M231.44,108.18l.65-.36.33-1.18.62,0,1.36.56,1.1-.39.75.13.29-.45,7.81,0,.43-1.41-.33-.24L243.51,96l-.94-9.06,3,0,6.56,4.62L258.68,96l.46,1,1.21.59.9.33,0,1.31,2.15-.2v4.68L262.38,105l-.17,1.24-1.73.32-2.65.17-.72.71-1.25.08h-1.25l-.49-.38-1.07.28-1.82.83-.37.62-1.51.9-.26.51-.82.4-.94-.26-.53.48-.29,1.36L245,114l0,.67-.53.84.13,1.14-.8.29-.46.25-.3-.84-.56.22-.34,0-.36.57h-1.5l-.54-.3-.25.18-.6-.57.11-.58-.25-.23-.41.19.08-.64.39-.51-.79-.82-.23-.55-.44-.43-.39-.06-.46.28-.63.27-.54.42-.83-.15L234,113l-.32-.06-.51.26h-.31l-.11-.72.09-.62-.17-.77-.73-.55-.38-1.14Z"/><path class="cls-3" d="M249.62,118l-1.33-.51-.91.08-.68.49-.88-.41-.34-.65-.87-.43-.13-1.14.53-.84,0-.67,1.54-1.64.29-1.36.53-.48.94.26.82-.4.26-.51,1.51-.9.37-.62,1.82-.83,1.07-.28.49.38h1.25l-.16,1,.26.91,1.1,1.3.06,1,2.25.45-.05,1.35-.42.6-.95.18-.4.86-.67.22-1.71,0-.9-.15-.62.31-.86-.14-3.39.09,0,1.12Z"/><path class="cls-3" d="M273.74,46.62l-.65,2-.88-.52-.45-1.76.39-1,1.26-1ZM262.11,23.47l1.36,1.43,1-.23,1.7,1.37.44.26.56-.07.92.78,2.8.55-1,2-.25,2.07-.53.49-.89-.27.06.73-1.42,1.6,0,1.28.93-.44.67,1.22-.08.79.57,1-.67.84.5,2.11,1.05.34-.22,1.17-1.76,1.51L264,43.33l-2.84.86-.22,1.59-2.26.34-2.19-1.19-.7.57-3.59-1.2-.77-1,1-1.61.37-5.47-2-3-1.44-1.45-3-1.11-.2-2.13,2.52-.64,3.27.76-.62-3.36,1.84,1.28,4.53-2.34.59-2.51,1.7-.62.28,1.09.91.05Z"/><path class="cls-3" d="M260.37,124.63l-1.61.23-.48-1.34.09-4.48-.39-.41-.08-1-.67-.69-.6-.58.25-1,.67-.22.4-.86.95-.18.42-.6.66-.57h.69l1.49,1.14-.08.65.44,1.17-.38.79.2.53-.94,1.22-.6.6-.37,1.23.05,1.25Z"/><path class="cls-3" d="M477.41,128l.78-.73,1.65-1.06-.09,1-.11,1.24-.93-.06-.41.66Z"/><path class="cls-3" d="M271.67,127.52l-2,.7-.74-.1-.74.43-1.56,0-1-1.21-.64-1.41-1.38-1.28-1.47,0h-1.71l.11-3.13-.05-1.25.37-1.23.6-.6.94-1.22-.2-.53.38-.79-.44-1.17.08-.65.13-1.77.56-.8.27-1.14.51-.43,2.09-.24,1.95.75.73.75,1,0,.92-.49,2.35,1,1,0,1.15-.85,1.14.07.56-.28,1.05.11,1.5.58,1.52-1.11.46.08,1.32,2.17.36,0,.77.79-.21.35-.1.66-1.64,1.53L281,117l-.27,1-.42.44-.39,1.37-1,.8-.3,1-.44.79-.18.81-1.34.66-1.09-.81-.74,0-1.16,1.14h-.56l-.93,1.88Z"/><path class="cls-3" d="M456.58,116.08l-.8-1-1-2-.46-2.4,1.25-1.65,2.51-.39,1.83.29,1.6.78.88-1.37,1.73.73.45,1.33-.24,2.38-3.27,1.52.85,1.19-2,.15-1.69.79Z"/><path class="cls-3" d="M283.34,111.68l.2-.93-1.25,0v-1.28l-.81-.74.84-2.63,2.49-1.9.1-2.64.75-4.15.42-.89-.81-.7,0-.66-.73-.54L284,91.32l2-1.15,7.76,4,7.77,4,.09,8-1.68-.14-.89,1.48-.51,1.23.41.47-.64.61.22.83-.51.82-.19.73.68-.11.41.76,0,1.15.71.58,0,.48-1.23.34-1,.79L296,118.35l-1.83.91-1.88-.12-.55.18.2.69-1,.68-.82.76-2.46.75-.48-.44-.32,0-.36.5-1.61.15.3-.53-.61-1.34-.27-.81-.85-.34-1.15-1.14.42-.93.89.2.55-.14,1.09,0-1.06-1.79.07-1.31-.13-1.31Z"/><path class="cls-3" d="M284.87,122.37l1.61-.15.36-.5.32,0,.48.44,2.46-.75.82-.76,1-.68-.2-.69.55-.18,1.88.12,1.83-.91,1.41-2.14,1-.79,1.23-.34.22.84,1.12,1.23v.8l-.32.82.13.61.67.56,1.49.85,1.06.79,0,.64,1.31,1,.81.85.49,1.16,1.46.77.31.62-.64.2-1.25,0-1.47-.21-.72.17-.29.47-.63.06-.77-.41-2.17,1-.88-.2-.27.15-.58,1.17-1.45-.37-1.43-.2-1.24-.71L293,127l-1,.62-.76,1-.17,1.35-1.26-.11-1.31-.32-1.16,1-1,1.81-.21-.57-.09-.88-.89-.62-.72-1-.16-.7-.92-1,.16-.58-.2-.82.15-1.5.47-.36Z"/><path class="cls-3" d="M238.7,121.86l-.55-.06-.4.79h-.55l-.37-.41.12-.79-.81-1.19-.51.22-.41,0-.54.11,0-.72-.31-.51.06-.57-.42-.82-.54-.7h-1.56l-.45.37-.54.05-.33.42-.22.55-1,.86-.86-1.16-.75-.77-.5-.25-.49-.39-.22-.87-.29-.44-.56-.32.86-1,.59,0,.51-.34h.43l.31-.26-.17-.66.22-.2,0-.67.94,0,1.4.48.43,0,.15-.23,1.06.16.28-.11.11.72h.31l.51-.26.32.06.54.51.83.15.54-.42.63-.27.46-.28.39.06.44.43.23.55.79.82-.39.51-.08.64.41-.19.25.23-.11.58.6.57-.39.15-.16.67.45.81.48,1.57-.72.23-.19.27.16.38-.12.85Z"/><path class="cls-3" d="M321.23,118.38l0,1.52-.29.6-1,0-.66,1.11,1.2.14,1,1,.34.78.89.45,1.15,2.12-1.32,1.28-1.19,1.16-1.2.89h-1.37l-1.57.46-1.24-.44-.8.53-1.71-1.29-.46-.82-1.09.41-.9-.13-.52.32-.87-.23-1.18-1.6-.31-.62-1.46-.77-.49-1.16-.81-.85-1.31-1,0-.64-1.06-.79-1.33-.76.6-.21.67-.37.5-1.75.53-.91,1.41-.27.33.54,1,1.14.54.17.7-.33,1.4.06.27.41h1.94l.07-.41,1-.37.2-.57.73-.41,1.64,1.15,1-.2,1-1.42,1.07-1.08L318,114l-.46-.58,1.17-.1.13-.44.9.13-.23,1.46.23,1.42,1,.78.24.67,0,1Z"/><path class="cls-3" d="M328.91,107.5l1.18.91,1.14-.47.47.42,1.33,0,1.7.8.5.69.87.64.8,1.16.66.64-.68.88-.66.93.15.54,0,.6,1.09,0,.47-.14.43.35-.43.7.72,1.08.72,1,.74.7,6.37,2.32h1.64l-5.5,5.84-2.54.08-1.73,1.37-1.25,0-.54.61h-1.33l-.78-.66-1.78.81-.57.81-1.3-.15-.43-.23-.46.06-.61,0-2.47-1.65h-1.35l-.67-.64v-1.09l-1-.32L322.68,124l-.89-.45-.34-.78-1-1-1.2-.14.66-1.11,1,0,.29-.6,0-1.76.58-2,.92-.55.19-.81.84-1.51,1.17-1,.79-1.95.31-1.72,2.27.42Z"/><path class="cls-3" d="M538.13,223.38l1.88.88,1.06-.35,1.52-.49,1.17.17.14,3.07-.67.9-.2,2.13-.68-.73L541,230.82l-.41-.14-1.19-.09-1.2-2.27-.27-1.73-1.12-2.26.05-1.18Zm-3.57-59.75.7,1.57,1.25-.75.64.84.94.78-.2.89.41,1.73.3,1,.49.25.53,1.73-.19,1.06.63,1.38,2.11,1.07,1.37,1,1.31.9-.26.5,1.12,1.3.75,2.25.78-.46.79.91.47-.32.34,2.22,1.38,1.3.9.81,1.53,1.73.54,1.73,0,1.23-.13,1.34.93,1.86-.12,1.95-.33,1-.53,2,0,1.29-.38,1.63-.86,2.08-1.44,1.13-.71,1.8-.65,1.15-.58,2-.75,1.18-.49,1.8-.26,1.66.1.77-1.11.85-2.18.09-1.8,1-.89,1-1.18,1.07-1.61-1.1-1.19-.44.3-1.28-1.06.46-1.71,1.79L533,217.7l-1.1-.39-1.12-.18-1.88-.71-1.26-1.51-.36-1.84-.45-1.22-1-1-1.87-.29.64-1.15-.47-1.75-.95,1.63-1.74.44,1-1.31.3-1.36.75-1.14-.16-1.72-1.58,2-1.22.8-.74,1.87-1.52-1,.06-1.24L517.14,205l-1-.87.37-.53-2.5-1.39-1.37-.06L510.74,201l-3.48.21-2.52.82-2.22.76-1.86-.15-2.06,1.18-1.69.53-.37,1.21-.72.95-1.65.06-1.22.21-1.72-.43-1.4.25-1.34.11L487.33,208l-.57-.1-1,.66-.94.75-1.42-.09h-1.3l-2.07-1.51-1-.44,0-1.34,1-.32.33-.52-.07-.83.23-1.6-.21-1.36-1-2.28-.32-1.28.08-1.27-.77-1.45,0-.64-.86-.88-.25-1.71L476,190.05l-.27-.92.86.93-.66-2,1,.62.57.84,0-1.11-1-1.68-.19-.67-.45-.64.21-1.23.4-.52.26-1-.2-1.23.8-1.5.15,1.59.82-1.44,1.58-.69.95-.89,1.49-.76.88-.16.54.25,1.53-.77,1.18-.23.3-.45.51-.19,1.08,0,2-.6,1.06-.91.5-1.09,1.14-1,.09-.81.05-1.1,1.36-1.72.82,1.74.83-.4-.7-1,.62-1,.85.43.24-1.53,1.06-1,.47-.79,1-.34,0-.56.86.23,0-.5.86-.29.94-.26,1.44.91,1.08,1.18,1.21,0,1.24.19L507,165l.93-1.6.88-.52-.3-.5.84-1.13,1.18-.7,1,.24,1.63-.38,0-1-1.43-.65,1-.28,1.29.49,1,.81,1.64.5.55-.2,1.21.61,1.14-.57.73.18.45-.38.9,1-.52,1.06-.74.8-.67.06.23.8-.57,1-.7,1,.14.56,1.55,1.11,1.5.64,1,.7,1.41,1.19h.55l1,.52.29.62,1.86.69,1.29-.69.38-1.09.39-.89.24-1.11.6-1.59-.27-1,.14-.58-.23-1.14.26-1.5.37-.4-.3-.66.47-1,.37-1.09,0-.56.73-.74.55,1,.13,1.23.49.24.08.83.71,1,.14,1.13Z"/><path class="cls-3" d="M354.66,113.88l-.05-.54h-.74L353,114l-1,.2-.9.29-.62,0-1.11.07-.69.36-1,.13-1.71.61-2.12.23-1.83.51h-1l-.88-.82-.38-.82-.63-.36-.72,1-.43.7.72,1.08.72,1,.74.7,6.37,2.32h1.64l-5.5,5.84-2.54.08-1.73,1.37-1.25,0-.54.61-1.7,2.19,0,7,1.15,1.6.44-.46.45-1,2.13-2.34,1.81-1.48,2.91-1.92,1.95-1.56,2.29-2.64,1.66-2.18,1.67-2.85,1.21-2.49.93-2.18.55-2.12.41-.71v-1Z"/><path class="cls-3" d="M406.63,63.21,408.72,66l-.19,1.91.77,1.18-.06,1.18-1.4-.31.55,2.52,1.91,1.43,2.7,1.57-1.23,1L411,78.55l1.89.84,1.83,1.08,2.54,1.22,2.67.29,1.12,1.1,1.51.21,2.34.5,1.62,0,.22-.85-.25-1.38.15-1,1.18-.46.17,1.72,0,.44,1.77.83,1.22-.34,1.64.14,1.59-.06.14-1.34-.79-.7,1.57-.27L437,78.89l2.24-1.4,1.63.54,1.39-.93.91,1.37-.65.93,2.1.33.14.83L444,81l.16,1.34-1.39-.39-2.52,1.5.06,1.24-1.08,1.8-.1,1-.86,1.75-1.52-.49-.08,2.19-.44.72.21.88-1,.5-1-3.33h-.54l-.31,1.34L432.56,90l.6-1.2.87-.13.9-1.8-1.12-.36-1.81,0-1.85-.29-.17-1.5-.93-.1-1.54-.93-.69,1.46,1.4,1.13-1.21.8-.43.78,1.19.57-.33,1.27.68,1.59.3,1.72-.28.76-1.32,0-2.4.43.11,1.56-1,1.22-2.8,1.38-2.18,2.41L417.05,102l-1.94,1.33v.93l-1,.5-1.76.72-.91.1-.58,1.53.4,2.6.11,1.65-.83,1.89v3.34l-1,.1-.89,1.5.59.64-1.77.56-.66,1.33-.78.56-1.84-1.83-.9-2.74-.75-2-.68-.93-1-1.9-.49-2.49-.33-1.25-1.77-2.75-.81-3.92-.58-2.61V96.41l-.37-1.94-2.84,1.24-1.37-.25-2.54-2.52.93-.76-.57-.82-2.28-1.79,1.29-1.41h4.29L393,86.33l-1.09-1.08-.23-1.66-1.27-1,2.15-2.28,2.26.16,2-2.31,1.22-2.25L400,73.67l0-1.61,1.66-1.32L400,69.6,399.36,68,398.68,66l.95-1,2.95.57,2.17-.35Z"/><path class="cls-3" d="M393.35,51.54l-.71.78-2.12-.42-.19,1.45,2.12-.19,2.4.81,3.68-.38L399,55.9l.64-.25,1.19.57-.07,1,.29,1.4h-2l-1.34-.18-1.21,1.09-.87.24-.67.51-.77-.8.18-2-.59-.12.21-.75L393,56l-.84.86-.21,1-.3.36-1.16,0-.63,1.12-.65-.47-1.41.78-.6-.3,1.1-2.48-.42-1.84-1.43-.6.5-1.1,1.63.12.92-1.4.62-1.63,2.6-.6-.4,1.19.28.71Z"/><path class="cls-3" d="M448.88,96.89l-1.14.89-1.37.09-.89,2.22-.82.37.94,1.78,1.24,1.48.79,1.33-.71,1.75-.67.37.46,1,1.3,1.59.22,1.11,0,.92.76,1.81-1.06,1.84-.95,2-.18-1.46.59-1.51-.65-1.17.16-2.16-.79-1-.64-2.39-.35-2.53-.84-1.67-1.28,1L440.75,106l-1.09-.18-1.2-.48.67-2.5-.41-1.9-1.52-2.36.23-.74-1.13-.26-1.39-1.68-.12-1.67.68.31,0-1.49,1-.5-.21-.88.44-.72.08-2.19,1.52.49.86-1.75.1-1,1.08-1.8-.06-1.24,2.52-1.5,1.39.39L444,81l.68-.4-.14-.83,1.13-.16.65,1.29.85.52.06,1.66-.08,1.78-1.84,1.8-.23,2.52,2.05-.35.46,1.94,1.24.41-.57,1.74,1.45.78.84.39,1.43-.61.05.86-1.65,1.35-.42.76Z"/><path class="cls-3" d="M393.25,46.33l-1.12.48-2.56,1.81-.86,1.84-.72,0-.53-1.22L385,49.18l-.4-2.13h-.94l.14-2.64-2.33-1.95-3.34.21-2.28.39L374,40.62l-1.59-1-3-2-.36-.24L364,39l.08,9.81-1,.12-1.37-2-1.31-.74-2.21.55-.86.87-.11-.64.48-1.09-.37-.92-2.26-.9-.88-2.41L353.11,41l-.07-.89,1.9.26.07-2,1.66-.45,1.7.42.35-2.72-.35-1.74-1.95.14-1.65-.7-2.26,1.25-1.81.59-1-.45.2-1.46-1.24-1.92-1.45.08-1.65-2,1.12-2.23-.56-.61,1.55-3.31,2,1.76.24-2.22,4-3.36,3-.08,4.29,2.15,2.31,1.24,2.06-1.29,3.09-.07L371.22,23l.56-.9,2.74.13.48-1.46-3.15-2.15L373.72,17l-.37-.87,1.87-.83-1.4-2.23.89-1.12L382,10.82l.95-.82,4.87-1.25,1.75-1.41,3.5.74.61,3.48,2-.81,2.5,1.13L398,13.67l1.87-.18,4.88-3.12-.71,1L406.56,14l4.35,8,1-1.62,2.68,1.78,2.8-.79,1.07.55.94,1.77,1.36.59.83,1.28,2.5-.41,1,1.83-1.49,2-1.61.27-.1,2.91-1.08,1.29L417,32.47l-1.4,5-1,.62-3.86,1.09,1.76,4.69-1.34.69.16,1.51-1.2-.39-1-.95-2.89-.27-3.22-.08-.71.3-2.77-1.12-1.11.55-.3,1.56L395,44.8l-1.28.37Z"/><polygon class="cls-4" points="454.8 113.02 453.05 112.11 451.39 112.14 451.67 110.58 449.96 110.6 449.8 112.78 448.75 115.66 448.12 117.4 448.25 118.82 449.52 118.88 450.31 120.67 450.66 122.36 451.75 123.47 452.93 123.7 453.94 124.71 453.3 125.51 452.01 125.74 451.86 124.74 450.27 123.89 449.94 124.23 449.17 123.49 448.83 122.52 447.8 121.42 446.86 120.5 446.54 121.64 446.17 120.56 446.38 119.34 446.95 117.46 447.9 115.44 448.96 113.6 448.2 111.79 448.23 110.87 448.01 109.76 446.71 108.17 446.25 107.17 446.92 106.8 447.63 105.05 446.84 103.72 445.6 102.24 444.66 100.46 445.48 100.09 446.37 97.87 447.74 97.78 448.88 96.89 449.99 96.41 450.84 97.05 450.95 98.28 452.26 98.38 451.79 100.53 451.83 102.36 453.88 101.14 454.46 101.5 455.61 101.44 456 100.73 457.47 100.87 458.95 102.53 459.07 104.52 460.65 106.28 460.56 107.97 459.93 108.87 458.1 108.58 455.58 108.97 454.34 110.62 454.8 113.02"/><path class="cls-3" d="M501.11,120.43l.2,1.3.11,1.09-.66,1.79-.71-2-.91,1,.62,1.43-.56.91-2.29-1.12-.55-1.41.6-.93-1.24-.92-.61.81-.91-.08-1.44,1.09-.33-.57.77-1.65,1.22-.55,1.06-.73.69.88,1.48-.53.32-.88,1.38,0-.12-1.51,1.58.93.16,1Zm-4.66-3.65-.7.64-.61,1.24-.61.58-1.2-1.35.4-.53.49-.55.21-1.22,1.08-.11-.32,1.32,1.44-1.9Zm-10.66,1.89-2.59,1.85.95-1.36,1.41-1.21,1.17-1.36,1-2,.34,1.61-1.28,1.08Zm6.57-5.07,1.17.61h1.24l0,.82-.9.84-1.24.59-.07-.91.14-1Zm7.05-.54.54,2.21-1.5-.52,0,.66.48,1.21-.93.44-.08-1.38-.58-.1-.31-1.2,1.15.16,0-.75L497,112.28l1.87,0Zm-7.74-1.79-.52,1.71-.83-1-1-1.51,1.66.07Zm-.4-10.93,1.2.58.6-.53.17.52-.31.84.66,1.45-.51,1.68-1.15.67-.3,1.62.43,1.59,1,.22.86-.23,2.44,1.1-.19,1.08.64.48-.21.91-1.51-1-.72-1-.5.73-1.24-1.19-1.77.29-1-.44.1-.82.61-.51-.58-.46-.26.72-1-1.15-.29-.88-.07-1.92.78.66.2-3.16.64-1.84Z"/><path class="cls-3" d="M284.36,21.24l-.8-2,.15-1.08-.48-1.7-.71-1.15.55-.86-.46-1.66,1.33-1,3-1.54,2.45-1.14,1.94.57.15.82,1.88,0,2.39.38,3.58-.05,1,.36.47,1,.08,1.45.54,1.23v1.28l-1.17.66.6,1.47,0,1.39,1,2.7-.21.86-1,.36L299,26.19l.5,1.34-.42-.17-1.85-1.15-1.41.42-.91-.3-1.15.64-1-1.06-.8.41-.11-.19-.89-1.47-1.45-.19-.18-.95L288,23.18l-.29.79-1.06-.63.13-.84-1.46-.27Z"/></g><text class="cls-12" transform="translate(235.08 120.45)">ÁFRI<tspan class="cls-13" x="67.56" y="0">C</tspan><tspan x="87.43" y="0">A</tspan></text><text class="cls-12" transform="translate(388.44 76)"><tspan class="cls-14">A</tspan><tspan x="19.07" y="0">SIA</tspan></text><text class="cls-12" transform="translate(347.45 231.83)">OC<tspan class="cls-15" x="40.38" y="0">E</tspan><tspan class="cls-16" x="60.43" y="0">ANÍA</tspan></text><polygon class="cls-17" points="451.86 124.74 452.01 125.74 453.3 125.51 453.94 124.71 454.38 124.89 455.53 126.06 456.35 127.36 456.46 128.67 456.25 129.55 456.44 130.22 456.59 131.36 457.27 131.9 458.04 133.61 458 134.26 456.62 134.39 454.78 132.96 452.48 131.42 452.25 130.44 451.12 129.14 450.85 127.53 450.15 126.48 450.37 125.06 449.94 124.24 450.27 123.89 451.86 124.74"/><polygon class="cls-18" points="452.18 125.35 452.29 126.13 453.18 125.95 453.63 125.33 453.94 125.47 454.74 126.38 455.31 127.4 455.39 128.42 455.25 129.11 455.38 129.63 455.48 130.52 455.95 130.94 455.19 131.7 452.61 130.57 452.45 129.8 451.67 128.78 451.48 127.53 450.99 126.71 451.14 125.6 450.84 124.96 451.07 124.69 452.18 125.35"/><polygon class="cls-18" points="461.09 148.09 458.94 148.14 457.3 146.51 454.8 144.93 453.96 143.75 452.49 142.18 451.52 140.73 450.04 138.02 448.33 136.41 447.76 134.75 447.05 133.24 445.29 132.02 444.27 130.36 442.81 129.28 440.78 127.14 440.61 126.15 441.86 126.23 448.04 132.19 449.94 135.76 453.39 140.66 456.82 143.5 457.66 144.39 459.17 144.25 461.17 145.09 461.09 148.09"/><rect class="cls-19" x="428" y="95.63" width="64.76" height="65.66"/><polygon class="cls-18" points="452.83 124.1 453.69 124.83 453.16 125.56 452.44 125.74 452.08 124.67 451.39 124.38 452.04 123.89 452.83 124.1"/></g></svg>