<?xml version="1.0" encoding="utf-8"?>
<!-- Generator: Adobe Illustrator 24.0.2, SVG Export Plug-In . SVG Version: 6.00 Build 0)  -->
<svg version="1.1" id="Capa_1" xmlns="http://www.w3.org/2000/svg" xmlns:xlink="http://www.w3.org/1999/xlink" x="0px" y="0px"
	 viewBox="0 0 289.3 288.5" style="enable-background:new 0 0 289.3 288.5;" xml:space="preserve">
<style type="text/css">
	.st0{fill:#575756;}
	.st1{fill:none;stroke:#575756;stroke-linecap:round;stroke-miterlimit:10;stroke-dasharray:0,2.8346;}
	.st2{fill:none;}
	.st3{fill:#1E1E1C;}
	.st4{font-family:'BarlowSemiCondensed-Light';}
	.st5{font-size:3.4356px;}
	.st6{fill:none;stroke:#95C11F;stroke-width:0.5;stroke-miterlimit:10;stroke-dasharray:0.9817,0.9817;}
	.st7{fill:#95C11F;}
	.st8{fill:#FFFFFF;}
	.st9{font-family:'BarlowSemiCondensed-SemiBold';}
	.st10{fill:none;stroke:#95C11F;stroke-width:0.5;stroke-miterlimit:10;}
	.st11{font-size:3.557px;}
	.st12{fill:none;stroke:#95C11F;stroke-width:0.4834;stroke-miterlimit:10;}
	.st13{fill:none;stroke:#979392;stroke-width:0.5;stroke-linecap:round;stroke-linejoin:round;stroke-miterlimit:10;}
	.st14{fill:none;stroke:#1E1E1C;stroke-width:0.5;stroke-miterlimit:10;}
	.st15{font-size:3.1338px;}
	.st16{fill:none;stroke:#1E1E1C;stroke-width:0.5;stroke-linecap:round;stroke-linejoin:round;stroke-miterlimit:10;}
	.st17{fill:none;stroke:#1D1E1C;stroke-width:0.5;stroke-miterlimit:10;}
	.st18{fill:none;stroke:#95C11F;stroke-width:0.4811;stroke-miterlimit:10;}
</style>
<image style="overflow:visible;enable-background:new    ;" width="4198" height="3468" xlink:href="F562789A.png"  transform="matrix(5.010454e-02 0 0 5.010454e-02 38.5888 16.1134)">
</image>
<path class="st0" d="M44.6,167.8"/>
<path class="st1" d="M214.8,125.5"/>
<g>
	<rect x="45.1" y="181" class="st2" width="37.4" height="12.4"/>
	<text transform="matrix(1 0 0 1 48.4336 183.3566)" class="st3 st4 st5">Mechón de pelo en área </text>
	<text transform="matrix(1 0 0 1 46.6884 187.4786)" class="st3 st4 st5">genital sólo presente en el </text>
	<text transform="matrix(1 0 0 1 59.3774 191.6017)" class="st3 st4 st5">macho </text>
</g>
<g>
	<rect x="85.9" y="180.9" class="st2" width="38.5" height="9.2"/>
	<text transform="matrix(1 0 0 1 87.1909 183.3282)" class="st3 st4 st5">Generalmente la hembra es </text>
	<text transform="matrix(1 0 0 1 87.2466 187.4513)" class="st3 st4 st5">mas pequeña que el macho</text>
</g>
<g>
	<rect x="213" y="182.8" class="st2" width="35.6" height="5.5"/>
	<text transform="matrix(1 0 0 1 219.6128 185.2101)" class="st3 st4 st5">Primates sin cola</text>
</g>
<g>
	<g>
		<g>
			<line class="st6" x1="119.9" y1="75.3" x2="204.5" y2="35.8"/>
			<g>
				<polygon class="st7" points="120.7,76.1 118.4,75.9 119.7,74.1 				"/>
			</g>
			<g>
				<polygon class="st7" points="204.7,36.9 206,35.1 203.7,34.9 				"/>
			</g>
		</g>
	</g>
	
		<rect x="135.7" y="53.9" transform="matrix(0.9168 -0.3993 0.3993 0.9168 -8.7346 69.0795)" class="st8" width="51.4" height="3.2"/>
	<g>
		<text transform="matrix(0.9168 -0.3993 0.3993 0.9168 141.5596 64.143)" class="st3 st9 st5">Largo de brazo: hasta 1,5 metros</text>
		<text transform="matrix(0.9168 -0.3993 0.3993 0.9168 143.2056 67.9222)" class="st3 st4 st5">(doble de tamaño que las piernas) </text>
	</g>
</g>
<g id="mechon_linea">
	<g>
		<line class="st10" x1="71.8" y1="170.1" x2="63.2" y2="180.7"/>
		<g>
			<path class="st7" d="M71.5,169.8c0.2-0.2,0.4-0.2,0.6-0.1c0.2,0.2,0.2,0.4,0.1,0.6c-0.2,0.2-0.4,0.2-0.6,0.1
				C71.4,170.3,71.3,170,71.5,169.8z"/>
		</g>
	</g>
</g>
<g id="hembra_linea">
	<g>
		<line class="st10" x1="120.6" y1="163.9" x2="105.2" y2="180.7"/>
		<g>
			<path class="st7" d="M120.2,163.6c0.2-0.2,0.4-0.2,0.6,0c0.2,0.2,0.2,0.4,0,0.6c-0.2,0.2-0.4,0.2-0.6,0
				C120.1,164,120.1,163.8,120.2,163.6z"/>
		</g>
	</g>
</g>
<g id="mano_linea">
	<g>
		<line class="st10" x1="143.8" y1="158.4" x2="143.6" y2="210"/>
		<g>
			<path class="st7" d="M143.4,158.4c0-0.2,0.2-0.4,0.4-0.4c0.2,0,0.4,0.2,0.4,0.4s-0.2,0.4-0.4,0.4
				C143.5,158.8,143.3,158.6,143.4,158.4z"/>
		</g>
	</g>
</g>
<g id="cola_linea">
	<g>
		<line class="st10" x1="200.2" y1="160.5" x2="229.7" y2="182.5"/>
		<g>
			<path class="st7" d="M200,160.9c-0.2-0.1-0.2-0.4-0.1-0.6c0.1-0.2,0.4-0.2,0.6-0.1c0.2,0.1,0.2,0.4,0.1,0.6
				C200.4,161,200.2,161,200,160.9z"/>
		</g>
	</g>
</g>
<g>
	<rect x="98.3" y="249.7" class="st2" width="22.7" height="4.9"/>
	<text transform="matrix(1 0 0 1 100.2924 252.2198)" class="st3 st4 st11">Mano humana</text>
</g>
<g>
	<rect x="130.6" y="249.5" class="st2" width="22.7" height="4.9"/>
	<text transform="matrix(1 0 0 1 138.4096 252.0157)" class="st3 st4 st11">Mano </text>
</g>
<g>
	<rect x="161.3" y="249.5" class="st2" width="22.7" height="4.9"/>
	<text transform="matrix(1 0 0 1 170.5327 251.9484)" class="st3 st4 st11">Pie</text>
</g>
<g>
	<rect x="121.6" y="255" class="st2" width="70.5" height="11.8"/>
	<text transform="matrix(1 0 0 1 125.021 257.4454)" class="st3 st4 st11">Único primate dentro de los gibones que posee </text>
	<text transform="matrix(1 0 0 1 124.8149 261.715)" class="st3 st4 st11">pulgares opuestos funcionales, tanto en manos </text>
	<text transform="matrix(1 0 0 1 147.3755 265.9845)" class="st3 st4 st11">como en pies.</text>
</g>
<g>
	<rect x="184.9" y="193.3" class="st2" width="28.1" height="23.4"/>
	<text transform="matrix(1 0 0 1 191.8549 195.8361)" class="st3 st4 st11">Membrana </text>
	<text transform="matrix(1 0 0 1 187.6186 200.1046)" class="st3 st4 st11">interdigital entre </text>
	<text transform="matrix(1 0 0 1 188.6714 204.3741)" class="st3 st4 st11">dedos II y III (se </text>
	<text transform="matrix(1 0 0 1 189.6108 208.6388)" class="st3 st4 st11">desconoce su </text>
	<text transform="matrix(1 0 0 1 193.4409 212.9083)" class="st3 st4 st11">función)</text>
</g>
<polyline class="st12" points="129.1,251.1 129.1,253.5 181.9,253.5 181.9,251.1 "/>
<g id="humano">
	<g>
		<path class="st13" d="M103.6,247.6c0,0,0.4-1.7,0.3-3.3c-0.1-1.6-0.9-3.9-0.9-3.9s-3.1-3.2-3.7-4.5c-0.6-1.3-1.2-2.3-1.4-3.9
			c-0.3-1.5-1.4-3.8-1.4-4.5s0.7-3.6,0.6-5c-0.1-1.4,0.2-2.7,1.7-2.1c1.5,0.7,2.3,1.9,2.2,3c-0.1,1.1-0.4,2.3-0.5,2.9
			s0.5,1.7,0.7,2.7c0.2,0.9-0.1,0.5,0.4,1.5s1,1,1.1,0.5c0.2-0.5,0.2-9.3,0.2-9.3s0.3-4.3,0.3-5c0-0.7,0.1-3.4,0-4.4
			c-0.1-1,0.1-4.1,0.1-4.1s0.2-1.5,1.6-1.6c1.9-0.2,1.5,2.8,1.5,2.8s-0.4,1.5-0.4,2.4s0.2,2.8,0.1,3.4c-0.1,0.6,0,0.8,0,2.4
			c0,1.6-0.1,2.7,0.2,2.7c0.3,0,1.1,0.1,1-0.7c-0.1-0.8-0.1-4.8-0.2-5.5c-0.1-0.7,0.1-5.5,0.2-6c0.1-0.5,0.1-3.9,0.1-3.9
			s0.4-1.7,1.6-1.7c1.7,0,2,1.6,2,1.6s-0.1,2.5-0.4,3.5s0.1,2.3,0,3.6c-0.1,1.3-0.1,2.4-0.1,3.2c-0.1,0.8,0.1,5.1,0.1,5.1
			s0.4,0.5,0.7,0.2c0.2-0.3,0.6-3.7,0.5-5.3c-0.1-1.6,0.2-5.6,0.1-6.2c-0.2-0.6-0.2-2.1-0.2-2.7s0.2-2.4,1.6-2.4
			c1.7-0.1,1.8,2.4,1.8,2.4s0.1,1.6,0.1,2.6c0,1,0.2,2.5,0.2,3.3c0,0.8-0.2,2.2-0.2,3.1s0.2,2.2,0.2,2.9s-0.2,2.7,0,3.1
			c0.2,0.4,1.1,0.9,1.3,0.6c0.2-0.4,0.3-1.6,0.4-3.9c0.1-2.2,0.3-5.9,0.3-5.9s-0.3-3,1.6-2.9c2,0.1,1.7,2.1,1.7,2.1s-0.2,3-0.3,3.9
			c-0.1,1-0.2,7.8-0.1,8.6c0.1,0.8,0.7,2.1,0.9,3.6c0.2,1.5,0.9,4.3,0.8,6.7c-0.1,2.4-0.5,5.4-1.7,7.3c-1.2,1.9-1,2.1-1.5,3.8
			c-0.5,1.7-0.4,3.4-0.4,3.4"/>
		<path class="st13" d="M103.6,247.6"/>
		<path class="st13" d="M118.5,247.6"/>
		<path class="st13" d="M120.7,227.3c0,0-4.4,0.2-6.9-0.5c-2.5-0.7-3.4-1.5-4.5-2.5c-1.1-1-2.4-2.8-2.4-2.8"/>
		<path class="st13" d="M103.8,226c0,0,5.5,1,8.3,2.7c2.8,1.7,4.8,3.2,4.8,3.2"/>
		<path class="st13" d="M103.8,226c0,0,5.6,2.1,7.7,4.5c1.6,1.9,2.4,4.9,2.4,6.8c0,1.9-0.4,3.1-0.4,3.1"/>
		<path class="st13" d="M100.6,226.4c0,0-0.3,0.8-1,0.9c-0.7,0-1.6,0-1.6,0"/>
		<path class="st13" d="M101.4,229.7c0,0-0.4,1.3-1.3,1.9"/>
		<path class="st13" d="M102,231.1c0,0-0.2,0.3-0.7,1.8"/>
		<path class="st13" d="M115.4,214.3c0,0-0.7,0.2-1.6,0"/>
		<path class="st13" d="M115.5,207.9c0,0-0.1,0.5-0.9,0.5s-1.5,0-1.5,0"/>
		<path class="st13" d="M120.7,212.6c0,0-0.4,0.4-1,0.4s-0.6,0-0.6,0"/>
		<path class="st13" d="M120.4,217.2c0,0-0.4,0.3-1,0.2"/>
		<path class="st13" d="M120.4,222.8c0,0-0.2,0-1.4-0.6s-1.3-0.5-1.3-0.5"/>
		<path class="st13" d="M110.8,214.4c0,0-0.7,0.1-1.5,0c-0.8-0.1-0.8-0.1-0.8-0.1"/>
		<path class="st13" d="M110.8,208.2c0,0-0.7,0.4-1.5,0.3c-0.8-0.1-0.8-0.1-0.8-0.1"/>
		<path class="st13" d="M106.3,212.6c0,0,0.1,0.1-0.7,0c-0.8-0.1-1.1,0-1.1,0"/>
		<path class="st13" d="M106.3,216.2c0,0-0.3,0.7-0.9,0.7c-0.6,0-0.9,0-0.9,0"/>
		<path class="st13" d="M105.7,220.6c0,0-0.7,0.2-1.3,0.7"/>
		<path class="st13" d="M110.3,220c0,0-0.1,0.2-1,0.3c-0.9,0.1-0.9,0.1-0.9,0.1"/>
		<path class="st13" d="M114.9,220c0,0-0.6,0.2-1.4,0c-0.8-0.2-0.8-0.2-0.8-0.2"/>
		<path class="st13" d="M119.2,243.5c0,0-0.3,0.3-1.8,0.4c-2.3,0.1-4.3-0.2-3.5-0.2"/>
		<path class="st13" d="M107.8,242.8c0,0-2-0.5-3-1.2c-1-0.7-1.7-1.1-1.7-1.1"/>
		<path class="st13" d="M97.6,220.6c0,0,0.3,0.6,0.4,1.7c0.1,1.2,0,1.7,0,1.7h-1"/>
	</g>
</g>
<g id="pata_00000097485459395062389550000017279478881578334886_">
	<g id="pata">
		<g>
			<path class="st14" d="M169.2,213.8c0,0-0.3,0.4-1,0.6c-0.7,0.1-1.4,0-1.4,0"/>
			<polygon class="st7" points="169,210.3 170,210 170.1,210.9 170.2,212 170,213.5 169.9,214.2 170,215.9 169.9,217 169.6,218 
				169.4,218.1 169.2,218 169.4,216.6 169.2,215.4 168.9,214.6 168.9,214.3 169.2,213.4 168.8,212.5 			"/>
			<path class="st14" d="M159.2,219c0,1.5-0.5,2.4-1.8,2.4c-1.3,0-2.4-1.2-2.4-2.7c0-1.5,1.1-2.7,2.4-2.7
				C158.7,215.9,159.2,217.5,159.2,219z"/>
			<path class="st14" d="M155,219.2c0,0-0.5,5-0.5,5.6s0.3,2.6,1.6,3.5c1.3,0.9,5.7,4.1,6.7,5.3c1,1.2,3.2,4.5,3.8,6.3
				c0.7,1.9,1,5.2,3.2,6.3s2.7,1.2,3.9,1.1c0.9-0.1,2.7-0.9,3.3-2.2c0.7-1.4,0.3-5.8,0.3-6.9c0-1.1-0.7-6.2,0.6-9.5
				c1.2-3.2,1-3.4,1.2-4.5c0.2-1,0.1-1.7,0-2.1c-0.1-0.5,0.1-1.4,0.1-2.5c0-1.1-0.1-1.4-0.1-2.1c0-0.8-0.1-1.1,0.1-1.6
				c0.2-0.5,0-1.2,0-1.6c0-0.4,0.1-1,0-1.5"/>
			<ellipse class="st14" cx="167.4" cy="208.2" rx="1.5" ry="1.9"/>
			<ellipse class="st14" cx="171.5" cy="207.5" rx="1.5" ry="1.9"/>
			<ellipse class="st14" cx="175.1" cy="208.1" rx="1.5" ry="1.7"/>
			<ellipse class="st14" cx="177.6" cy="212.7" rx="1.5" ry="1.7"/>
			<path class="st14" d="M158.7,221c0,0,1.2,0.5,1.5,1.3c0.4,1.2-0.4,2.1-0.4,2.1s1.3-0.7,2-0.5c1.2,0.4,1.1,1.6,1.1,1.6
				s1.4-0.2,1.8,0.5c0.4,0.7,0.4,0.7,0.4,0.7s0-0.1,0.3-0.4c0.3-0.4-0.5-1.2-0.4-2c0-1,0-2.3,0-2.3s-0.3-0.6-0.3-1.3
				c0.1-1.6,1.1-2.3,1.1-2.4c-0.2-0.4-0.1-1,0.1-1.6c0.3-0.8,0.2-2.1,0-3c-0.1-0.5-0.3-1.7-0.2-2.4c0.1-0.7,0.1-0.5,0.2-1.5
				c0.1-1,0-1.6,0-1.6"/>
			<path class="st14" d="M168.8,208.9c0,0,0,0.4,0.1,1.2c0.1,0.8-0.1,2,0,2.6c0.1,0.5,0.5,0.8,0.3,1.2c-0.2,0.4-0.4,0.2-0.3,0.8
				c0.1,0.5,0.5,1.3,0.5,2c0,0.8-0.4,1.5,0,1.4c0.4-0.1,0.5-0.6,0.6-1.4c0-0.8-0.1-1.6,0-2c0.1-0.4-0.3-0.3,0-1.1s0.2-1.9,0.2-2.6
				c0-0.8-0.5-1.2-0.2-1.7c0.3-0.5,0-1.6,0-1.6"/>
			<path class="st14" d="M172.8,208.5c0,0,0,0.2,0,1.3c0,1.1,0.2,2.4,0,3.4s-0.3,1.8-0.3,2.5s0.3,2.1,0.4,2.4
				c0.1,0.3,0.3,0.4,0.3,0.4s-0.2-1.6,0-2.3c0.2-0.7,0.4-0.8,0.4-1.2c0-0.4-0.1-1.4,0-1.8s-0.2-1.3,0-1.8s0.3-1.1,0.3-1.6
				c0-0.6-0.3-1.7-0.3-1.7"/>
			<path class="st14" d="M176.1,209.3c0,0-0.3,1.3-0.2,2.1c0.1,0.8,0.3,1.5,0.1,2.6s-0.1,1.7-0.1,2.4s0.5,2,0.5,2.5
				c0,0.5,0.1-1,0.2-1.9c0.1-0.8-0.2-1.6-0.2-2.1s-0.1-1.3-0.1-1.3"/>
			<path class="st14" d="M156.7,226.5c0,0,0.8-1,1.4-1.3c0.5-0.3,1.7-0.9,1.7-0.9s0.2,0.7-0.4,1.9c-0.6,1.2-1,1.7-1,1.7"/>
			<path class="st14" d="M160.2,228.6"/>
			<path class="st14" d="M162.8,225.5c0,0-0.6,1.5-1.3,2.3c-0.6,0.8-1.3,0.9-1.3,0.9"/>
			<path class="st14" d="M165.1,226.6c0,0,0.6,0.9,1.1,3.2c0.5,2.3,0.7,5.2,0.7,5.2"/>
			<path class="st14" d="M165.4,226.2c0,0,4,0,4.4,6.1c0.1,1.1-0.8,1.9-0.8,1.9"/>
			<path class="st14" d="M165.1,235.8c0,0,1.2,0,3.1-1c1.9-1.1,3.6-2.7,3.6-2.6"/>
			<path class="st14" d="M175.2,226.6c0,0-1.5,1.8-2,3.9c-0.5,2.1-0.7,4.3-0.7,4.3"/>
			<path class="st14" d="M165.7,236.7c0,0,2.9-1.8,5.1-1.6c2.2,0.2,3.5,1,4.1,1.2c0.5,0.3,1.2,0.3,1.5,0.2"/>
			<path class="st14" d="M167.4,227c0,0,1.9,1.3,4.2,1.6c2.2,0.3,3.6,0.3,3.6,0.3"/>
			<path class="st14" d="M165,222c0,0,2.6-0.3,6,1s5.3,2.9,5.9,3.1"/>
			<path class="st14" d="M165.8,218.2c0,0,2.2-0.4,3.6,0c1.4,0.4,2.3,0.5,2.8,2s0.3,1.9,0.3,1.9"/>
			<path class="st14" d="M176.1,223.2c0,0,0.7-2.2-0.7-3.2c-1.6-1-3.2-0.2-3.2-0.2"/>
			<path class="st14" d="M168.9,212.7c0,0-0.4,0-1.3,0.1c-0.9,0.1-1.1,0.3-1.1,0.3"/>
			<path class="st14" d="M172.8,213.2c0,0-0.3-0.5-0.8-0.5c-0.5,0-1.2,0.1-1.2,0.1"/>
			<path class="st14" d="M170,214.6c0,0,1.1,0.1,1.8-0.2c0.7-0.3,0.9-0.3,0.9-0.3"/>
			<path class="st14" d="M173.6,215c0,0,0.6,0.4,1.1,0.3c0.5-0.1,0.7-0.6,0.7-0.6"/>
			<path class="st14" d="M173.6,213.2c0,0,0.8,0.4,1.3,0.3c0.4-0.1,0.5-0.3,0.5-0.3"/>
			<path class="st14" d="M166.4,206.7c0,0,1.3-1.3,1.6-1.2c0.4,0.1,0.6,1.5,0.6,1.5"/>
			<path class="st14" d="M170.9,205.7c0,0,0.7-1,1.1-0.9c0.4,0.1,0.6,1.3,0.6,1.3"/>
			<path class="st14" d="M174.3,206.6c0,0,0.7-1.1,1-1c0.4,0.1,0.9,1.5,0.9,1.5"/>
			<path class="st14" d="M176.8,211.3c0,0,0.6-1.2,1-1.2c0.5,0,1,1.6,1,1.6"/>
		</g>
	</g>
	<g>
		<text transform="matrix(1 0 0 1 156.7221 214.8488)" class="st3 st4 st15">I</text>
	</g>
	<g>
		<text transform="matrix(1 0 0 1 166.7905 204.0773)" class="st3 st4 st15">II</text>
	</g>
	<g>
		<text transform="matrix(1 0 0 1 170.6342 204.0773)" class="st3 st4 st15">III</text>
	</g>
	<g>
		<text transform="matrix(1 0 0 1 174.2133 204.0773)" class="st3 st4 st15">IV</text>
	</g>
	<g>
		<text transform="matrix(1 0 0 1 178.0132 209.0714)" class="st3 st4 st15">V</text>
	</g>
</g>
<g id="siamang_mano">
	<path class="st16" d="M136.8,216.4c0,0-0.8-0.8,0-2.3c0.8-1.5,1.3-2.1,1.7-1.9c0.4,0.2,1,2.7,0.6,3.5c-0.4,0.8-0.3,4-0.4,4.3
		c-0.1,0.3,0.1,2.6,0,2.8c0,0.3,0.3,3.8,0.5,4.1c0.1,0.3,0.3-3.4,0.4-3.6c0.1-0.2-0.1-2.8,0-3c0.1-0.2,0.7-4.5,0.9-5.2
		c0.2-0.7,0.1-0.5,0-0.8c-0.1-0.2,0.1-1.4,0.2-1.6c0.1-0.2,0.7-1.6,1.3-1.7c0.6-0.2,1.1,3.1,0.6,3.8s-0.4,5.5-0.4,5.6
		s-0.2,2.7-0.2,2.7s0,4.3,0.3,4.6c0.3,0.3,0.5-2.4,0.4-3c0-0.5,0-2.9,0.2-4.1c0.2-1.2,0.5-3.4,0.5-3.6s-0.4-0.7-0.2-1.6
		c0.2-0.8,1-1.9,1.2-1.9c0.2,0,1.2,1.4,1.1,2.1c0,0.7-0.2,1.8-0.3,1.9c-0.1,0.2-0.1,4.7-0.1,5s0.2,5,0.3,5.4
		c0.2,0.4,0.4,1.1,0.4,1.3c0,0.2-0.3-1.7-0.2-2.5c0.1-0.8,0.4-4.5,0.5-4.7s-0.5-1.2-0.2-2.1c0.3-0.9,0.8-1.2,1-1
		c0.2,0.2,0.8,1.1,0.8,1.8c-0.1,0.7,0,4.4,0,4.6c0,0.3,0.1,1.2,0,1.3c-0.1,0.1,0.1,3.7,0.1,4c-0.1,0.3-0.6,4.6-0.7,4.8
		c0,0.2-0.4,2.1-0.5,2.7c-0.1,0.5,0.1,3.7,0.1,4c0,0.3,0,3.2-0.1,3.9c-0.1,0.5-0.7,1.3-1.3,1.5c-0.8,0.3-2.3-0.5-2.9-0.7
		c-0.6-0.1-1.4,0.5-2.4,0.5c-1-0.1-2.4-1.4-4.3-3.5c-1.8-2.1-4.8-5.7-4.9-6.3c-0.1-0.6,0.1-2.4,0-2.7c-0.1-0.3-0.5-1.3-0.4-2
		c0.1-0.7,1.4-0.6,1.6-0.4c0.3,0.2,1.1,1.2,1.1,2.1c-0.1,0.9-0.2,0.7-0.1,0.9c0.1,0.3,1.3,1.6,1.2,2.1c0,0.5,0.9,0.4,1.1,0.8
		c0.3,0.4,1.8,0.7,2,1.2c0.2,0.5,1,0.1,1.3,0.4c0.3,0.3-0.8-2.2-0.8-2.5s-1.3-3.1-1.2-3.4c0-0.3-0.8-2-0.8-2.6s0.1-3.1,0.3-3.6
		c0.2-0.5-0.7-3.9-0.6-4.6c0.1-0.7,0.2-2.7,0.3-2.8C136.2,220.3,136.3,217.3,136.8,216.4z"/>
	<path class="st16" d="M136.8,216.4c0.5,0.3,0.8,0.3,1.3,0.3c0.5-0.1,1-0.5,1-0.5"/>
	<path class="st16" d="M140.8,214.8c0,0,0.2,0.6,0.8,0.6c0.6-0.1,1.1-0.6,1.1-0.6"/>
	<path class="st16" d="M143.5,217.2c0,0,0.2,0.6,0.7,0.6c0.4,0.1,1.2,0.1,1.2-0.2"/>
	<path class="st16" d="M146.3,222c0,0,0.4,0.4,0.7,0.4s0.9-0.5,0.9-0.5"/>
	<path class="st16" d="M136.5,220.5c0.4,0.1,1.5,0.1,1.8,0"/>
	<path class="st16" d="M140.2,220.7c0.4,0.1,1.5,0.1,1.8,0"/>
	<path class="st16" d="M143.1,224.9c0.4,0.1,1.5,0.1,1.8,0"/>
	<path class="st16" d="M140.2,223.3c0.4,0.1,1.5,0.1,1.8,0"/>
	<path class="st16" d="M146.2,226.6c0.3,0.1,0.1,0.1,1.5,0"/>
	<path class="st16" d="M146.1,225.5c0.4,0.1,1.5,0.1,1.8,0"/>
	<path class="st16" d="M143.3,220.7c0.4,0.1,1.5,0.1,1.8,0"/>
	<path class="st16" d="M136.1,223.1c0.5,0.1,2.1,0,2.5,0"/>
	<path class="st16" d="M136.8,228.1c1-0.4,2.4-0.4,2.5-0.3c0.3,0.3,0.5,0.8,0.3,1.3c-0.2,0.6-1,2.1-0.9,2.2"/>
	<path class="st16" d="M139.3,227.8c1.1-0.3,3,0.3,3,0.3s0.4,0,1.8,0.6c1.4,0.6,2.1,1.2,2.2,1.3c0.1,0.1,0.7,0.5,0.9,0.9"/>
	<path class="st16" d="M142.5,228.1c0,0-0.6,3.3,0,4.4"/>
	<path class="st16" d="M137.4,234c0,0,0.9-0.2,2.3,0c1.4,0.2,5.2,1.4,6,1.5"/>
	<path class="st16" d="M142,233.4c0,0,0.4,3,0.7,3.4"/>
	<path class="st16" d="M140,237.1c0,0,5.2,1.1,5.7,1"/>
	<path class="st16" d="M146.5,237.1c0,0-2.3,3.9-2.5,4.4s-1.2,3.3-0.9,4.2s1,1.5,1,1.5"/>
	<path class="st16" d="M146.3,241.5c0,0-4.5,0.9-4.8,1.1"/>
	<path class="st16" d="M146.7,243.1c0,0-6.3,2.3-7.4,3.5"/>
	<path class="st16" d="M138.9,240c0,0,1.9,2.2,2.2,3.1c0.3,0.9,1.1,2.2,0.9,3.1"/>
	<path class="st16" d="M133.2,235.5c0,0-0.1,0.2-0.6,0.3c-0.6,0-1.1-0.3-1.1-0.3"/>
	<path class="st16" d="M134.7,238c0,0-0.9,1-1.2,1.1c-0.3,0.1-0.9-0.2-1.1-0.5c-0.2-0.3-0.6-0.5-0.6-1c-0.1-0.5,0-1.1,0.1-1.1"/>
	<path class="st16" d="M135.9,238.9c0,0-0.3,0.6-0.6,1.1c-0.3,0.5-0.3,1-0.7,0.9c-0.3,0-0.3-0.1-0.7-0.5c-0.4-0.4-0.6-0.8-0.6-0.8
		l-0.1-0.3"/>
	<path class="st16" d="M137.9,239.8c0,0.1,0.2,0.6-0.2,1.6c-0.4,1-1,1.3-1,1.3"/>
	<path class="st16" d="M138.9,212.9"/>
	<path class="st16" d="M137.7,212.7"/>
	<path class="st16" d="M141.8,211.5"/>
	<path class="st16" d="M141.5,211.6c0-0.1,0.7-0.6,1,0.1"/>
	<path class="st16" d="M144,214c0-0.1,0.7-0.6,1,0.1"/>
	<path class="st16" d="M146.5,219.3c0-0.1,0.7-0.6,1,0.1"/>
	<path class="st16" d="M137.7,212.7c0-0.1,0.8-0.5,1.2,0.1"/>
</g>
<line id="linea_negra_base" class="st17" x1="96.9" y1="247.6" x2="185.9" y2="247.6"/>
<g id="linea_verde_membrana">
	<g>
		<polyline class="st18" points="187.1,197.1 169.5,197.1 169.5,200.6 		"/>
		<g>
			<polygon class="st7" points="168.7,200 169.5,200.4 170.3,200 169.5,202 			"/>
		</g>
	</g>
</g>
</svg>
