<?xml version="1.0" encoding="utf-8"?>
<!-- Generator: Adobe Illustrator 24.0.2, SVG Export Plug-In . SVG Version: 6.00 Build 0)  -->
<svg version="1.1" id="Capa_1" xmlns="http://www.w3.org/2000/svg" xmlns:xlink="http://www.w3.org/1999/xlink" x="0px" y="0px"
	 viewBox="0 0 144.7 171.6" style="enable-background:new 0 0 144.7 171.6;" xml:space="preserve">
<style type="text/css">
	.st0{fill:none;}
	.st1{fill:#1E1E1C;}
	.st2{font-family:'BarlowSemiCondensed-Light';}
	.st3{font-size:2.2949px;}
	.st4{fill:none;stroke:#95C11F;stroke-width:0.5;stroke-miterlimit:10;stroke-dasharray:0.98,0.98;}
	.st5{fill:#95C11F;}
	.st6{fill:#FFFFFF;}
	.st7{font-family:'BarlowSemiCondensed-SemiBold';}
	.st8{font-size:2.295px;}
	.st9{fill:none;stroke:#95C11F;stroke-width:0.5;stroke-miterlimit:10;}
	.st10{font-size:2.375px;}
	.st11{font-size:2.1396px;}
	.st12{enable-background:new    ;}
	.st13{fill:none;stroke:#95C11F;stroke-width:0.48;stroke-miterlimit:10;}
	.st14{fill:none;stroke:#979392;stroke-width:0.5;stroke-linecap:round;stroke-linejoin:round;}
	.st15{fill:none;stroke:#1E1E1C;stroke-width:0.2835;stroke-miterlimit:10;}
	.st16{font-size:2.0881px;}
	.st17{fill:none;stroke:#1E1E1C;stroke-width:0.2835;stroke-linecap:round;stroke-linejoin:round;}
	.st18{fill:none;stroke:#1D1E1C;stroke-width:0.2835;stroke-miterlimit:10;}
</style>
<title>vvvvvMesa de trabajo 1</title>
<image style="overflow:visible;enable-background:new    ;" width="4226" height="3477" xlink:href="1D0EFCB9.png"  transform="matrix(3.319002e-02 0 0 3.319002e-02 2.7199 0.1395)">
</image>
<rect x="7.2" y="110" class="st0" width="25" height="8.3"/>
<g>
	<text transform="matrix(1 0 0 1 9.3992 111.5777)" class="st1 st2 st3">Mechón de pelo en área</text>
	<text transform="matrix(1 0 0 1 8.238 114.3262)" class="st1 st2 st3">genital sólo presente en el</text>
	<text transform="matrix(1 0 0 1 16.7038 117.0748)" class="st1 st2 st3">macho</text>
</g>
<rect x="34.4" y="110" class="st0" width="25.7" height="6.2"/>
<g>
	<text transform="matrix(1 0 0 1 35.2571 111.5577)" class="st1 st2 st3">Generalmente la hembra es </text>
	<text transform="matrix(1 0 0 1 46.4382 111.5577)" class="st1 st2 st3"> </text>
	<text transform="matrix(1 0 0 1 35.2971 114.3062)" class="st1 st2 st3">mas pequeña que el macho</text>
</g>
<rect x="119.2" y="111.2" class="st0" width="23.8" height="3.6"/>
<text transform="matrix(1 0 0 1 123.9867 113.4904)" class="st1 st2 st3">Primates sin cola</text>
<line class="st4" x1="57.1" y1="39.5" x2="113.5" y2="13.1"/>
<polygon class="st5" points="57.6,40 56.1,39.9 57,38.7 "/>
<polygon class="st5" points="113.6,13.9 114.5,12.7 113,12.5 "/>
<rect x="67.7" y="25.2" transform="matrix(0.9169 -0.3992 0.3992 0.9169 -3.4207 36.045)" class="st6" width="34.3" height="2.1"/>
<g>
	<text transform="matrix(0.9169 -0.3992 0.3992 0.9169 73.5665 30.8527)" class="st1 st7 st8">Largo del brazo: hasta 1.5 m</text>
	<text transform="matrix(0.9169 -0.3992 0.3992 0.9169 72.6308 34.5649)" class="st1 st2 st8">(doble de tamaño que las piernas)</text>
</g>
<g id="mechon_linea">
	<line class="st9" x1="25" y1="102.7" x2="19.3" y2="109.8"/>
	<path class="st5" d="M24.8,102.5c0.1-0.1,0.3-0.1,0.4,0s0.1,0.3,0,0.4s-0.3,0.1-0.4,0C24.7,102.9,24.7,102.7,24.8,102.5L24.8,102.5
		z"/>
</g>
<g id="hembra_linea">
	<line class="st9" x1="57.5" y1="98.6" x2="47.3" y2="109.8"/>
	<path class="st5" d="M57.3,98.4c0.1-0.1,0.3-0.1,0.4,0c0.1,0.1,0.1,0.3,0,0.4s-0.3,0.1-0.4,0C57.2,98.7,57.2,98.5,57.3,98.4z"/>
</g>
<g id="mano_linea">
	<line class="st9" x1="73" y1="94.9" x2="72.9" y2="129.4"/>
	<path class="st5" d="M72.7,94.9c0-0.2,0.1-0.3,0.3-0.3c0.2,0,0.3,0.1,0.3,0.3c0,0.2-0.1,0.3-0.3,0.3l0,0
		C72.9,95.2,72.7,95.1,72.7,94.9z"/>
</g>
<g id="cola_linea">
	<line class="st9" x1="110.7" y1="96.3" x2="130.3" y2="111"/>
	<path class="st5" d="M110.5,96.6c-0.1-0.1-0.1-0.3,0-0.4s0.2-0.1,0.4-0.1c0.1,0.1,0.2,0.3,0.1,0.4S110.7,96.7,110.5,96.6
		C110.6,96.6,110.5,96.6,110.5,96.6z"/>
</g>
<rect x="42.7" y="155.9" class="st0" width="15.2" height="3.3"/>
<text transform="matrix(1 0 0 1 43.9968 157.5162)" class="st1 st2 st10">Mano humana</text>
<rect x="64.2" y="155.7" class="st0" width="15.2" height="3.3"/>
<text transform="matrix(1 0 0 1 69.4275 157.3824)" class="st1 st2 st10">Mano</text>
<rect x="84.7" y="155.7" class="st0" width="15.2" height="3.3"/>
<text transform="matrix(1 0 0 1 90.8562 157.3365)" class="st1 st2 st10">Pie</text>
<rect x="58.2" y="159.3" class="st0" width="47" height="7.9"/>
<g>
	<text transform="matrix(1 0 0 1 71.4021 161.0054)" class="st1 st2 st10">   </text>
	<text transform="matrix(1 0 0 1 77.8069 161.0054)" class="st1 st2 st10"> </text>
	<text transform="matrix(1 0 0 1 78.5603 161.0054)" class="st1 st2 st10"> </text>
	<text transform="matrix(1 0 0 1 65.1661 160.6661)"><tspan x="0" y="0" class="st2 st11">Único primate dentro de los gibones que</tspan><tspan x="1.1" y="2.6" class="st2 st11">posee pulgares opuestos funcionales </tspan><tspan x="4.5" y="5.1" class="st2 st11">tanto en manos como en pies</tspan></text>
</g>
<rect x="100.4" y="118.2" class="st0" width="18.8" height="15.6"/>
<g>
	<text transform="matrix(1 0 0 1 104.502 120.1059)" class="st12"><tspan x="0" y="0" class="st1 st2 st10">Membrana</tspan><tspan x="-2.8" y="2.8" class="st1 st2 st10">interdigital entre</tspan></text>
	<text transform="matrix(1 0 0 1 102.9577 125.5943)" class="st1 st2 st10">dedos II y III (se</text>
	<text transform="matrix(1 0 0 1 103.5847 128.4429)" class="st1 st2 st10">desconoce su</text>
	<text transform="matrix(1 0 0 1 106.1399 131.2915)" class="st1 st2 st10">función)</text>
</g>
<polyline class="st13" points="63.2,156.8 63.2,158.3 98.4,158.3 98.4,156.8 "/>
<g id="humano">
	<path class="st14" d="M46.2,154.4c0.2-0.7,0.2-1.4,0.2-2.2c-0.1-0.9-0.3-1.8-0.6-2.6c0,0-2.1-2.1-2.5-3c-0.4-0.8-0.8-1.7-0.9-2.6
		c-0.2-1-0.9-2.5-0.9-3s0.5-2.4,0.4-3.3c0-0.9,0.1-1.8,1.1-1.4c0.9,0.3,1.5,1.1,1.5,2c0,0.7-0.3,1.5-0.3,1.9
		c0.1,0.6,0.3,1.2,0.5,1.8c0.1,0.6-0.1,0.3,0.3,1s0.7,0.7,0.8,0.3s0.2-6.2,0.2-6.2s0.2-2.9,0.2-3.3c0-0.5,0.1-2.3,0-2.9
		c0-0.9,0-1.8,0.1-2.7c0.1-0.6,0.5-1,1.1-1.1c1.2-0.1,1,1.9,1,1.9c-0.1,0.5-0.2,1-0.2,1.6s0.1,1.8,0.1,2.3c0,0.4,0,0.5,0,1.6
		s-0.1,1.8,0.1,1.8c0.2,0,0.8,0.1,0.7-0.5c-0.1-0.5-0.1-3.2-0.2-3.7c0-1.3,0-2.7,0.1-4c0.1-0.4,0.1-2.6,0.1-2.6s0.2-1.2,1.1-1.2
		c0.7,0,1.2,0.4,1.3,1.1c0,0.8-0.1,1.6-0.3,2.3c-0.2,0.7,0,1.5,0,2.4s0,1.6-0.1,2.1c0,0.5,0,3.4,0,3.4s0.3,0.3,0.4,0.1
		c0.3-1.2,0.4-2.4,0.4-3.5s0.2-3.7,0-4.1c-0.1-0.6-0.1-1.2-0.1-1.8c0-0.4,0.2-1.6,1.1-1.6c1.2,0,1.2,1.6,1.2,1.6s0,1,0,1.7
		s0.1,1.7,0.1,2.2s-0.2,1.5-0.2,2.1s0.1,1.5,0.1,1.9s-0.2,1.8,0,2s0.7,0.6,0.8,0.4c0.2-0.8,0.3-1.7,0.3-2.6c0.1-1.5,0.2-3.9,0.2-3.9
		s-0.2-2,1.1-1.9s1.1,1.4,1.1,1.4s-0.1,2-0.2,2.6c-0.1,0.6-0.1,5.2,0,5.7c0.2,0.8,0.4,1.6,0.6,2.4c0.3,1.5,0.5,3,0.5,4.5
		c-0.1,1.6-0.3,3.6-1.1,4.9c-0.5,0.8-0.8,1.6-1,2.5c-0.2,0.7-0.3,1.5-0.3,2.3"/>
	<path class="st14" d="M57.6,140.9c-1.6,0.1-3.1,0-4.6-0.3c-1.1-0.3-2.2-0.8-3-1.7c-0.6-0.6-1.1-1.2-1.6-1.9"/>
	<path class="st14" d="M46.3,140c0,0,3.7,0.7,5.5,1.8C53.7,143,55,144,55,144"/>
	<path class="st14" d="M46.3,140c0,0,3.7,1.4,5.1,3c1,1.3,1.6,2.9,1.6,4.5c0,0.7-0.1,1.4-0.3,2.1"/>
	<path class="st14" d="M44.2,140.3c0,0-0.2,0.6-0.7,0.6s-1,0-1,0"/>
	<path class="st14" d="M44.7,142.5c-0.1,0.5-0.5,0.9-0.9,1.2"/>
	<path class="st14" d="M45.1,143.4c-0.2,0.4-0.4,0.8-0.5,1.2"/>
	<path class="st14" d="M54.1,132.2c-0.4,0.1-0.7,0.1-1.1,0"/>
	<path class="st14" d="M54.1,127.9c0,0-0.1,0.4-0.6,0.4h-1"/>
	<path class="st14" d="M57.6,131.1c-0.2,0.1-0.4,0.2-0.7,0.2h-0.4"/>
	<path class="st14" d="M57.4,134.1c-0.2,0.1-0.4,0.2-0.7,0.2"/>
	<path class="st14" d="M57.4,137.9c0,0-0.1,0-1-0.4l-0.8-0.4"/>
	<path class="st14" d="M51,132.3c-0.3,0-0.7,0-1,0l-0.5-0.1"/>
	<path class="st14" d="M51,128.1c-0.3,0.2-0.7,0.2-1,0.2l-0.6-0.1"/>
	<path class="st14" d="M48,131.1c0,0,0.1,0.1-0.5,0c-0.3-0.1-0.5-0.1-0.8,0"/>
	<path class="st14" d="M48,133.5c0,0-0.2,0.5-0.6,0.5h-0.6"/>
	<path class="st14" d="M47.6,136.4c-0.3,0.1-0.6,0.3-0.8,0.4"/>
	<path class="st14" d="M50.7,136c0,0-0.1,0.1-0.7,0.2l-0.6,0.1"/>
	<path class="st14" d="M53.7,136c-0.3,0.1-0.6,0.1-0.9,0l-0.6-0.2"/>
	<path class="st14" d="M56.6,151.7c0,0-0.2,0.2-1.2,0.3c-1.5,0.1-2.9-0.2-2.3-0.1"/>
	<path class="st14" d="M49,151.2c-0.7-0.2-1.4-0.5-2-0.8l-1.2-0.8"/>
	<path class="st14" d="M42.2,136.4c0.2,0.4,0.3,0.7,0.3,1.1c0.1,0.4,0.1,0.8,0,1.1h-0.7"/>
</g>
<g id="pata">
	<g id="pata-2">
		<path class="st15" d="M90,131.9c-0.2,0.2-0.4,0.3-0.7,0.4c-0.3,0-0.6,0-0.9,0"/>
		<polygon class="st5" points="89.8,129.5 90.5,129.4 90.6,129.9 90.6,130.7 90.5,131.7 90.4,132.1 90.5,133.3 90.5,134.1 
			90.3,134.7 90.1,134.7 90,134.7 90.1,133.8 90,132.9 89.8,132.4 89.8,132.2 90,131.6 89.7,131 		"/>
		<path class="st15" d="M83.3,135.4c0,1-0.3,1.6-1.2,1.6c-1-0.1-1.7-1.1-1.6-2.1c0.1-0.8,0.8-1.4,1.6-1.6
			C83,133.3,83.3,134.3,83.3,135.4z"/>
		<path class="st15" d="M80.5,135.5c0,0-0.3,3.3-0.3,3.8c0,0.9,0.4,1.7,1,2.3c1.6,1.1,3,2.2,4.4,3.5c1,1.3,1.9,2.7,2.6,4.2
			c0.4,1.3,0.7,3.5,2.1,4.2s1.8,0.8,2.6,0.7c0.9-0.1,1.8-0.7,2.2-1.5c0.4-0.9,0.2-3.9,0.2-4.6c0-0.7-0.5-4.2,0.4-6.3
			c0.4-0.9,0.7-1.9,0.8-3c0.1-0.5,0.1-1,0-1.4c0-0.6,0-1.1,0.1-1.7c0-0.8-0.1-0.9-0.1-1.4c-0.1-0.4,0-0.7,0.1-1.1
			c0.1-0.4,0.1-0.7,0-1.1c0-0.3,0-0.7,0-1"/>
		<ellipse class="st15" cx="88.8" cy="128.1" rx="1" ry="1.3"/>
		<ellipse class="st15" cx="91.5" cy="127.7" rx="1" ry="1.3"/>
		<ellipse class="st15" cx="93.9" cy="128.1" rx="1" ry="1.1"/>
		<ellipse class="st15" cx="95.6" cy="131.2" rx="1" ry="1.1"/>
		<path class="st15" d="M83,136.7c0,0,0.8,0.3,1,0.8s0.1,1-0.3,1.4c0,0,0.9-0.4,1.3-0.3c0.5,0.2,0.8,0.6,0.7,1.1
			c0,0,0.9-0.1,1.2,0.3l0.3,0.4c0,0,0,0,0.2-0.3s-0.3-0.8-0.3-1.3c0-0.7,0-1.5,0-1.5c-0.1-0.3-0.2-0.6-0.2-0.9
			c0.1-0.6,0.3-1.2,0.7-1.6c-0.1-0.4-0.1-0.7,0.1-1.1c0.1-0.7,0.1-1.3,0-2c-0.1-0.5-0.2-1.1-0.1-1.6s0.1-0.3,0.1-1
			c0-0.4,0-0.7,0-1.1"/>
		<path class="st15" d="M89.7,128.6c0,0.3,0,0.5,0.1,0.8c0.1,0.5-0.1,1.3,0,1.7s0.3,0.5,0.2,0.8s-0.3,0.2-0.2,0.5
			c0.1,0.4,0.2,0.9,0.3,1.3c0,0.5-0.3,1,0,0.9s0.4-0.4,0.4-0.9s0-1.1,0-1.3c0-0.3-0.2-0.2,0-0.7c0.1-0.6,0.2-1.2,0.1-1.8
			c0-0.5-0.3-0.8-0.1-1.2c0.1-0.4,0.1-0.7,0-1.1"/>
		<path class="st15" d="M92.4,128.3c0,0.3,0,0.6,0,0.9c0.1,0.8,0.1,1.5,0,2.3c-0.1,0.5-0.2,1.1-0.2,1.7c0,0.5,0.1,1.1,0.3,1.6
			c0,0.1,0.1,0.2,0.2,0.3c-0.1-0.5-0.1-1,0-1.5c0.1-0.4,0.3-0.5,0.2-0.8c0-0.4,0-0.8,0-1.2c0.1-0.2-0.1-0.9,0-1.2s0.2-0.7,0.2-1.1
			c0-0.4-0.1-0.8-0.2-1.1"/>
		<path class="st15" d="M94.6,128.9c-0.1,0.5-0.2,0.9-0.2,1.4c0.1,0.6,0.1,1.2,0.1,1.8c-0.1,0.5-0.1,1.1-0.1,1.6s0.3,1.3,0.3,1.6
			s0.1-0.7,0.2-1.3c0-0.5,0-0.9-0.1-1.4c0-0.3,0-0.9,0-0.9"/>
		<path class="st15" d="M81.6,140.3c0.3-0.3,0.6-0.6,0.9-0.9c0.4-0.2,1.1-0.6,1.1-0.6c0.1,0.4,0,0.9-0.3,1.3
			c-0.4,0.8-0.7,1.2-0.7,1.2"/>
		<path class="st15" d="M85.7,139.7c-0.2,0.5-0.5,1-0.8,1.5c-0.2,0.3-0.5,0.5-0.9,0.6"/>
		<path class="st15" d="M87.2,140.5c0.4,0.7,0.6,1.4,0.7,2.1c0.3,1.5,0.5,3.5,0.5,3.5"/>
		<path class="st15" d="M87.4,140.2c0,0,2.7,0,3,4.1c0,0.5-0.2,0.9-0.6,1.3"/>
		<path class="st15" d="M87.2,146.6c0.7-0.1,1.4-0.3,2-0.7c1.3-0.7,2.4-1.8,2.4-1.7"/>
		<path class="st15" d="M93.9,140.5c-0.6,0.8-1.1,1.6-1.3,2.6c-0.2,1-0.4,1.9-0.5,2.9"/>
		<path class="st15" d="M87.6,147.1c0,0,1.9-1.2,3.4-1.1c0.9,0.1,1.9,0.4,2.7,0.8c0.3,0.2,0.6,0.2,1,0.1"/>
		<path class="st15" d="M88.7,140.7c0.8,0.5,1.8,0.9,2.8,1c1.5,0.2,2.4,0.2,2.4,0.2"/>
		<path class="st15" d="M87.2,137.4c1.4-0.1,2.7,0.1,4,0.7c1.3,0.6,2.7,1.3,3.9,2.1"/>
		<path class="st15" d="M87.7,134.8c0.8-0.2,1.6-0.2,2.4,0c0.9,0.3,1.5,0.4,1.9,1.3s0.2,1.3,0.2,1.3"/>
		<path class="st15" d="M94.6,138.1c0,0,0.5-1.5-0.5-2.1c-0.6-0.4-1.4-0.4-2.1-0.1"/>
		<path class="st15" d="M89.8,131.1l-0.8,0.1c-0.3,0-0.5,0.1-0.7,0.2"/>
		<path class="st15" d="M92.3,131.5c-0.1-0.2-0.3-0.3-0.6-0.3c-0.4,0-0.8,0.1-0.8,0.1"/>
		<path class="st15" d="M90.5,132.4c0.4,0,0.8,0,1.2-0.1c0.4-0.2,0.6-0.2,0.6-0.2"/>
		<path class="st15" d="M92.9,132.7c0.2,0.1,0.5,0.2,0.7,0.2c0.2-0.1,0.4-0.2,0.5-0.4"/>
		<path class="st15" d="M92.9,131.5c0.3,0.1,0.5,0.2,0.8,0.2c0.3-0.1,0.4-0.2,0.4-0.2"/>
		<path class="st15" d="M88.1,127.2c0,0,0.8-0.9,1.1-0.8s0.4,1,0.4,1"/>
		<path class="st15" d="M91.1,126.5c0,0,0.5-0.7,0.7-0.6s0.4,0.9,0.4,0.9"/>
		<path class="st15" d="M93.4,127.1c0,0,0.4-0.7,0.7-0.7c0.2,0,0.6,1,0.6,1"/>
		<path class="st15" d="M95.1,130.2c0,0,0.4-0.8,0.7-0.8c0.3,0,0.7,1.1,0.7,1.1"/>
	</g>
	<text transform="matrix(1 0 0 1 81.6428 132.5855)" class="st1 st2 st16">I</text>
	<text transform="matrix(1 0 0 1 88.3611 125.4009)" class="st1 st2 st16">II</text>
	<text transform="matrix(1 0 0 1 90.9226 125.4009)" class="st1 st2 st16">III</text>
	<text transform="matrix(1 0 0 1 93.3113 125.4009)" class="st1 st2 st16">IV</text>
	<text transform="matrix(1 0 0 1 95.8459 128.7295)" class="st1 st2 st16">V</text>
</g>
<g id="siamang_mano">
	<path class="st17" d="M68.4,133.6c-0.3-0.5-0.3-1.1,0-1.5c0.5-1,0.9-1.4,1.2-1.2c0.3,0.1,0.7,1.8,0.4,2.3c-0.2,0.5-0.2,2.7-0.3,2.9
		c-0.1,0.2,0.1,1.7,0,1.9c0,0.9,0.2,1.8,0.3,2.8c0.1,0.2,0.2-2.3,0.3-2.4c0.1-0.1-0.1-1.9,0-2s0.5-3,0.6-3.5s0.1-0.3,0-0.6
		c0-0.4,0-0.7,0.1-1.1c0.1-0.1,0.4-1,0.8-1.1s0.7,2,0.4,2.5s-0.3,3.7-0.3,3.7l-0.1,1.8c0,0,0,2.9,0.2,3c0.2,0.2,0.3-1.6,0.3-2
		c0-0.9,0-1.8,0.1-2.7c0.1-0.8,0.3-2.3,0.3-2.4c-0.1-0.3-0.2-0.7-0.1-1c0.1-0.5,0.4-1,0.8-1.3c0.4,0.4,0.7,0.9,0.8,1.4
		c0,0.4-0.1,0.9-0.2,1.3c-0.1,0.1-0.1,3.1-0.1,3.3s0.1,3.3,0.2,3.6s0.2,0.6,0.3,0.9c-0.1-0.5-0.2-1.1-0.1-1.7c0.1-0.5,0.3-3,0.3-3.1
		c0-0.2-0.3-0.8-0.1-1.4c0.2-0.6,0.5-0.8,0.7-0.7c0.3,0.3,0.5,0.8,0.5,1.2c-0.1,0.5,0,2.9,0,3.1c0,0.3,0,0.6,0,0.9
		c-0.1,0.1,0.1,2.4,0,2.7s-0.4,3.1-0.5,3.2c0,0.1-0.3,1.4-0.3,1.8c-0.1,0.3,0.1,2.5,0.1,2.7s0,2.1-0.1,2.6c-0.1,0.4-0.4,0.8-0.8,1
		c-0.5,0.2-1.5-0.4-1.9-0.5s-1,0.4-1.6,0.3c-0.7-0.1-1.6-0.9-2.8-2.3c-1.2-1.4-3.2-3.8-3.3-4.2c-0.1-0.4,0.1-1.6,0-1.8
		c-0.2-0.4-0.3-0.9-0.3-1.3c0.1-0.5,0.9-0.4,1.1-0.3c0.4,0.4,0.7,0.9,0.7,1.4c-0.1,0.6-0.1,0.4-0.1,0.6s0.8,1.1,0.8,1.4
		s0.6,0.3,0.8,0.5c0.2,0.3,1.2,0.4,1.3,0.8c0.1,0.3,0.7,0.1,0.9,0.3s-0.5-1.5-0.6-1.7s-0.8-2.1-0.8-2.2s-0.5-1.3-0.5-1.7
		c0-0.8,0.1-1.6,0.2-2.4c0.1-0.3-0.5-2.6-0.4-3.1s0.1-1.8,0.2-1.9S68,134.2,68.4,133.6z"/>
	<path class="st17" d="M68.4,133.6c0.2,0.2,0.6,0.2,0.8,0.2c0.3,0,0.5-0.2,0.7-0.3"/>
	<path class="st17" d="M71,132.6c0,0.2,0.3,0.4,0.5,0.4c0.3-0.1,0.6-0.2,0.8-0.4"/>
	<path class="st17" d="M72.8,134.2c0,0,0.2,0.4,0.4,0.4s0.8,0,0.8-0.1"/>
	<path class="st17" d="M74.7,137.4c0,0,0.2,0.2,0.4,0.2s0.6-0.4,0.6-0.4"/>
	<path class="st17" d="M68.1,136.3c0.4,0.1,0.8,0.1,1.2,0"/>
	<path class="st17" d="M70.6,136.5c0.4,0.1,0.8,0.1,1.2,0"/>
	<path class="st17" d="M72.6,139.3c0.4,0.1,0.8,0.1,1.2,0"/>
	<path class="st17" d="M70.6,138.3c0.4,0.1,0.8,0.1,1.2,0"/>
	<path class="st17" d="M74.6,140.4c0.2,0.1,0.1,0,1,0"/>
	<path class="st17" d="M74.6,139.7c0.4,0.1,0.8,0.1,1.2,0"/>
	<path class="st17" d="M72.7,136.5c0.4,0.1,0.8,0.1,1.2,0"/>
	<path class="st17" d="M67.9,138.1c0.6,0,1.1,0,1.7,0"/>
	<path class="st17" d="M68.4,141.5c0.5-0.2,1.1-0.3,1.7-0.2c0.2,0.2,0.3,0.6,0.2,0.9c-0.2,0.5-0.5,1-0.6,1.5"/>
	<path class="st17" d="M70,141.2c0.7-0.1,1.4,0,2,0.2c0.4,0,0.8,0.2,1.2,0.4c0.5,0.2,1.1,0.5,1.5,0.9c0.2,0.2,0.4,0.4,0.6,0.6"/>
	<path class="st17" d="M72.2,141.4c0,0-0.4,2.2,0,2.9"/>
	<path class="st17" d="M68.7,145.4c0.5-0.1,1-0.1,1.5,0c0.9,0.2,3.5,0.9,4,1"/>
	<path class="st17" d="M71.8,144.9c0.1,0.8,0.2,1.5,0.5,2.2"/>
	<path class="st17" d="M70.5,147.4c0,0,3.5,0.7,3.8,0.7"/>
	<path class="st17" d="M74.8,147.4c0,0-1.5,2.6-1.7,3s-0.8,2.2-0.6,2.8c0.2,0.4,0.4,0.7,0.7,1"/>
	<path class="st17" d="M74.7,150.4c-1.1,0.2-2.2,0.4-3.2,0.8"/>
	<path class="st17" d="M74.9,151.4c0,0-4.2,1.6-4.9,2.3"/>
	<path class="st17" d="M69.8,149.4c0.6,0.6,1,1.3,1.5,2.1c0.2,0.6,0.8,1.5,0.6,2.1"/>
	<path class="st17" d="M66,146.4c0,0,0,0.2-0.4,0.2c-0.3,0-0.5-0.1-0.7-0.2"/>
	<path class="st17" d="M66.9,148c0,0-0.6,0.7-0.8,0.7c-0.3,0-0.6-0.1-0.8-0.3c-0.2-0.2-0.4-0.4-0.4-0.7c0-0.4,0-0.7,0.1-0.8"/>
	<path class="st17" d="M67.8,148.6c-0.1,0.3-0.3,0.5-0.4,0.8c-0.2,0.4-0.2,0.7-0.4,0.6s-0.2,0-0.5-0.3c-0.2-0.2-0.3-0.3-0.4-0.6
		l-0.1-0.2"/>
	<path class="st17" d="M69.1,149.2c0,0.4,0,0.7-0.2,1c-0.1,0.3-0.4,0.6-0.7,0.8"/>
	<path class="st17" d="M71.5,130.4c0-0.1,0.4-0.4,0.7,0"/>
	<path class="st17" d="M73.2,132c0-0.1,0.4-0.4,0.7,0"/>
	<path class="st17" d="M74.8,135.6c0.1-0.2,0.4-0.2,0.5-0.1c0.1,0,0.1,0.1,0.1,0.1"/>
	<path class="st17" d="M69,131.2c0.2-0.2,0.5-0.2,0.7,0l0.1,0.1"/>
</g>
<line id="linea_negra_base" class="st18" x1="41.8" y1="154.4" x2="101.1" y2="154.4"/>
<g id="linea_verde_membrana">
	<polyline class="st13" points="101.9,120.7 90.2,120.7 90.2,123.1 	"/>
	<polygon class="st5" points="89.6,122.7 90.2,122.9 90.7,122.7 90.2,124 	"/>
</g>
</svg>
