<svg id="Capa_1" data-name="Capa 1" xmlns="http://www.w3.org/2000/svg" viewBox="0 0 806.94 435.1"><defs><style>.cls-1{fill:#e1eec0;}.cls-2{fill:#95c11f;}.cls-3,.cls-5{font-size:19.69px;fill:#1e1e1c;}.cls-11,.cls-3{font-family:BarlowSemiCondensed-Light, Barlow Semi Condensed;font-weight:300;}.cls-4{fill:none;stroke:#95c11f;stroke-miterlimit:10;stroke-width:0.5px;}.cls-17,.cls-18,.cls-19,.cls-20,.cls-21,.cls-5{font-family:BarlowSemiCondensed-MediumItalic, Barlow Semi Condensed;font-style:italic;}.cls-16,.cls-17,.cls-18,.cls-19,.cls-20,.cls-21,.cls-24,.cls-25,.cls-26,.cls-5{font-weight:500;}.cls-17,.cls-6{letter-spacing:0em;}.cls-7{letter-spacing:-0.02em;}.cls-20,.cls-8{letter-spacing:0em;}.cls-9{letter-spacing:0em;}.cls-10,.cls-21,.cls-24{letter-spacing:0em;}.cls-11{font-style:normal;}.cls-12{letter-spacing:0em;}.cls-13,.cls-19{letter-spacing:-0.02em;}.cls-14{letter-spacing:0em;}.cls-15{letter-spacing:0em;}.cls-16,.cls-24,.cls-25,.cls-26{font-family:BarlowSemiCondensed-Medium, Barlow Semi Condensed;}.cls-22{letter-spacing:0em;}.cls-23{letter-spacing:-0.02em;}.cls-25{letter-spacing:0em;}.cls-26{letter-spacing:0em;}.cls-27{letter-spacing:0.01em;}.cls-28{letter-spacing:-0.01em;}</style></defs><rect class="cls-1" x="384.43" y="66.25" width="31.44" height="208.34"/><circle class="cls-2" cx="399.67" cy="234.24" r="5.05"/><circle class="cls-2" cx="282.98" cy="300.55" r="4.34"/><circle class="cls-2" cx="521.66" cy="300.55" r="4.34"/><text class="cls-3" transform="translate(343.05 257.46)">Dos Subespecies</text><line class="cls-4" x1="402.1" y1="279.26" x2="402.1" y2="263.5"/><line class="cls-4" x1="399.67" y1="238.73" x2="399.67" y2="222.97"/><circle class="cls-2" cx="399.67" cy="186.04" r="5.05"/><line class="cls-4" x1="399.67" y1="188.86" x2="399.67" y2="173.11"/><circle class="cls-2" cx="399.67" cy="137.15" r="5.05"/><line class="cls-4" x1="399.67" y1="139.98" x2="399.67" y2="124.22"/><circle class="cls-2" cx="399.67" cy="84.42" r="5.05"/><line class="cls-4" x1="399.67" y1="87.25" x2="399.67" y2="71.5"/><text class="cls-5" transform="translate(181.62 330.76)"><tspan class="cls-6">S</tspan><tspan x="9.73" y="0">ymphalangus </tspan><tspan class="cls-7" x="113.55" y="0">s</tspan><tspan x="121.45" y="0">ynda</tspan><tspan class="cls-8" x="157.64" y="0">c</tspan><tspan x="166.58" y="0">t</tspan><tspan class="cls-9" x="172.72" y="0">y</tspan><tspan x="180.99" y="0">lus </tspan><tspan class="cls-7" x="56.78" y="23.63">s</tspan><tspan x="64.67" y="23.63">ynda</tspan><tspan class="cls-6" x="100.86" y="23.63">c</tspan><tspan x="109.8" y="23.63">t</tspan><tspan class="cls-10" x="115.94" y="23.63">y</tspan><tspan x="124.21" y="23.63">lus</tspan><tspan class="cls-11"><tspan x="28.3" y="49.88">(habita en Sum</tspan><tspan class="cls-12" x="139.83" y="49.88">a</tspan><tspan x="148.75" y="49.88">t</tspan><tspan class="cls-12" x="154.85" y="49.88">r</tspan><tspan x="161.17" y="49.88">a)</tspan></tspan></text><text class="cls-5" transform="translate(420.3 330.76)"><tspan class="cls-8">S</tspan><tspan x="9.73" y="0">ymphalangus </tspan><tspan class="cls-13" x="113.55" y="0">s</tspan><tspan x="121.45" y="0">ynda</tspan><tspan class="cls-8" x="157.64" y="0">c</tspan><tspan x="166.58" y="0">t</tspan><tspan class="cls-10" x="172.72" y="0">y</tspan><tspan x="180.99" y="0">lus </tspan><tspan class="cls-8" x="58.97" y="23.63">c</tspan><tspan x="67.91" y="23.63">ontinentis</tspan><tspan class="cls-11"><tspan x="32.59" y="49.88">(habita en Malasia)</tspan></tspan></text><polyline class="cls-4" points="282.98 298.51 282.98 279.25 521.66 279.25 521.66 296.13"/><text class="cls-3" transform="translate(257.18 214.13)"><tspan class="cls-14">E</tspan><tspan class="cls-15" x="10.14" y="0">specie:</tspan><tspan class="cls-16" x="64.7" y="0"> </tspan><tspan class="cls-17" x="68.64" y="0">S</tspan><tspan class="cls-18" x="78.37" y="0">ymphalangus </tspan><tspan class="cls-19" x="182.19" y="0">s</tspan><tspan class="cls-18" x="190.09" y="0">ynda</tspan><tspan class="cls-20" x="226.27" y="0">c</tspan><tspan class="cls-18" x="235.21" y="0">t</tspan><tspan class="cls-21" x="241.36" y="0">y</tspan><tspan class="cls-18" x="249.63" y="0">lus</tspan></text><text class="cls-3" transform="translate(319.3 163.11)">Géne<tspan class="cls-22" x="38.02" y="0">r</tspan><tspan class="cls-15" x="44.3" y="0">o: </tspan><tspan class="cls-20" x="62.73" y="0">S</tspan><tspan class="cls-18" x="72.46" y="0">ymphalangus</tspan></text><text class="cls-3" transform="translate(329.56 111.91)"><tspan class="cls-23">F</tspan><tspan class="cls-15" x="9.2" y="0">amilia:</tspan><tspan class="cls-16" x="59.25" y="0" xml:space="preserve"> H</tspan><tspan class="cls-24" x="74.21" y="0">y</tspan><tspan class="cls-16" x="82.74" y="0">lob</tspan><tspan class="cls-25" x="106.25" y="0">a</tspan><tspan class="cls-26" x="115.44" y="0">tidae</tspan></text><text class="cls-3" transform="translate(304.22 64.03)">Supe<tspan class="cls-27" x="37.94" y="0">r</tspan><tspan class="cls-28" x="44.44" y="0">f</tspan><tspan x="50.35" y="0">amilia: </tspan><tspan class="cls-16" x="104.34" y="0">Hominoidea</tspan></text></svg>